<svg width="139" height="135" viewBox="0 0 139 135" fill="none" xmlns="http://www.w3.org/2000/svg">
<g opacity="0.5" clip-path="url(#clip0_2_23)">
<path d="M39.2933 127.834C45.1873 128.227 50.2627 126.688 52.0636 125.869H85.9541C89.0975 128.227 98.0695 128.161 102.163 127.834C105.306 123.511 107.729 116.209 108.548 113.098L126.721 83.1352C132.222 80.3845 137.199 72.1651 139 68.3993C135.857 58.1825 129.504 53.9909 126.721 53.1723L109.53 23.2094C109.137 15.3503 105.437 9.12851 103.636 7C88.7046 7.39296 84.6443 9.78344 84.4806 10.9295L50.5901 10.9296C45.089 6.60705 34.8728 7.81866 30.4523 8.96479C28.0947 17.2168 28.1602 23.2094 28.4876 25.1742L10.3145 55.1371C3.24171 61.8173 0.49118 69.3817 1.52588e-05 72.3289C4.32228 80.188 10.3145 83.7901 12.7703 84.6088L31.4346 114.08C33.3993 122.333 37.4924 126.688 39.2933 127.834Z" fill="#81BAB9"/>
<path d="M42.8236 116.937C43.2149 117.329 45.9212 116.774 47.2254 116.447L91.2435 116.937C93.9824 118.113 96.2974 118.08 97.1126 117.917C98.2864 115.957 97.9277 113.507 97.6017 112.527L120.589 73.3284C124.893 70.1925 125.643 67.7752 125.48 66.9586C123.132 63.8227 121.241 63.0387 120.589 63.0387L98.5798 23.3498C99.3624 20.9979 97.2756 17.47 96.1344 16C93.7867 16.392 91.2435 17.47 90.2653 17.9599L45.269 20.4099C43.7039 19.2339 41.0302 18.9399 39.889 18.9399C38.324 20.1159 37.6066 23.0231 37.4436 24.3298L17.88 64.5086C15.5324 65.2926 13.3152 68.1019 12.5 69.4085C13.6738 70.9765 16.5758 73.3284 17.88 74.3084L39.8891 112.527C39.8891 113.997 42.3345 116.447 42.8236 116.937Z" fill="#729D9C"/>
<path d="M46.7045 109.5C47.1045 127.9 62.8712 134.167 70.7045 135C88.3046 129.8 91.3712 115.833 90.7045 109.5C106.705 118.7 121.705 110.667 127.205 105.5C131.605 81.9 119.371 71.3333 112.705 69C128.705 61 130.371 41 129.205 32C110.805 17.6 95.8712 23 90.7045 27.5C92.7045 8.7 74.2045 1.33332 64.7045 0C47.9045 6.8 44.3712 21.1667 44.7045 27.5C27.1045 19.5 14.0379 29.1667 9.70454 35C4.50454 57.8 18.5379 67.1667 26.2045 69C7.00454 78.2 8.53788 97.1667 11.7045 105.5C26.5045 117.9 41.2045 113.333 46.7045 109.5Z" fill="#FFE3F4"/>
<path d="M69.3512 111.008C75.1933 106.732 76.0047 100.804 75.6802 98.3747L89.3118 89.629C94.7644 93.1273 102.294 92.3823 105.378 91.5725C104.209 82.6324 99.3732 78.1299 97.1012 76.9962L98.0749 58.0471C103.138 52.994 105.053 47.5197 105.378 45.4143C99.5355 42.6934 93.2065 43.6327 90.7723 44.4425L75.6802 36.6685C74.9012 30.4493 69.8381 26.3032 67.4039 25.0075C62.3407 28.8945 60.7504 35.3729 60.5881 38.1262L45.0091 46.386C39.946 43.2764 33.8118 44.4425 31.3776 45.4143C32.1565 52.4109 36.8951 57.3992 39.167 59.0188V77.968C32.9355 82.2437 31.3776 88.8192 31.3776 91.5725C36.4407 95.0708 44.5223 92.3823 47.9302 90.6007L61.5618 96.9171C61.5618 106.635 66.7547 110.36 69.3512 111.008Z" fill="#FFADD0"/>
<path d="M54.1259 99.7953C61.5708 99.7953 66.8787 94.6611 68.602 92.094C71.9109 99.898 82.0442 100.48 86.6973 99.7953C93.315 90.3483 89.7993 81.8255 87.2143 78.745C99.6224 79.9772 105.827 71.3859 107.378 66.9363C102.828 57.4893 92.0397 55.4699 87.2143 55.641C94.2456 44.5511 89.7993 36.6444 86.6973 34.0773C77.1843 33.2558 70.6701 39.896 68.602 43.3189C65.2932 35.9256 54.4705 34.7618 49.4728 35.1041C42.0279 42.4974 47.0601 52.5605 50.5068 56.6678C36.8578 55.0249 32.0669 63.8558 31.3776 68.4766C34.6864 77.9235 44.8197 79.943 49.4728 79.7718C45.7503 91.6832 51.0238 98.0839 54.1259 99.7953Z" fill="#C9D3FF"/>
<path d="M58.3775 89.0075C63.9775 85.8075 66.0442 82.0075 66.3775 80.5075L67.8775 78.0075L70.3775 77.5075L71.3775 80.0075C72.9775 85.6075 77.3775 88.0075 79.3775 88.5075C81.3775 83.3075 78.2109 78.3409 76.3775 76.5075L76.8775 71.5075H79.8775C88.2775 71.9075 91.0442 68.6742 91.3775 67.0075C86.5775 62.2075 82.0442 63.3409 80.3775 64.5075H77.8775L76.8775 59.5075C80.8775 54.3075 80.8775 48.6742 80.3775 46.5075C73.1775 48.1075 71.7108 53.8409 71.8775 56.5075L70.3775 57.5075H66.8775L65.8775 55.5075C63.0775 49.1075 58.3775 47.8409 56.3775 48.0075C55.5775 53.6075 58.3775 58.0075 59.8775 59.5075L60.3775 65.0075H57.3775C50.9775 63.4075 46.0442 67.0075 44.3775 69.0075C49.5775 74.6075 55.8775 72.6742 58.3775 71.0075H60.3775L61.8775 74.5075L60.3775 76.5075C56.7775 79.7075 57.5442 86.1742 58.3775 89.0075Z" fill="#A5A4D8"/>
<path d="M57.8392 71.0416C59.5112 77.7924 65.8509 79.8317 68.8117 80.0075C79.2618 78.7418 81.526 70.69 81.3518 66.8224C81.7698 63.447 76.9976 59.0871 74.5593 57.3291C72.8872 55.6414 67.2442 55.9227 64.6317 56.2743C62.9597 55.8523 59.4067 59.9661 57.8392 62.0757C57.0032 63.7634 57.4908 68.7562 57.8392 71.0416Z" fill="#FFF5D6"/>
</g>
<defs>
<clipPath id="clip0_2_23">
<rect width="139" height="135" fill="white"/>
</clipPath>
</defs>
</svg>
