<svg width="108" height="36" viewBox="0 0 108 36" fill="none" xmlns="http://www.w3.org/2000/svg">
<path d="M40.0017 7.99585H0V9.99669H40.0017V7.99585Z" fill="#464646"/>
<path d="M40.0017 11.9975H0V13.9983H40.0017V11.9975Z" fill="#464646"/>
<path d="M40.0017 15.9992H0V18H40.0017V15.9992Z" fill="#464646"/>
<path d="M0 6.00252H6.00249V2.00084H10.0042V6.00252H18V2.00084H22.0017V6.00252H30.005V2.00084H34.0067V6.00252H40.0017V4.00168H36.0075V0H28.0042V4.00168H24.0025V0H15.9992V4.00168H11.9975V0H4.00166V4.00168H0V6.00252Z" fill="#464646"/>
<path d="M8.68795 23.18C8.89795 23.23 9.20795 23.18 9.31795 23.13C9.42795 23.08 9.67795 22.98 9.81795 22.92C9.95795 22.86 10.5579 22.69 10.8279 22.61C11.0079 22.59 11.5379 22.53 11.7679 22.53C11.9879 22.54 12.3279 22.6 12.5579 22.63C12.7879 22.66 13.5879 23.05 13.7679 23.18C14.1879 23.33 14.7279 23.96 14.6779 24.64C14.6179 25.07 14.5179 25.2 14.4679 25.43C14.7079 25.52 15.048 25.61 15.198 25.79C15.338 25.96 15.4179 26.04 15.4379 26.19C15.4579 26.34 15.3579 26.64 15.4279 26.83C15.4979 27.03 15.5779 27.18 15.5179 27.37C15.4579 27.57 15.228 27.66 15.068 27.7C14.908 27.74 14.528 27.69 14.378 27.7C14.228 27.71 13.7979 27.83 13.7679 27.88C13.5279 28 13.258 27.93 13.258 27.96C13.128 27.96 11.9979 28.21 11.9979 28.23C11.6579 28.26 11.4979 28.31 11.1479 28.34C10.7579 28.46 10.1579 28.53 9.80794 28.73C9.77794 28.86 9.67794 28.94 9.64794 29.12C9.61794 29.3 9.59795 29.78 9.56795 29.99C9.59795 29.99 9.55793 30.56 9.57793 30.56C9.75793 30.76 9.63796 32.01 9.63796 32.36C9.66796 32.36 9.63796 33.7 9.63796 33.86C9.66796 33.86 9.49795 34.75 9.49795 34.72C9.41795 34.75 9.29796 34.67 9.13796 34.81C9.02796 35.02 8.95794 35.15 8.76794 34.81C8.68794 34.78 8.21795 34.55 8.21795 34.5C7.89795 34.48 7.67796 34.13 7.78796 33.99C7.78796 33.96 7.87793 33.7 7.82793 33.48C7.79793 33.48 7.79795 32.85 7.74795 32.77C7.70795 32.69 7.65796 32.53 7.66796 32.42C7.66796 32.31 7.73794 31.98 7.76794 31.98C7.76794 31.59 7.80796 31.11 7.78796 30.88C7.76796 30.65 7.67796 30.32 7.69796 30.13C7.71796 29.94 7.72795 29.52 7.65795 29.39C7.58795 29.26 7.55795 29.28 7.43795 29.3C7.09795 29.29 6.34794 29.52 6.14794 29.6C5.94794 29.67 5.22796 29.8 5.22796 29.77C5.04796 29.77 4.81796 29.63 4.35796 29.61C3.74796 29.59 3.75794 29.72 3.55794 29.73C3.39794 29.74 3.28796 29.6 2.94796 29.71C2.60796 29.82 2.28796 30.08 2.22796 30.08C2.17796 30.16 2.02796 30.25 1.94796 30.32C1.86796 30.38 1.41796 30.49 1.41796 30.52C1.30796 30.59 1.10794 30.66 1.01794 30.63C0.927936 30.6 0.887935 30.47 0.797935 30.4C0.707935 30.33 0.547939 30.34 0.457939 30.09C0.407939 29.93 0.517958 29.36 0.477958 29.27C0.437958 29.18 0.467953 28.81 0.597953 28.7C0.727953 28.6 1.11795 28.46 1.49795 28.5C1.49795 28.53 2.06796 28.66 2.22796 28.6C2.22796 28.57 2.58795 28.46 2.65795 28.44C2.73795 28.43 3.04796 28.26 3.28796 28.22C3.69796 28.16 4.60796 27.95 4.60796 27.93C4.73796 27.93 5.56795 27.76 5.56795 27.74C5.59795 27.74 5.84794 27.67 6.17794 27.52C6.58794 27.29 7.00795 27.11 7.15795 27.05C7.45795 26.93 8.07795 26.85 8.31795 26.82C8.57795 26.78 9.39794 26.92 9.39794 26.9C9.49794 26.9 10.3679 26.73 10.3679 26.7C10.4479 26.7 11.078 26.41 11.358 26.31C11.628 26.21 12.1779 26.1 12.1779 26.07C12.3879 25.97 12.4979 25.95 12.5479 25.8C12.0379 25.72 11.7279 25.51 10.3679 25.21C10.3179 25.21 8.80794 24.67 8.80794 24.65C8.67794 24.65 8.46794 24.53 8.39794 24.5C8.32794 24.47 8.30795 24.48 8.21795 24.43C8.12795 24.38 8.07795 24.37 7.93795 24.42C7.93795 24.45 7.76795 24.55 7.68795 24.71C7.60795 24.8 7.45794 24.94 7.26794 25.01C7.07794 25.08 6.80795 25.05 6.68795 25.08C6.57795 25.12 6.18796 25.45 5.97796 25.53C5.76796 25.61 5.41794 25.58 5.23794 25.66C5.05794 25.74 4.18795 26.26 4.12795 26.32C4.07795 26.38 4.07796 26.6 4.00796 26.63C3.93796 26.66 3.69796 26.72 3.63796 26.82C3.57796 26.85 3.45794 26.82 3.45794 26.8C3.44794 26.78 3.43794 26.61 3.42794 26.57C3.41794 26.53 3.35796 26.42 3.35796 26.35C3.35796 26.28 3.31794 25.66 3.29794 25.5C3.32794 25.5 3.26794 25.26 3.29794 25.11C3.33794 24.86 3.83796 24.79 3.94796 24.74C4.02796 24.74 4.36795 24.55 4.43795 24.51C4.50795 24.46 4.91796 24.19 5.10796 24.04C5.20796 23.97 5.58795 23.69 5.90795 23.51C6.23795 23.32 6.50795 23.22 6.52795 23.22C6.58795 23.2 7.02795 23.09 7.12795 23.01C7.22795 22.93 7.47795 22.6 7.49795 22.58C7.51795 22.57 7.65795 22.28 7.68795 22.02C7.71795 21.76 8.09796 21.75 8.22796 21.83C8.36796 21.91 8.52794 22.18 8.61794 22.26C8.77794 22.4 8.75796 22.81 8.75796 22.89C8.75796 22.94 8.73795 23.02 8.68795 23.18Z" fill="#464646"/>
<path d="M21.938 25.1499C22.138 25.0699 22.548 25.02 22.668 24.99C22.668 24.96 23.258 25.0099 23.398 25.0599C23.578 25.0999 23.888 25.3699 23.928 25.3699C23.978 25.3999 24.018 25.46 24.028 25.55C24.028 25.65 23.948 25.74 23.958 25.85C23.968 25.96 24.128 25.9199 24.108 26.0599C24.078 26.2399 24.138 26.47 24.078 26.51C24.018 26.55 23.828 26.44 23.828 26.41C23.598 26.36 23.528 26.54 23.488 26.55C23.408 26.59 22.918 26.67 22.858 26.67C22.858 26.7 22.568 26.65 22.398 26.76C22.228 26.87 22.108 26.84 22.008 26.97C21.968 27.03 21.918 27.1199 21.888 27.2799C21.858 27.4599 21.848 27.72 21.848 27.76C21.808 27.91 21.748 27.9399 21.778 28.0299C21.808 28.1199 21.958 28.22 22.168 28.07C22.428 27.89 22.538 27.62 22.898 27.47C22.908 27.46 23.098 27.3 23.368 27.16C23.548 27.07 23.718 27.0399 23.798 26.9999C23.958 26.9299 24.208 26.7299 24.338 26.6499C24.448 26.5699 24.698 26.39 25.048 26.22C25.138 26.18 25.278 26.1199 25.438 26.0599C25.788 26.0199 25.768 25.9099 26.098 25.7799C26.208 25.7299 26.438 25.72 26.528 25.66C26.678 25.57 26.818 25.47 26.938 25.44C27.058 25.41 27.168 25.43 27.278 25.41C27.268 25.02 27.398 24.73 27.418 24.66C27.438 24.59 27.498 24.2099 27.528 24.0899C27.558 23.9599 27.708 23.24 27.738 23.24C27.768 23 27.838 22.6599 27.888 22.5599C27.938 22.4599 27.978 22.34 28.058 22.29C28.208 22.09 28.278 22.12 28.358 22.01C28.438 21.91 29.008 21.9999 29.178 22.0899C29.348 22.1799 29.538 22.7 29.548 22.77C29.568 22.84 29.608 23.3 29.578 23.38C29.548 23.46 29.368 24.04 29.308 24.1C29.168 24.36 29.068 25.26 29.068 25.44C29.038 25.44 28.838 26.64 28.828 26.7C28.818 26.76 28.528 27.91 28.508 27.96C28.488 28.02 28.368 28.48 28.328 28.8C28.288 29.11 28.288 30.2 28.268 30.33C28.248 30.61 28.018 31.04 27.988 31.22C27.958 31.4 27.998 31.6799 27.998 31.8399C27.988 31.9999 27.838 32.22 27.848 32.3C27.858 32.39 27.928 32.37 28.128 32.3C28.278 32.13 28.538 32.05 28.808 32.04C29.638 32 30.458 32.47 30.688 32.64C30.808 32.73 30.958 32.9 31.068 33.04C31.168 33.16 30.998 33.33 31.008 33.35C31.018 33.36 31.338 33.37 31.378 33.45C31.428 33.55 31.508 33.65 31.508 33.77C31.508 33.89 30.988 33.8999 30.968 33.9999C30.968 34.2299 31.028 34.0699 31.158 34.1199C31.288 34.1699 31.368 34.2399 31.378 34.3699C31.388 34.4899 31.308 34.4 31.198 34.51C31.088 34.61 31.038 34.7199 30.988 34.7799C30.948 34.8399 30.988 35.2499 30.928 35.3099C30.868 35.3699 30.478 35.32 30.478 35.29C29.658 35.19 29.308 34.9699 29.148 34.8999C28.988 34.8199 28.578 34.74 28.398 34.7C28.008 34.61 27.738 34.6499 27.658 34.6499C27.428 34.6299 26.998 34.6699 26.758 34.6799C26.518 34.6899 25.868 34.5599 25.628 34.5299C25.378 34.4999 24.908 34.5899 24.678 34.5599C24.448 34.5299 24.248 34.4 23.978 34.35C23.698 34.3 23.308 34.3499 22.938 34.3699C22.568 34.3899 22.008 34.68 21.888 34.74C21.768 34.8 21.308 35.09 21.228 35.14C21.148 35.19 20.698 35.32 20.498 35.26C20.298 35.2 19.888 34.86 19.758 34.82C19.628 34.79 19.238 34.35 19.188 34.3C19.138 34.24 18.918 33.76 18.938 33.76C18.938 33.68 18.978 33.0899 18.968 32.9999C18.958 32.9199 18.768 32.61 18.658 32.46C18.548 32.3 18.388 31.8 18.348 31.69C18.298 31.51 18.368 31.31 18.418 31.24C18.468 31.16 18.288 30.92 18.358 30.79C18.418 30.7 19.278 30.6899 19.498 30.8999C19.578 30.9799 19.558 31.2899 19.578 31.3699C19.598 31.4499 19.658 31.7399 19.588 31.8099C19.448 32.1499 19.848 32.76 19.898 32.76C19.928 32.85 20.128 33.01 20.158 33.01C20.158 32.98 21.188 32.93 21.318 32.92C21.448 32.91 22.378 32.74 22.568 32.69C22.768 32.63 23.698 32.38 23.798 32.38C23.798 32.35 24.558 32.28 24.738 32.3C24.918 32.32 25.198 32.48 25.358 32.46C25.798 32.41 26.178 32.44 26.728 32.44C26.728 32.41 26.708 31.97 26.678 31.58C26.638 31.42 26.608 30.99 26.608 30.64C26.608 30.29 26.738 29.52 26.768 29.52C26.818 29.1 26.798 28.32 26.638 28.27C26.488 28.25 25.828 28.66 25.748 28.66C25.718 28.71 25.208 28.97 25.018 29.01C24.828 29.06 24.648 28.9 24.328 28.96C24.008 29.02 23.878 29.17 23.768 29.21C23.648 29.25 23.268 29.23 23.158 29.27C23.038 29.31 22.668 29.5099 22.528 29.5299C22.388 29.5599 21.888 29.5299 21.718 29.6199C21.748 29.9299 21.768 30.25 21.798 30.57C21.768 30.83 21.768 31.06 21.748 31.19C21.728 31.32 21.948 31.67 21.968 31.73C21.988 31.78 22.058 32.1699 21.938 32.1799C21.708 32.2099 21.168 32.37 21.038 32.26C20.688 32.05 20.638 31.62 20.518 31.2C20.358 30.64 20.598 30.1 20.498 29.63C20.488 29.58 20.458 29.49 20.448 29.47C20.438 29.45 20.378 29.3199 20.348 29.2799C20.318 29.2399 19.938 28.6899 19.768 28.5899C19.598 28.4999 19.508 28.2 19.398 28.13C19.218 28.02 18.988 28.0699 18.848 28.1199C18.708 28.1699 18.478 28.27 18.348 28.33C18.128 28.42 17.878 28.4199 17.838 28.4299C17.798 28.4299 17.628 28.52 17.538 28.48C17.448 28.44 17.458 28.29 17.358 28.24C17.278 28.2 17.288 28.1099 17.248 28.0599C17.188 27.9899 17.118 27.93 17.108 27.89C17.088 27.77 17.178 27.7 17.138 27.55C17.098 27.41 17.098 27.34 17.158 27.2C17.188 27.13 17.278 27.08 17.378 26.99C17.488 26.88 17.578 26.71 17.658 26.67C17.808 26.59 17.968 26.55 18.088 26.49C18.208 26.43 18.258 26.4 18.448 26.33C18.608 26.27 18.778 26.2299 19.078 26.0599C19.158 26.0199 19.558 25.8599 19.738 25.8099C19.918 25.7599 20.308 25.7 20.518 25.67C20.568 25.65 21.108 25.5499 21.108 25.4999C21.108 25.4899 21.738 25.2299 21.938 25.1499ZM20.548 25.42C20.358 25.4 19.768 25.17 19.668 25.13C19.568 25.09 19.238 24.97 19.238 24.94C18.968 24.81 18.778 24.6499 18.648 24.3699C18.528 24.1199 18.418 23.83 18.448 23.48C18.488 23.34 18.618 23.23 18.668 23.13C18.748 22.99 18.708 22.91 18.848 22.69C18.928 22.55 19.078 22.19 19.258 22.07C19.438 21.95 19.628 22.04 19.628 22.02C19.768 22.09 19.858 21.92 20.128 21.79C20.318 21.7 20.668 21.65 20.968 21.66C21.268 21.68 21.598 21.91 21.798 22.07C21.928 22.18 22.148 22.5 22.278 22.67C22.348 22.77 22.398 23.1 22.358 23.26C22.318 23.42 22.388 23.5299 22.358 23.8399C22.338 24.0799 22.158 24.31 22.108 24.42C22.058 24.53 22.048 24.67 22.008 24.76C21.958 24.85 21.838 24.9 21.678 25.02C21.418 25.32 20.738 25.44 20.548 25.42ZM20.738 23.73C20.948 23.73 21.088 23.83 21.288 23.73C21.488 23.63 21.558 23.22 21.438 23.01C21.368 22.86 21.118 22.6699 21.098 22.6199C20.758 22.3699 20.448 22.5299 20.418 22.5899C20.108 22.6499 20.068 22.41 19.898 22.54C19.888 22.54 19.868 22.81 19.798 23.01C19.738 23.15 19.648 23.23 19.678 23.32C19.738 23.55 19.888 23.64 20.108 23.72C20.228 23.76 20.468 23.73 20.738 23.73Z" fill="#464646"/>
<path d="M43.638 21.75C43.708 21.83 43.858 22.38 43.878 22.7C43.898 23.01 43.688 23.45 43.668 23.56C43.658 23.67 43.608 24.7 43.638 25.07C43.768 25.07 44.108 25.07 44.188 25.07C44.348 24.92 45.108 25.05 45.108 25.07C45.188 25.07 46.1479 25.26 46.1479 25.29C46.2279 25.29 46.7579 25.52 46.9879 25.7C47.2079 25.88 47.388 26.13 47.448 26.37C47.508 26.61 47.498 26.94 47.498 27.12C47.498 27.17 47.468 27.22 47.478 27.28C47.488 27.34 47.518 27.38 47.478 27.46C47.438 27.54 47.258 27.61 47.108 27.67C46.968 27.73 46.6179 27.77 46.5479 27.78C46.0679 27.85 45.698 27.79 45.388 27.7C45.088 27.61 44.308 27.18 44.308 27.15C44.128 27 43.908 26.75 43.848 26.67C43.788 26.58 43.688 26.41 43.618 26.41C43.548 26.41 43.4979 26.46 43.4879 26.52C43.4779 26.58 43.588 26.89 43.588 26.96C43.638 26.96 43.478 29.5 43.528 29.77C43.608 30.24 43.718 30.68 43.728 30.84C43.738 31 43.728 31.97 43.778 32C43.778 32.13 43.958 32.9 43.998 32.99C44.028 33.08 44.118 33.71 44.098 33.89C44.078 34.07 43.958 34.31 43.938 34.44C43.928 34.58 43.8279 35.11 43.6479 35.22C43.4679 35.34 42.8779 35.48 42.7679 35.45C42.6579 35.42 42.6879 35.37 42.6479 35.21C42.6179 35.05 42.4279 34.55 42.3279 34.11C42.2979 34.11 42.248 33.66 42.248 33.55C42.248 33.5 42.238 33.26 42.248 33.03C42.248 32.79 42.298 32.57 42.308 32.43C42.318 32.3 42.288 32.04 42.258 31.81C42.228 31.57 42.108 31.03 42.108 31.01C42.078 31.01 41.978 29.54 41.978 29.23C42.008 28.57 42.148 27.25 42.168 27.25C42.168 27.17 42.238 26.94 42.288 26.73C42.338 26.52 42.358 26.24 42.368 26.08C42.378 25.92 42.358 25.27 42.368 25.05C42.378 24.84 42.528 24.19 42.558 24.19C42.558 24.14 42.678 23.87 42.718 23.59C42.738 23.45 42.688 23.13 42.688 22.84C42.688 22.31 42.7579 21.84 42.8279 21.75C42.8979 21.66 43.198 21.65 43.318 21.66C43.448 21.67 43.578 21.67 43.638 21.75Z" fill="#464646"/>
<path d="M59.818 27.84C59.758 27.93 59.598 28.51 59.568 28.7C59.528 28.88 59.618 29.61 59.588 29.81C59.558 30.01 59.488 30.35 59.458 30.49C59.428 30.64 59.418 30.77 59.418 30.88C59.418 30.99 59.408 31.14 59.308 31.13C59.208 31.12 59.168 31.15 58.928 31.05C58.688 30.95 58.708 30.67 58.518 30.49C58.428 30.4 58.298 30.39 58.198 30.33C58.098 30.27 57.898 30.03 57.868 29.64C57.838 29.24 57.968 28.94 58.038 28.78C58.108 28.62 58.398 28.09 58.408 27.57C58.408 27.42 58.458 27.28 58.328 27.19C58.148 27.06 57.878 27.22 57.718 27.39C57.558 27.56 57.488 27.62 57.328 27.71C57.218 27.78 56.428 28.36 56.128 28.46C55.968 28.51 55.688 28.49 55.558 28.55C55.438 28.61 55.098 28.69 54.988 28.66C54.608 28.54 54.288 28.46 53.998 28.43C53.608 28.43 53.338 28.43 53.288 28.44C53.208 28.46 53.288 28.53 53.268 28.62C53.248 28.71 53.278 29.03 53.298 29.1C53.328 29.18 53.258 29.38 53.268 29.49C53.278 29.61 53.308 29.75 53.398 29.87C53.488 29.99 53.268 30.84 53.178 30.97C53.088 31.1 52.738 31.11 52.618 31.09C52.488 31.07 52.348 30.95 52.248 30.89C52.148 30.83 51.908 30.69 51.838 30.58C51.788 30.52 51.358 29.82 51.308 29.54C51.288 29.43 51.108 28.95 51.048 28.75C50.988 28.55 50.838 27.98 50.828 27.81C50.818 27.65 50.848 27.31 50.738 27.21C50.578 27.08 49.918 27.51 49.758 27.65C49.598 27.79 49.408 28.08 49.298 28.19C49.188 28.29 48.898 28.43 48.738 28.41C48.578 28.38 48.198 27.76 48.248 27.29C48.258 27.08 48.258 26.94 48.338 26.81C48.418 26.68 48.668 26.57 48.688 26.52C48.778 26.44 49.308 26.06 49.228 26.12C49.148 26.17 49.618 25.76 49.938 25.41C49.988 25.38 50.248 25 50.308 24.96C50.378 24.92 50.718 24.63 50.768 24.58C50.818 24.53 51.038 24.09 51.098 24C51.158 23.91 51.518 23.39 51.448 23.18C51.418 23.09 51.408 23.03 51.318 22.94C51.228 22.86 51.158 22.69 51.318 22.61C51.478 22.53 52.048 22.86 52.108 23C52.138 23.08 52.418 23.46 52.388 23.65C52.358 23.84 52.258 23.96 52.238 24.12C52.228 24.29 52.168 24.49 52.168 24.54C52.168 24.59 52.058 25.01 52.008 25.1C51.958 25.19 51.938 25.53 52.018 25.66C52.108 25.78 52.278 25.95 52.398 26.39C52.538 26.66 52.968 26.97 53.118 26.93C53.328 26.89 54.148 26.51 54.238 26.45C54.328 26.39 55.398 25.89 55.528 25.8C55.818 25.63 56.168 25.49 56.568 25C56.778 24.81 57.358 24.64 57.528 24.57C57.698 24.5 57.868 24.28 58.038 24.14C58.208 24 58.478 24.03 58.718 23.89C58.738 23.6 58.858 23.45 58.898 23.34C58.938 23.23 58.948 23.12 58.988 23.02C59.028 22.91 59.068 22.25 59.188 22.17C59.308 22.09 59.888 22.29 59.888 22.32C60.198 22.46 60.268 22.7 60.228 23.02C60.208 23.17 60.128 23.34 60.208 23.52C60.258 23.55 60.358 23.78 60.368 23.89C60.388 24 60.238 24.52 60.228 24.66C60.218 24.8 60.148 25.16 60.068 25.25C59.698 25.96 59.958 27.09 59.958 27.43C59.978 27.51 59.868 27.74 59.818 27.84Z" fill="#464646"/>
<path d="M72.598 22.11C72.698 22.07 72.838 22.32 72.978 22.33C73.118 22.34 73.588 22.15 73.838 22.45C73.928 22.56 74.048 23.05 73.908 23.42C73.798 23.58 73.748 23.67 73.718 23.72C73.688 23.77 73.5779 23.8 73.5079 24.01C73.9679 24.04 74.258 24.07 74.618 24.09C74.968 24.11 75.6379 24.19 75.9579 24.3C76.2879 24.4 76.3279 24.64 76.4379 24.75C76.5479 24.86 76.5879 25.15 76.6279 25.35C76.6679 25.55 76.548 25.72 76.468 25.98C76.418 26.01 76.1479 26.45 76.1279 26.45C76.1279 26.48 75.9579 26.77 75.7079 26.72C75.4579 26.67 75.4379 26.7 75.2679 26.74C75.1579 26.77 75.018 26.65 74.998 26.6C74.868 26.57 74.8579 26.49 74.6479 26.45C74.4979 26.42 74.2179 26.16 74.0779 26.05C73.9479 25.95 73.948 26 73.678 25.9C73.618 25.88 73.5279 25.78 73.4479 25.72C73.3679 25.65 73.258 25.62 73.228 25.56C73.148 25.44 73.188 25.11 73.088 25.13C73.038 25.14 73.0279 25.65 73.0779 25.76C73.1279 25.87 73.208 25.81 73.248 25.9C73.288 25.99 73.248 26.22 73.278 26.32C73.318 26.48 73.308 26.85 73.278 26.85C73.278 26.9 73.168 27.09 73.118 27.33C73.068 27.56 72.938 28.01 72.978 28.45C72.938 28.68 72.868 28.7 72.858 28.76C72.848 28.82 72.8479 28.98 72.8179 28.98C72.7279 29.07 72.7479 29.05 72.6979 29.12C72.6479 29.2 72.578 29.26 72.488 29.24C72.388 29.21 72.388 29.08 72.168 29.13C72.168 29.16 72.018 29.29 71.918 29.3C71.818 29.31 71.8279 29.3 71.7679 29.24C71.7079 29.18 71.6079 29.19 71.5179 29.11C71.4279 29.02 71.4879 28.75 71.5079 28.68C71.5179 28.63 71.498 28.56 71.478 28.47C71.468 28.37 71.468 28.24 71.468 28.09C71.478 27.8 71.528 27.55 71.538 27.43C71.528 27.3 71.638 27.08 71.678 26.9C71.728 26.68 71.6479 26.63 71.7079 26.47C71.7679 26.32 71.8179 26.3 71.8879 26.19C71.9479 26.08 71.968 25.92 71.968 25.78C71.998 25.78 72.1479 24.65 72.2079 24.41C72.2579 24.17 72.358 23.58 72.358 23.34C72.358 23.11 72.508 22.93 72.538 22.75C72.548 22.53 72.498 22.15 72.598 22.11Z" fill="#464646"/>
<path d="M88.1279 22.8799C88.0879 22.9399 87.8879 23.13 87.7579 23.21C87.6279 23.28 87.558 23.46 87.538 23.58C87.508 23.99 87.688 24.17 87.728 24.27C87.768 24.37 87.768 24.5399 87.778 24.6499C87.788 24.7599 87.7279 25.05 87.6979 25.14C87.6679 25.24 87.5779 25.4299 87.4579 25.5099C87.3379 25.5799 86.3579 25.88 86.2679 25.92C86.1779 25.96 86.038 26.0099 85.998 26.0099C85.998 26.0399 84.828 26.21 84.648 26.24C84.468 26.3 83.808 26.3999 83.808 26.3699C83.758 26.3699 83.348 26.3099 83.348 26.3099C83.268 26.2799 83.148 26.29 83.048 26.14C82.948 25.99 82.9079 25.9699 82.7579 25.8099C82.7079 25.7799 82.578 25.67 82.498 25.58C82.418 25.49 82.3179 25.2099 82.3179 25.0999C82.2979 25.0999 82.218 24.6599 82.218 24.4299C82.218 24.1899 82.218 23.98 82.248 23.67C82.278 23.67 82.308 23.0799 82.278 22.8999C82.248 22.7199 82.098 22.24 82.248 22.2C82.358 22.14 82.638 22.2999 82.918 22.4399C82.968 22.4699 83.218 22.61 83.528 22.46C83.928 22.24 84.5479 22.2 84.7079 22.14C84.8679 22.08 85.468 21.89 85.678 21.83C85.898 21.77 86.258 21.73 86.418 21.7C86.578 21.68 87.6279 21.7099 87.9379 22.0099C88.1579 22.2299 88.1779 22.3899 88.1879 22.4999C88.1979 22.6699 88.1579 22.8199 88.1279 22.8799ZM85.488 23.95C85.508 23.79 85.638 23.5799 85.738 23.4699C85.838 23.3599 86.508 22.9499 85.778 23.3099C85.268 23.3999 85.328 23.5899 85.108 23.6899C84.888 23.7899 84.6379 23.8099 84.5079 23.8099C84.3779 23.8099 83.5179 23.8699 83.4579 23.9699C83.3979 24.0699 83.4479 24.4499 83.4479 24.5099C83.4479 24.5799 83.488 24.6599 83.648 24.6899C83.808 24.7099 83.978 24.6299 84.168 24.5699C84.358 24.5099 84.428 24.4899 84.558 24.4399C84.688 24.3999 84.7079 24.3899 84.9579 24.3499C85.0679 24.3499 85.148 24.2799 85.238 24.2499C85.308 24.2299 85.468 24.11 85.488 23.95Z" fill="#464646"/>
<path d="M94.858 31.02C95.008 31.05 95.108 31.25 95.138 31.32C95.168 31.38 95.248 31.57 95.268 31.81C95.288 32.06 95.428 32.65 95.448 32.86C95.468 33.07 95.568 33.26 95.598 33.29C95.628 33.31 95.808 33.32 95.968 33.28C96.088 33.25 96.218 33.21 96.278 33.16C96.338 33.11 96.758 32.98 96.968 32.95C96.968 32.92 98.008 32.9 98.238 32.88C98.478 32.86 98.768 32.81 99.028 32.78C99.288 32.75 100.298 32.55 100.378 32.55C100.378 32.52 101.058 32.48 101.148 32.48C101.238 32.49 102.778 32.49 102.778 32.52C102.888 32.52 103.098 32.56 103.198 32.56C103.538 32.56 103.798 32.44 103.928 32.42C104.058 32.4 104.928 32.28 105.158 32.28C105.388 32.28 106.368 32.64 106.398 32.69C106.498 32.72 106.958 32.99 107.038 33.08C107.118 33.17 107.118 33.18 107.218 33.28C107.318 33.38 107.728 33.52 107.518 33.63C107.518 34.08 107.688 34.27 107.688 34.35C107.688 34.43 107.438 34.37 107.438 34.34C107.358 34.34 107.178 34.28 107.148 34.35C107.128 34.39 107.148 34.55 107.088 34.64C107.038 34.7 106.918 34.68 106.878 34.73C106.798 34.84 106.948 35 106.888 35.08C106.828 35.16 106.608 35.22 106.718 35.33C106.868 35.47 106.478 35.49 106.328 35.51C106.328 35.54 105.328 35.39 105.158 35.33C104.988 35.27 104.118 35.16 104.118 35.13C104.068 35.13 103.198 34.9 102.818 34.86C102.438 34.81 101.948 34.81 101.598 34.81C101.248 34.82 100.518 34.87 99.938 34.89C99.648 34.89 99.468 34.93 98.998 34.96C98.528 34.99 98.048 35.09 97.578 35.12C97.578 35.15 96.388 35.16 96.158 35.2C95.928 35.23 95.608 35.34 95.428 35.3C95.238 35.26 95.088 35.26 94.978 35.2C94.868 35.13 94.778 35.01 94.698 34.91C94.668 34.91 94.518 34.53 94.478 34.33C94.438 34.13 94.478 33.86 94.388 33.58C94.298 33.3 94.028 32.65 93.988 32.5C93.948 32.35 93.998 32.41 93.978 32.22C93.958 32.03 93.788 31.96 93.858 31.77C93.898 31.71 93.938 31.74 93.978 31.63C94.018 31.49 94.008 31.3 94.048 31.19C94.088 31.08 94.278 30.97 94.408 30.94C94.548 30.97 94.708 30.99 94.858 31.02ZM94.108 30.89C93.968 30.9 93.478 30.9 93.418 30.89C93.358 30.88 93.278 30.78 93.258 30.69C93.258 30.58 93.228 30.05 93.228 30.05C93.228 30.05 93.218 29.93 93.168 29.86C93.118 29.79 92.968 29.4 92.998 29.28C93.028 29.16 93.028 29 93.168 28.86C93.318 28.72 93.968 28.73 94.058 28.74C94.148 28.75 94.108 28.84 94.138 28.9C94.538 28.97 94.808 28.95 94.928 28.89C95.048 28.83 94.928 28.39 95.128 28.13C95.208 28.02 95.288 27.97 95.298 27.92C95.298 27.88 95.308 27.84 95.308 27.74C95.298 27.43 95.288 26.89 95.248 26.75C95.198 26.57 95.118 26.04 95.048 25.58C94.778 25.56 94.158 25.84 94.048 25.78C93.908 25.72 93.868 25.51 93.748 25.41C93.598 25.36 93.648 25.27 93.578 25.23C93.508 25.19 93.228 25.1 93.238 24.97C93.248 24.84 93.428 24.75 93.558 24.74C93.748 24.71 94.158 24.53 94.158 24.51C94.238 24.48 94.458 24.26 94.578 24.19C94.698 24.11 95.118 23.97 95.118 23.94C95.168 23.94 96.078 23.61 96.148 23.6C96.228 23.58 96.708 23.37 96.898 23.3C97.088 23.24 97.778 23.13 97.958 23.11C98.138 23.09 98.298 23.09 98.538 23.12C98.778 23.15 99.538 23.55 99.708 23.82C99.878 24.09 100.088 24.91 100.058 24.99C100.018 25.07 99.798 25.31 99.758 25.37C99.718 25.43 99.708 25.5 99.688 25.57C99.668 25.64 99.548 25.67 99.498 25.79C99.468 25.85 99.458 26.91 99.448 27.06C99.428 27.21 99.328 27.28 99.278 27.5C99.518 27.5 99.898 27.41 100.048 27.35C100.198 27.29 101.118 27.01 101.278 27C101.438 26.99 101.788 27.03 101.888 27.11C101.988 27.18 102.138 27.21 102.358 27.26C102.348 26.66 102.408 25.94 102.438 25.76C102.448 25.69 102.518 25.46 102.538 25.21C102.568 24.83 102.518 24.36 102.538 24.22C102.578 24 102.698 23.6 102.728 23.46C102.758 23.32 102.848 22.71 102.938 22.58C103.028 22.45 103.168 22.46 103.218 22.38C103.278 22.29 103.518 22.34 103.618 22.32C103.718 22.3 103.798 22.23 104.008 22.21C104.218 22.19 104.408 22.26 104.508 22.38C104.608 22.5 104.598 22.77 104.558 22.91C104.518 23.04 104.558 22.95 104.458 23.09C104.338 23.17 104.388 23.28 104.438 23.43C104.488 23.46 104.518 23.48 104.538 23.58C104.528 23.73 104.438 23.93 104.428 24.04C104.388 24.35 104.408 24.42 104.418 24.52C104.428 24.62 104.408 24.74 104.398 24.79C104.388 24.85 104.268 24.93 104.208 25.03C104.288 25.03 104.448 25 104.528 25C104.738 24.76 105.268 24.83 105.558 24.93C105.658 24.93 106.358 25.19 106.498 25.24C106.638 25.29 106.818 25.56 106.918 25.64C107.018 25.72 107.108 25.79 107.218 25.91C107.318 26.03 107.468 26.29 107.498 26.41C107.538 26.54 107.378 26.76 107.378 26.86C107.378 26.95 107.418 26.98 107.418 27.1C107.418 27.22 107.398 27.14 107.298 27.33C107.198 27.52 107.198 27.61 107.168 27.68C107.138 27.75 106.988 27.91 106.898 28.01C106.808 28.11 106.548 28.13 106.458 28.09C106.368 28.05 106.078 27.82 105.708 27.84C105.338 27.86 104.878 27.51 104.678 27.36C104.398 27.16 104.178 26.4 104.148 26.39C104.108 26.38 104.028 26.2 103.938 26.29C103.868 26.55 103.908 26.58 103.768 26.77C103.658 26.91 103.548 26.94 103.538 27.19C103.528 27.44 103.788 27.62 103.808 27.78C103.838 27.94 103.758 28.05 103.848 28.2C103.938 28.34 103.868 28.51 103.868 28.65C103.868 28.78 103.818 29.3 103.698 29.54C103.618 29.7 103.578 29.75 103.548 30.01C103.508 30.26 103.548 30.34 103.548 30.61C103.518 30.61 103.638 31.77 103.568 31.92C103.498 32.06 103.448 32.3 103.338 32.24C103.218 32.18 103.078 31.87 102.958 31.85C102.838 31.83 102.798 32.19 102.618 32.13C102.438 32.07 102.348 31.82 102.268 31.71C102.188 31.6 102.158 31.54 102.028 31.36C101.888 31.17 101.948 30.61 101.988 30.39C102.028 30.16 102.058 29.83 102.108 29.27C102.028 29.27 101.908 29.3 101.758 29.3C101.618 29.3 100.908 29.33 100.748 29.33C100.588 29.32 99.898 29.39 99.718 29.41C99.548 29.42 98.788 29.58 98.638 29.61C98.478 29.64 98.208 29.74 98.128 29.83C98.098 29.91 97.998 29.95 97.918 29.99C97.838 30.03 96.988 30.31 96.678 30.33C95.608 30.4 94.318 30.9 94.108 30.89ZM96.638 28.41C96.768 28.46 97.158 28.16 97.548 28.2C97.518 28.07 97.428 27.9 97.408 27.82C97.388 27.74 97.478 27.08 97.498 27.02C97.498 26.92 97.558 26.83 97.728 26.63C97.908 26.42 97.968 26.29 98.078 26.03C98.258 25.56 98.148 25.1 98.098 24.63C97.988 24.35 97.688 24.42 97.518 24.41C97.348 24.4 96.918 24.53 96.768 24.6C96.618 24.68 96.278 24.84 96.228 24.92C96.228 25.03 96.288 25.15 96.378 25.16C96.468 25.18 96.578 25.18 96.698 25.26C96.818 25.34 97.108 25.71 97.138 25.79C97.168 25.87 97.188 26.02 97.118 26.07C97.098 26.09 97.028 26.2 97.008 26.31C96.958 26.59 96.948 27.01 96.928 27.01C96.928 27.22 96.828 27.6 96.808 27.6C96.708 27.88 96.508 28.35 96.638 28.41Z" fill="#464646"/>
<path d="M91.498 27.21C91.448 27.23 91.538 27.28 91.498 27.35C91.458 27.43 91.268 27.37 91.168 27.46C91.168 27.51 91.0479 27.55 91.0179 27.55C90.9479 27.5 90.7879 27.52 90.7879 27.5C90.6279 27.5 90.3779 27.45 90.2679 27.45C90.1479 27.44 89.2879 27.47 89.1579 27.48C89.0179 27.49 87.5979 27.65 87.0179 27.75C86.7379 27.79 86.6079 27.81 86.4479 27.9C86.2879 27.99 85.9279 28.31 85.8979 28.89C86.2379 28.86 86.798 28.7 87.228 28.82C87.228 28.85 87.6679 28.88 87.8979 28.8C87.9779 28.78 88.1579 28.74 88.3279 28.74C88.5079 28.74 88.6879 28.82 88.7579 28.84C88.9479 28.89 89.0479 28.95 89.1279 29.01C89.2179 29.06 89.1979 29.16 89.2179 29.31C89.1479 29.51 89.158 29.78 88.998 29.87C88.838 29.96 88.588 30.02 88.488 30.12C88.288 30.3 88.208 30.58 88.368 30.81C88.538 31.04 88.3279 31.07 88.3379 31.13C88.3479 31.19 88.3679 31.22 88.3279 31.29C88.2979 31.34 88.2279 31.32 88.1979 31.39C88.1679 31.46 88.298 31.52 88.298 31.57C88.298 31.62 88.1479 31.64 88.1479 31.66C88.1579 31.73 88.2579 31.71 88.2579 31.73C88.3079 31.73 88.2679 31.77 88.3179 31.83C88.3679 31.89 88.3179 31.98 88.2779 32.01C88.2379 32.04 88.218 32.06 88.168 32.06C88.168 32.11 88.158 32.19 87.928 32.19C87.878 32.19 87.6979 32.18 87.3179 32.24C86.9379 32.3 86.258 32.37 85.738 32.56C85.218 32.75 84.618 33.02 84.498 33.13C84.388 33.24 84.3079 33.31 84.0979 33.38C83.8879 33.45 83.408 33.5 83.308 33.52C83.208 33.53 83.088 33.56 82.998 33.68C82.908 33.79 83.228 34.24 83.428 34.29C83.618 34.35 83.738 34.27 83.868 34.27C83.998 34.27 84.1279 34.23 84.1879 34.21C84.2479 34.19 84.408 34.11 84.488 34.09C84.558 34.06 84.7379 34.02 84.8279 34C84.9179 33.98 85.638 33.8 85.988 33.74C86.338 33.67 87.498 33.46 87.868 33.46C87.868 33.43 88.958 33.47 89.118 33.47C89.278 33.48 89.5679 33.57 89.6579 33.62C89.7579 33.67 90.1079 33.75 90.1879 33.78C90.2579 33.8 90.3979 33.89 90.5179 33.97C90.6379 34.05 90.828 34.25 90.808 34.32C90.788 34.39 90.728 34.41 90.678 34.48C90.628 34.54 90.6479 34.67 90.6379 34.72C90.6379 34.76 90.568 35.09 90.548 35.09C90.398 35.35 90.3579 35.38 90.0679 35.55C90.0679 35.58 89.8279 35.75 89.7079 35.74C89.6279 35.72 89.5079 35.81 89.4079 35.81C89.3179 35.81 89.1279 35.76 89.0379 35.73C88.9479 35.7 88.5879 35.69 88.5879 35.69C88.5879 35.69 87.738 35.52 87.548 35.52C87.358 35.52 86.5079 35.67 86.2079 35.68C85.9079 35.69 85.668 35.71 85.298 35.71C84.868 35.71 83.788 35.9 83.308 35.81C82.968 35.77 82.7579 35.44 82.7579 35.16C82.7179 35.06 82.6579 34.88 82.5179 34.78C82.3879 34.68 82.0379 34.49 82.0379 34.43C81.9379 34.35 81.718 33.99 81.618 33.85C81.518 33.71 81.2879 33.54 81.2579 33.46C81.2079 33.43 80.9979 33.14 81.0079 33.02C80.9779 32.98 80.8879 32.84 80.9379 32.71C81.0179 32.56 81.168 32.56 81.168 32.35C81.148 32.31 81.0279 32.33 81.0879 32.19C81.1079 32.19 81.148 32.05 81.178 32.05C81.258 31.95 81.2979 31.97 81.3279 31.95C81.3579 31.93 81.3979 31.84 81.5979 31.94C82.0079 32.11 82.688 32.02 82.798 31.98C82.908 31.94 83.4779 31.7 83.5879 31.65C83.6979 31.61 84.588 31.24 84.998 31.13C85.398 31.01 86.398 30.8 86.478 30.78C86.558 30.76 86.6779 30.71 86.7079 30.66C86.7579 30.66 86.8479 30.47 86.8879 30.39C86.9279 30.31 87.108 30.22 87.168 30.19C87.228 30.16 87.4179 30.07 87.4379 30.01C87.4579 29.95 87.4279 29.94 87.3979 29.94C86.8679 30.05 86.4779 29.88 86.0879 30C85.6979 30.12 85.5079 30.18 85.4079 30.23C85.1879 30.34 84.4479 30.65 84.3279 30.75C84.2079 30.86 84.098 30.98 83.988 31.02C83.878 31.06 83.5079 31.1 83.3779 31.07C83.2379 31.04 83.088 30.95 82.798 31C82.498 31.05 81.9479 31.25 81.7079 30.98C81.6879 30.94 81.6179 30.91 81.5879 30.79C81.5579 30.68 81.4379 30.64 81.5379 30.46C81.6379 30.27 81.738 30.28 81.748 30.08C81.718 29.96 81.868 29.86 81.918 29.84C81.968 29.82 82.1379 29.83 82.2679 29.82C82.3879 29.81 82.4679 29.76 82.5779 29.71C82.6879 29.66 83.0779 29.63 83.2679 29.61C83.4479 29.59 83.6579 29.57 83.8479 29.5C84.0379 29.42 84.198 29.35 84.358 29.32C84.358 28.8 84.498 28.74 84.668 28.38C84.348 28.43 83.198 28.76 82.988 28.81C82.778 28.85 81.948 29.07 81.868 29.07C81.868 29.1 81.1479 29.15 80.9379 29.2C80.7279 29.26 80.5079 29.44 80.3779 29.49C80.2579 29.54 80.1779 29.46 80.0679 29.51C79.9579 29.56 79.6179 29.59 79.5079 29.56C79.4279 29.54 79.2379 29.53 79.2079 29.52C79.1579 29.5 78.7979 29.36 78.6579 29.36C78.3779 29.3 77.5579 29.33 77.2879 29.42C76.8079 29.56 76.8079 29.51 76.7179 29.31C76.6879 29.23 76.7179 29.11 76.7579 29C76.7979 28.88 76.838 28.72 76.858 28.56C76.888 28.4 76.7579 28.09 76.8879 27.99C77.0179 27.89 77.098 27.91 77.228 27.88C77.348 27.85 77.3579 27.85 77.5779 27.81C77.7979 27.77 78.8679 27.74 79.0179 27.72C79.0679 27.71 80.3279 27.65 80.7179 27.46C80.8079 27.41 80.9979 27.29 81.2679 27.2C81.5279 27.11 82.2879 27.06 82.4479 27.03C82.6079 26.99 83.8979 26.75 84.0979 26.7C84.3079 26.65 85.0879 26.44 85.4079 26.37C85.7179 26.3 86.0979 26.26 86.3479 26.23C86.5979 26.19 89.0179 25.92 89.1879 25.92C89.3579 25.92 89.8279 25.84 89.8779 25.83C89.9279 25.82 90.1479 25.85 90.2879 25.85C90.4279 25.86 90.778 25.94 91.058 26.06C91.118 26.09 91.1779 26.1 91.5179 26.26C91.7079 26.35 91.8279 26.87 91.7579 26.92C91.6879 26.97 91.4679 26.85 91.4579 26.97C91.4879 27.06 91.6579 26.96 91.6879 27.06C91.7179 27.11 91.548 27.19 91.498 27.21Z" fill="#464646"/>
<path d="M35.9579 21.46C35.9879 21.43 36.0979 21.42 36.1479 21.44C36.1979 21.46 36.4879 21.68 36.5479 21.75C36.6079 21.83 37.0079 22.49 37.0279 22.58C37.0479 22.68 37.218 22.78 37.288 22.9C37.358 23.01 37.4379 23.12 37.5279 23.3C37.7579 23.21 38.248 23.08 38.388 23.06C38.538 23.04 39.1179 23 39.1179 22.98C39.2779 22.98 39.558 22.93 39.658 22.91C39.768 22.9 40.1579 22.8 40.4279 22.81C40.6979 22.82 41.148 22.96 41.228 22.98C41.428 23.1 41.2979 23.4 41.3079 23.5C41.3179 23.59 41.5379 23.81 41.4979 23.93C41.4479 23.96 41.3279 24.09 41.2779 24.12C41.3079 24.2 41.4079 24.32 41.2379 24.35C41.0679 24.38 40.878 24.31 40.878 24.29C40.828 24.29 40.8279 24.26 40.5279 24.18C40.2379 24.1 39.748 23.99 39.598 24.08C39.438 24.17 39.228 24.39 39.098 24.47C38.968 24.55 38.568 24.65 38.318 24.76C38.068 24.88 37.528 25.07 37.538 25.44C37.678 25.43 38.098 25.59 38.318 25.75C38.488 25.93 38.5279 26.24 38.5279 26.33C38.5279 26.43 38.5279 26.9 38.5279 26.96C38.5279 27.02 38.468 27.8 38.318 27.98C38.168 28.16 37.6279 28.85 37.2779 29.14C37.2379 29.17 37.138 29.22 37.098 29.28C37.048 29.35 36.988 29.42 36.908 29.47C36.748 29.55 36.5379 29.56 36.4879 29.67C36.4379 29.78 36.608 29.86 36.638 29.9C36.668 29.93 36.8879 30.09 36.9279 30.12C36.9679 30.15 37.118 30.34 37.168 30.37C37.218 30.4 37.328 30.47 37.388 30.48C37.458 30.5 38.398 30.45 38.478 30.44C38.558 30.42 38.9279 30.37 39.0179 30.34C39.1079 30.31 39.9479 30.19 40.0179 30.19C40.0179 30.17 40.5279 30.19 40.8679 30.29C41.0379 30.34 41.098 30.53 41.128 30.57C41.158 30.61 41.1979 30.75 41.2079 30.8C41.2179 30.85 41.1979 31 41.1779 31.07C41.1679 31.13 41.0479 31.19 41.0579 31.27C41.0779 31.34 41.0579 31.41 41.0579 31.42C41.0579 31.44 40.948 31.5 40.888 31.51C40.828 31.52 40.7179 31.53 40.6479 31.54C40.5779 31.56 40.2679 31.57 40.2179 31.58C40.1679 31.59 39.548 31.66 39.608 31.64C39.668 31.63 38.348 31.76 38.258 31.79C38.158 31.83 37.728 31.9 37.658 31.93C37.588 31.95 37.3379 31.99 37.2679 32.01C37.1979 32.03 36.3379 32.12 36.2179 32.16C36.0979 32.2 35.448 32.45 35.348 32.5C35.248 32.55 35.1479 32.62 35.0779 32.67C34.9979 32.72 34.9479 32.79 34.7479 32.89C34.5379 32.96 34.0579 33.02 33.9279 32.99C33.7979 32.96 33.4379 32.82 33.3079 32.66C33.1779 32.5 33.1679 31.85 33.1879 31.85C33.2179 31.73 33.2279 31.66 33.2679 31.62C33.3079 31.58 33.358 31.54 33.388 31.52C33.418 31.5 33.4579 31.47 33.4879 31.42C33.7279 31.28 33.738 31.46 33.858 31.48C33.968 31.5 34.188 31.5 34.258 31.43C34.328 31.35 34.618 31.14 34.728 31.09C35.028 30.94 35.2879 30.78 35.5179 30.58C35.4379 30.36 35.278 30.1 35.348 29.76C35.358 29.74 35.4279 29.65 35.3979 29.51C35.3479 29.34 35.348 29.32 35.228 29.15C35.108 28.98 34.8579 28.71 34.8379 28.58C34.7979 28.5 34.7879 28.3 34.7679 28.15C34.7579 28 34.718 27.8 34.728 27.71C34.728 27.63 34.828 27.23 34.848 27.08C34.858 26.93 34.8679 26.94 34.8979 26.77C34.9779 26.42 35.068 26.27 35.258 26.14C34.918 26.28 34.4679 26.28 34.4379 26.28C34.3979 26.28 33.5879 26.3 33.4379 26.29C33.2879 26.29 32.5579 26.45 32.4879 26.47C32.4179 26.49 32.1579 26.43 32.1179 26.41C32.0779 26.4 31.938 26.4 31.848 26.29C31.758 26.17 31.698 25.8 31.728 25.67C31.758 25.54 32.098 25.3 32.068 25.08C32.028 24.99 31.8679 24.95 31.9279 24.86C31.9879 24.77 32.198 24.71 32.348 24.66C32.398 24.64 32.8979 24.49 33.0579 24.48C33.1979 24.47 32.5579 24.75 32.7679 24.81C32.9079 24.84 33.048 24.66 33.228 24.62C33.398 24.58 33.8679 24.4 33.9679 24.38C34.0679 24.36 34.288 24.27 34.388 24.24C34.488 24.21 34.6679 24.18 34.8379 24.13C35.0079 24.08 35.048 23.96 35.158 23.96C35.608 23.74 35.228 23.76 35.198 23.68C35.168 23.6 35.1679 23.6 35.4579 23.55C35.7079 23.51 36.0079 23.55 36.1179 23.58C36.2179 23.54 35.9979 23.3 35.9879 23.19C35.9779 23.09 35.978 22.88 35.888 22.76C35.788 22.64 35.678 22.49 35.598 22.34C35.508 22.22 35.5079 21.95 35.5479 21.85C35.5879 21.77 35.578 21.72 35.668 21.67C35.788 21.6 35.888 21.62 35.918 21.58C35.928 21.55 35.9279 21.49 35.9579 21.46ZM36.4579 26.61C36.3079 26.82 36.0179 26.87 35.8279 27.28C35.8179 27.31 35.798 27.36 35.788 27.38C35.778 27.4 35.7779 27.46 35.7979 27.51C35.8079 27.55 35.9279 27.6 36.0479 27.65C36.1279 27.69 36.258 27.66 36.358 27.71C36.448 27.75 36.5679 27.82 36.6479 27.96C36.7279 28.1 36.9179 28.07 37.0279 28.06C37.1279 28.05 37.1979 27.95 37.2679 27.88C37.3279 27.81 37.4479 27.71 37.4579 27.56C37.4879 27.33 37.6279 26.96 37.5279 26.79C37.4379 26.62 37.438 26.25 37.378 26.14C37.378 26.11 37.338 26.05 37.258 26.01C37.178 25.96 37.0979 25.99 37.0179 26.01C36.8379 26.11 36.6179 26.38 36.4579 26.61Z" fill="#464646"/>
<path d="M68.608 22.5399C68.758 22.5599 68.8179 22.5499 68.9579 22.6099C69.0879 22.6599 69.138 23.08 69.228 23.27C69.288 23.39 69.4579 23.5399 69.2579 23.7199C69.1179 23.8599 69.038 24.0699 68.998 24.1899C68.968 24.3099 68.938 24.8599 68.918 25.0799C68.888 25.2999 68.768 25.9699 68.848 26.0799C68.928 26.1899 69.008 26.1499 69.118 26.3099C69.228 26.4699 69.308 26.5999 69.348 26.7599C69.398 26.9299 69.488 27.1799 69.468 27.2899C69.438 27.3999 69.4079 27.35 69.3779 27.46C69.3479 27.57 69.3679 27.7399 69.3279 27.8799C69.2779 28.0199 69.0779 28.3899 68.9479 28.4499C68.8279 28.5099 68.6379 28.6399 68.4979 28.6899C68.1379 28.8199 67.6079 29.2099 67.5179 29.2799C67.4279 29.3499 67.068 29.4499 66.938 29.4799C66.808 29.5099 66.038 29.7299 65.948 29.7499C65.848 29.7699 65.0879 30.04 64.8279 30.05C64.5679 30.06 64.268 29.96 64.198 29.8C64.138 29.66 64.2179 29.4999 64.2479 29.3499C64.2779 29.1299 64.258 28.9499 64.258 28.9799C64.238 29.1099 64.308 28.63 64.198 28.49C64.108 28.41 63.8979 28.3799 63.7779 28.2799C63.6679 28.1899 63.458 27.8799 63.378 27.7299C63.298 27.5799 63.1679 27.3299 63.0579 27.0899C62.9479 26.8499 62.748 25.66 62.718 25.49C62.688 25.32 62.508 24.5099 62.508 24.2799C62.518 24.0599 62.5079 23.4899 62.4579 23.4099C62.4079 23.3299 62.3779 23.3699 62.2379 23.2799C62.1579 23.1799 62.098 23.0699 62.158 22.9299C62.198 22.8499 62.198 22.7099 62.258 22.6999C62.378 22.6699 62.9079 23.0699 62.9579 23.1299C63.0079 23.1899 63.118 23.3699 63.138 23.4799C63.188 23.5099 63.4979 24.3499 63.5279 24.4299C63.5679 24.5099 63.6579 24.9699 63.7779 24.9699C63.9779 24.9599 64.138 24.6499 64.538 24.5899C64.698 24.5499 65.3579 24.4899 65.5279 24.4699C65.6879 24.4399 66.028 24.29 66.158 24.27C66.158 24.24 66.5779 24.2499 66.8079 24.1899C67.0479 24.1299 67.128 23.9199 67.378 23.8499C67.518 23.8099 67.628 23.9199 67.728 23.8899C67.788 23.8699 67.7879 23.7899 67.8279 23.7199C67.8579 23.6799 67.9279 23.6199 67.9579 23.5599C68.0279 23.4099 67.9479 23.17 67.9879 23.05C68.0179 22.93 68.0979 22.9199 68.1179 22.8299C68.1379 22.7499 68.128 22.67 68.228 22.55C68.278 22.48 68.468 22.5299 68.608 22.5399ZM64.448 26.3799C64.288 26.4099 64.4979 26.9399 64.5879 27.0599C64.6779 27.1799 64.6779 27.7299 64.7779 27.9799C64.8179 28.0999 64.848 28.2799 64.938 28.2899C65.028 28.3099 65.058 28.2599 65.218 28.2199C65.368 28.1899 65.778 28.0999 65.908 28.0099C66.038 27.9199 66.048 27.85 66.218 27.77C66.378 27.69 66.5679 27.6199 66.7379 27.5699C66.9379 27.4999 66.9879 27.1999 66.9979 27.0999C67.0079 26.9999 67.0579 26.9499 67.0579 26.7899C67.0179 26.5599 67.138 26.3899 67.098 26.3699C67.058 26.3499 67.008 26.3199 66.968 26.3299C66.928 26.3399 66.9379 26.3499 66.7679 26.3799C66.6579 26.3999 66.498 26.4099 66.378 26.4399C66.208 26.4899 66.1379 26.5599 65.9979 26.5999C65.8979 26.6299 65.7979 26.6599 65.7079 26.6599C65.5979 26.6599 65.238 26.57 65.128 26.52C65.008 26.5 64.598 26.3499 64.448 26.3799Z" fill="#464646"/>
<path d="M72.498 34.64C72.438 34.7 72.408 34.74 72.348 34.8C72.268 34.88 72.178 34.85 72.098 34.89C72.018 34.94 71.9979 34.99 71.9479 35.02C71.8979 35.06 71.8679 35.08 71.8179 35.13C71.7679 35.18 71.6779 35.27 71.5779 35.3C71.5079 35.33 71.248 35.34 71.178 35.34C71.178 35.34 70.978 35.35 70.978 35.33C70.838 35.31 70.7379 35.15 70.7079 35.13C70.6879 35.11 70.628 35.03 70.618 34.98C70.608 34.96 70.578 34.89 70.528 34.82C70.488 34.76 70.4179 34.73 70.4479 34.64C70.4879 34.55 70.6079 34.43 70.6379 34.39C70.6679 34.35 70.7179 34.11 70.7579 34C70.7879 33.89 70.8379 33.77 71.0179 33.46C71.1979 33.15 71.6379 32.95 71.7679 32.86C71.8979 32.77 72.0979 32.48 72.1279 32.38C72.2279 32.19 72.2979 31.98 72.3779 31.82C72.4079 31.76 72.5679 31.54 72.5679 31.41C72.5679 31.28 72.518 31.26 72.408 31.18C72.268 31.08 71.558 31.27 71.238 31.27C70.928 31.34 69.948 31.21 69.498 31.3C69.288 31.35 69.1179 31.42 68.9379 31.52C68.7579 31.66 68.4179 31.83 68.2679 31.89C68.0479 32.07 67.018 31.97 66.808 31.99C66.588 32.01 66.198 32.08 66.108 32.13C66.018 32.18 65.758 32.34 65.668 32.38C65.578 32.43 65.448 32.58 65.368 32.6C65.368 32.63 64.948 32.61 64.878 32.53C64.798 32.45 64.858 32.39 64.878 32.3C64.898 32.21 64.898 32.17 64.838 32.14C64.838 32.09 64.768 32.05 64.778 31.98C64.788 31.91 64.838 31.9 64.898 31.75C64.948 31.6 65.128 31.59 65.148 31.46C65.178 31.33 65.328 31.22 65.438 31.12C65.488 30.99 65.6479 30.95 65.9579 31.01C66.1479 31.02 66.438 30.86 66.508 30.83C66.508 30.81 67.078 30.72 67.628 30.58C67.958 30.5 68.448 30.47 68.568 30.46C68.908 30.42 69.3579 30.14 70.0679 29.98C70.5079 29.89 71.018 29.94 71.408 29.94C72.288 29.98 73.528 29.98 74.038 30.49C74.128 30.58 74.228 30.72 74.218 30.83C74.208 30.95 74.148 31.04 74.048 31.24C73.918 31.49 73.738 31.79 73.718 31.83C73.678 31.9 73.5479 32.29 73.5179 32.4C73.4879 32.51 73.368 33.01 73.298 33.29C73.228 33.58 72.938 33.75 72.868 33.91C72.798 34.06 72.7879 34.4 72.7079 34.49C72.6679 34.55 72.578 34.55 72.498 34.64Z" fill="#464646"/>
<path d="M55.348 30.42C55.378 30.47 55.348 30.54 55.418 30.57C55.488 30.6 55.7379 30.51 55.9579 30.55C56.1779 30.59 56.758 30.73 56.818 30.76C56.878 30.8 57.0879 30.91 57.1479 30.96C57.2079 31.01 57.558 31.25 57.688 31.37C57.808 31.49 58.018 31.76 58.098 32.11C58.178 32.46 58.108 33.1 58.068 33.38C58.028 33.65 57.618 34.06 57.558 34.2C57.498 34.34 57.508 34.51 57.348 34.59C57.258 34.64 56.908 34.63 56.638 34.64C56.478 34.64 56.388 34.69 56.288 34.67C56.138 34.64 55.978 34.66 55.788 34.6C55.628 34.55 55.438 34.41 55.348 34.36C55.158 34.24 54.9179 34 54.7979 33.89C54.6779 33.78 54.508 33.5 54.408 33.34C54.308 33.18 54.058 32.73 54.058 32.41C54.058 32.26 54.208 31.78 54.288 31.64C54.408 31.46 54.4979 31.35 54.5779 31.28C54.6279 31.23 54.728 31.06 54.788 31.03C54.788 30.9 54.778 30.7 54.868 30.66C54.958 30.62 55.138 30.44 55.168 30.36C55.248 30.35 55.328 30.37 55.348 30.42ZM55.3979 31.49C55.3479 31.58 55.368 31.71 55.308 31.79C55.248 31.87 55.188 32.02 55.088 32.15C54.988 32.28 54.988 32.41 55.038 32.55C55.088 32.69 55.2479 32.88 55.4279 32.97C55.5979 33.06 55.628 33.04 55.838 33.08C56.048 33.11 56.108 33.05 56.318 33.05C56.318 33.02 56.508 33.03 56.538 32.87C56.578 32.71 56.548 32.39 56.338 32.27C56.198 32.22 56.048 32.1 55.918 31.98C55.748 31.82 55.618 31.65 55.598 31.59C55.568 31.53 55.4479 31.4 55.3979 31.49Z" fill="#464646"/>
<path d="M44.9402 3.78174L45.2186 3.78662L45.3211 4.34814C45.3309 4.38395 45.3406 4.41325 45.3504 4.43604C45.3602 4.45719 45.3699 4.47428 45.3797 4.4873C45.3911 4.50033 45.4017 4.5109 45.4114 4.51904C45.4212 4.52555 45.4302 4.53125 45.4383 4.53613C45.4741 4.55404 45.5237 4.57438 45.5872 4.59717C45.6507 4.61833 45.7215 4.63867 45.7996 4.6582C45.8777 4.67773 45.9591 4.69401 46.0438 4.70703C46.1284 4.72005 46.2114 4.72656 46.2928 4.72656C46.3628 4.72656 46.4262 4.71842 46.4832 4.70215C46.5402 4.68587 46.5915 4.66553 46.637 4.64111C46.6826 4.6167 46.7225 4.58984 46.7567 4.56055C46.7925 4.52962 46.8242 4.50033 46.8519 4.47266C46.86 4.45801 46.869 4.43929 46.8787 4.4165C46.8885 4.39209 46.8974 4.36605 46.9056 4.33838C46.9153 4.30908 46.9235 4.27816 46.93 4.24561C46.9365 4.21305 46.9398 4.18132 46.9398 4.15039C46.9398 4.02344 46.9105 3.91764 46.8519 3.83301C46.7933 3.74674 46.7151 3.6735 46.6175 3.61328C46.5215 3.55306 46.4116 3.50098 46.2879 3.45703C46.1658 3.41146 46.0405 3.36589 45.9119 3.32031C45.7833 3.27474 45.6572 3.22428 45.5335 3.16895C45.4114 3.11198 45.3016 3.04199 45.2039 2.95898C45.1079 2.87598 45.0306 2.77588 44.972 2.65869C44.9134 2.53988 44.8841 2.39421 44.8841 2.22168C44.8841 2.10124 44.9036 1.993 44.9427 1.89697C44.9818 1.80094 45.0355 1.71549 45.1038 1.64062C45.1722 1.56576 45.2519 1.50146 45.3431 1.44775C45.4359 1.39404 45.5351 1.3501 45.6409 1.31592C45.7484 1.28174 45.8598 1.25651 45.9754 1.24023C46.091 1.22396 46.2065 1.21582 46.3221 1.21582C46.4165 1.21582 46.5003 1.21989 46.5735 1.22803C46.6468 1.23454 46.7176 1.2443 46.7859 1.25732C46.8543 1.26872 46.9251 1.28174 46.9984 1.29639C47.0716 1.31104 47.1546 1.32487 47.2474 1.33789L47.1766 2.30469H46.9153L46.8177 1.89697C46.8095 1.85954 46.7998 1.82861 46.7884 1.8042C46.7786 1.77816 46.7664 1.75618 46.7518 1.73828C46.7371 1.71875 46.7208 1.70329 46.7029 1.69189C46.685 1.67887 46.6647 1.66667 46.6419 1.65527C46.5735 1.6276 46.4914 1.60319 46.3953 1.58203C46.3009 1.56087 46.1951 1.55029 46.0779 1.55029C45.9803 1.55029 45.8908 1.5568 45.8094 1.56982C45.7296 1.58122 45.6613 1.60319 45.6043 1.63574C45.5864 1.65853 45.5644 1.68132 45.5384 1.7041C45.514 1.72689 45.4904 1.75456 45.4676 1.78711C45.4464 1.81966 45.4277 1.85954 45.4114 1.90674C45.3968 1.95231 45.3895 2.00928 45.3895 2.07764C45.3895 2.2111 45.4188 2.32259 45.4774 2.41211C45.5359 2.5 45.6133 2.57487 45.7093 2.63672C45.8053 2.69694 45.9144 2.74821 46.0364 2.79053C46.1585 2.83285 46.283 2.87516 46.41 2.91748C46.5386 2.9598 46.6639 3.007 46.7859 3.05908C46.908 3.10954 47.0171 3.17301 47.1131 3.24951C47.2091 3.32601 47.2864 3.42041 47.345 3.53271C47.4036 3.64502 47.4329 3.78337 47.4329 3.94775C47.4329 4.15609 47.3914 4.33187 47.3084 4.4751C47.2254 4.6167 47.1131 4.73063 46.9715 4.81689C46.8299 4.90316 46.6655 4.96501 46.4783 5.00244C46.2928 5.03988 46.0967 5.05859 45.89 5.05859C45.8069 5.05859 45.7191 5.05046 45.6263 5.03418C45.5351 5.0179 45.4432 4.99593 45.3504 4.96826C45.2593 4.94059 45.1697 4.90885 45.0818 4.87305C44.994 4.83561 44.9109 4.79655 44.8328 4.75586L44.9402 3.78174ZM48.2337 1.60645L47.8651 1.46973V1.26465H48.8196C48.8082 1.30697 48.7985 1.35173 48.7903 1.39893C48.7838 1.4445 48.7781 1.49821 48.7733 1.56006C48.7684 1.62028 48.7651 1.69108 48.7635 1.77246C48.7619 1.85384 48.7602 1.9515 48.7586 2.06543C48.7586 2.17936 48.7586 2.31201 48.7586 2.46338C48.7586 2.61475 48.7586 2.79053 48.7586 2.99072V3.6084C48.7586 3.78092 48.7684 3.92904 48.7879 4.05273C48.8091 4.1748 48.8457 4.27572 48.8978 4.35547C48.9498 4.43359 49.0215 4.49137 49.1126 4.52881C49.2054 4.56462 49.3242 4.58252 49.4691 4.58252C49.5781 4.58252 49.6815 4.57438 49.7791 4.55811C49.8768 4.5402 49.9695 4.51416 50.0574 4.47998C50.147 4.44417 50.2332 4.40023 50.3162 4.34814C50.4009 4.29443 50.4839 4.23177 50.5652 4.16016V1.60645L50.2894 1.46973V1.26465H51.4661V1.46973C51.4238 1.48763 51.3799 1.50228 51.3343 1.51367C51.2903 1.52507 51.2505 1.54378 51.2147 1.56982C51.1789 1.59587 51.1496 1.63493 51.1268 1.68701C51.104 1.73747 51.0926 1.81152 51.0926 1.90918V3.16406C51.0942 3.32357 51.0958 3.46273 51.0975 3.58154C51.0991 3.70036 51.0999 3.80534 51.0999 3.89648C51.1015 3.986 51.1032 4.06576 51.1048 4.13574C51.1081 4.2041 51.1105 4.26758 51.1121 4.32617C51.1154 4.38314 51.1194 4.43848 51.1243 4.49219C51.1292 4.5459 51.1349 4.60368 51.1414 4.66553L51.4979 4.7998V5H50.619C50.6157 4.93815 50.6133 4.87549 50.6116 4.81201C50.6084 4.7583 50.6059 4.70133 50.6043 4.64111C50.6043 4.57926 50.6035 4.5223 50.6019 4.47021C50.5726 4.50277 50.5335 4.5402 50.4847 4.58252C50.4375 4.62321 50.3821 4.66471 50.3187 4.70703C50.2568 4.74935 50.1876 4.79167 50.1111 4.83398C50.0363 4.87467 49.9565 4.9113 49.8719 4.94385C49.7889 4.97477 49.7026 5 49.6131 5.01953C49.5236 5.03906 49.4341 5.04883 49.3445 5.04883C49.2648 5.04883 49.1818 5.04557 49.0955 5.03906C49.0109 5.03255 48.9271 5.01709 48.8441 4.99268C48.7627 4.96826 48.6845 4.93164 48.6097 4.88281C48.5364 4.83398 48.4713 4.76807 48.4144 4.68506C48.359 4.60042 48.3151 4.49626 48.2825 4.37256C48.25 4.24723 48.2337 4.09587 48.2337 3.91846V1.60645ZM52.1448 1.59912L51.7444 1.46484V1.26465H53.1483V1.46484C53.0799 1.48438 53.0221 1.50228 52.9749 1.51855C52.9293 1.5332 52.8911 1.55192 52.8602 1.57471C52.8292 1.59749 52.8048 1.62516 52.7869 1.65771C52.7707 1.69027 52.7568 1.7334 52.7454 1.78711L53.6317 4.46533L54.3543 2.17773L54.2737 1.9458L54.137 1.59912L53.7635 1.46484V1.26465H55.2576V1.46484C55.1746 1.48763 55.1006 1.50716 55.0355 1.52344C54.972 1.53971 54.9191 1.55924 54.8768 1.58203C54.8345 1.60319 54.8019 1.63005 54.7791 1.6626C54.7563 1.69515 54.7449 1.7391 54.7449 1.79443L55.6092 4.43115L56.4442 1.66016V1.59912L56.0218 1.46484V1.26465H57.3035V1.46484C57.2254 1.486 57.1497 1.50391 57.0765 1.51855C57.0032 1.53158 56.9357 1.54948 56.8738 1.57227L55.7899 4.95117L55.3528 5.08301L54.5252 2.67578L53.7928 4.95117L53.3753 5.08301L52.1448 1.59912ZM57.4183 3.21289C57.4183 3.0485 57.4362 2.88493 57.472 2.72217C57.5078 2.55941 57.5607 2.40397 57.6307 2.25586C57.7023 2.10775 57.7902 1.97021 57.8943 1.84326C58.0001 1.71631 58.1222 1.60645 58.2606 1.51367C58.4005 1.4209 58.5568 1.34847 58.7293 1.29639C58.9035 1.24268 59.0931 1.21582 59.2982 1.21582C59.5 1.21582 59.6847 1.23942 59.8524 1.28662C60.0216 1.33382 60.1722 1.39974 60.304 1.48438C60.4375 1.56901 60.5539 1.66911 60.6531 1.78467C60.7524 1.90023 60.8346 2.02637 60.8997 2.16309C60.9665 2.2998 61.0161 2.44385 61.0486 2.59521C61.0812 2.74658 61.0975 2.90039 61.0975 3.05664C61.0975 3.22103 61.0796 3.3846 61.0438 3.54736C61.008 3.71012 60.9542 3.86556 60.8826 4.01367C60.8126 4.16016 60.7248 4.29688 60.619 4.42383C60.5132 4.55078 60.3903 4.66064 60.2503 4.75342C60.112 4.84456 59.9557 4.91699 59.7816 4.9707C59.609 5.02279 59.4202 5.04883 59.2151 5.04883C59.0133 5.04883 58.8286 5.02523 58.6609 4.97803C58.4933 4.93083 58.3428 4.86572 58.2093 4.78271C58.0758 4.69808 57.9595 4.59798 57.8602 4.48242C57.7609 4.36686 57.6787 4.24154 57.6136 4.10645C57.5485 3.96973 57.4997 3.82568 57.4671 3.67432C57.4345 3.52295 57.4183 3.36914 57.4183 3.21289ZM57.9627 2.95898C57.9627 3.10221 57.9749 3.24463 57.9993 3.38623C58.0254 3.52783 58.0636 3.66292 58.1141 3.7915C58.1662 3.92008 58.2313 4.03971 58.3094 4.15039C58.3891 4.26107 58.4827 4.3571 58.5901 4.43848C58.6976 4.51823 58.8205 4.58089 58.9588 4.62646C59.0971 4.67204 59.251 4.69482 59.4202 4.69482C59.5618 4.69482 59.6953 4.67611 59.8206 4.63867C59.9476 4.60124 60.0623 4.55241 60.1649 4.49219C60.23 4.40267 60.2869 4.30908 60.3358 4.21143C60.3846 4.11214 60.4245 4.01204 60.4554 3.91113C60.4879 3.80859 60.5123 3.70687 60.5286 3.60596C60.5449 3.50505 60.553 3.40658 60.553 3.31055C60.553 3.16732 60.54 3.0249 60.514 2.8833C60.4896 2.7417 60.4513 2.60661 60.3992 2.47803C60.3488 2.34782 60.2837 2.22819 60.2039 2.11914C60.1258 2.00846 60.0322 1.91243 59.9232 1.83105C59.8157 1.74967 59.6929 1.6862 59.5545 1.64062C59.4162 1.59505 59.2623 1.57227 59.0931 1.57227C58.9515 1.57227 58.8172 1.59261 58.6902 1.6333C58.5649 1.67236 58.451 1.72445 58.3484 1.78955C58.2833 1.87907 58.2264 1.97266 58.1776 2.07031C58.1287 2.16634 58.088 2.26481 58.0555 2.36572C58.0246 2.46501 58.001 2.5651 57.9847 2.66602C57.97 2.76693 57.9627 2.86458 57.9627 2.95898ZM61.5369 4.7998C61.6216 4.77702 61.6907 4.75586 61.7444 4.73633C61.7982 4.7168 61.8413 4.68994 61.8738 4.65576C61.9064 4.62158 61.9308 4.57601 61.9471 4.51904C61.9634 4.46208 61.9772 4.38477 61.9886 4.28711L62.0057 4.13818V1.78955C61.9975 1.73584 61.9845 1.69271 61.9666 1.66016C61.9487 1.62598 61.9235 1.59749 61.8909 1.57471C61.8584 1.55192 61.8177 1.5332 61.7689 1.51855C61.72 1.50228 61.6614 1.48438 61.5931 1.46484V1.26465H62.3719L64.618 4.104L64.6009 2.88574L64.5789 1.60645L64.159 1.46973V1.26465H65.3358V1.46973C65.2495 1.49251 65.1787 1.51367 65.1234 1.5332C65.0696 1.55273 65.0273 1.57959 64.9964 1.61377C64.9655 1.64795 64.9435 1.69352 64.9305 1.75049C64.9191 1.80745 64.9134 1.88477 64.9134 1.98242V5H64.6302L64.6277 4.96826L64.6204 5L62.3475 2.07031L62.3817 4.6582L62.3865 4.66553L62.8577 4.7998V5H61.5369V4.7998ZM44.6937 10.7998C44.7783 10.777 44.8483 10.7559 44.9036 10.7363C44.959 10.7168 45.0021 10.6899 45.033 10.6558C45.0639 10.6216 45.0851 10.576 45.0965 10.519C45.1095 10.4621 45.116 10.3848 45.116 10.2871V7.60156L44.6937 7.46484V7.26465H46.0926V7.46484C46.008 7.48763 45.9363 7.50879 45.8777 7.52832C45.8208 7.54785 45.7744 7.57471 45.7386 7.60889C45.7044 7.64307 45.68 7.68864 45.6653 7.74561C45.6507 7.80257 45.6434 7.87988 45.6434 7.97754V8.92725H47.4109V7.60156L46.9886 7.46484V7.26465H48.39V7.46484C48.3037 7.48763 48.2321 7.50879 48.1751 7.52832C48.1181 7.54785 48.0718 7.57471 48.0359 7.60889C48.0001 7.64307 47.9749 7.68864 47.9603 7.74561C47.9456 7.80257 47.9383 7.87988 47.9383 7.97754V10.6655L48.4193 10.7998V11H46.9886V10.7998C47.0732 10.777 47.1432 10.7559 47.1985 10.7363C47.2539 10.7168 47.297 10.6899 47.3279 10.6558C47.3589 10.6216 47.38 10.576 47.3914 10.519C47.4044 10.4621 47.4109 10.3848 47.4109 10.2871V9.22021H45.6434V10.6655L46.1219 10.7998V11H44.6937V10.7998ZM48.9857 7.59912L48.5853 7.46484V7.26465H49.9891V7.46484C49.9207 7.48438 49.8629 7.50228 49.8157 7.51855C49.7702 7.5332 49.7319 7.55192 49.701 7.57471C49.6701 7.59749 49.6457 7.62516 49.6277 7.65771C49.6115 7.69027 49.5976 7.7334 49.5862 7.78711L50.4725 10.4653L51.1951 8.17773L51.1146 7.9458L50.9778 7.59912L50.6043 7.46484V7.26465H52.0984V7.46484C52.0154 7.48763 51.9414 7.50716 51.8763 7.52344C51.8128 7.53971 51.7599 7.55924 51.7176 7.58203C51.6753 7.60319 51.6427 7.63005 51.6199 7.6626C51.5971 7.69515 51.5858 7.7391 51.5858 7.79443L52.45 10.4312L53.285 7.66016V7.59912L52.8626 7.46484V7.26465H54.1443V7.46484C54.0662 7.486 53.9905 7.50391 53.9173 7.51855C53.8441 7.53158 53.7765 7.54948 53.7147 7.57227L52.6307 10.9512L52.1937 11.083L51.366 8.67578L50.6336 10.9512L50.2161 11.083L48.9857 7.59912ZM53.9124 10.7998C53.9954 10.777 54.0695 10.7567 54.1346 10.7388C54.2013 10.7209 54.2583 10.6956 54.3055 10.6631L55.553 7.52344L55.3406 7.44531L55.3382 7.32324C55.4082 7.30697 55.4668 7.29313 55.514 7.28174C55.5628 7.27035 55.61 7.25895 55.6556 7.24756C55.7012 7.23454 55.7508 7.2207 55.8045 7.20605C55.8582 7.19141 55.9266 7.17188 56.0096 7.14746C56.0307 7.20443 56.0503 7.25488 56.0682 7.29883C56.0877 7.34277 56.1089 7.39079 56.1317 7.44287C56.1544 7.49333 56.1813 7.55355 56.2122 7.62354C56.2431 7.69189 56.2814 7.77897 56.327 7.88477C56.3725 7.99056 56.4271 8.11995 56.4905 8.27295C56.5556 8.42594 56.6338 8.61312 56.7249 8.83447C56.8161 9.05583 56.9219 9.31624 57.0423 9.61572C57.1644 9.91357 57.3052 10.2603 57.4647 10.6558L57.4378 10.6655L57.8431 10.7998V11H56.388V10.7998C56.445 10.7852 56.497 10.7713 56.5443 10.7583C56.5915 10.7453 56.633 10.7306 56.6688 10.7144C56.7062 10.6981 56.7387 10.6794 56.7664 10.6582C56.7941 10.6354 56.8169 10.6077 56.8348 10.5752C56.8071 10.502 56.768 10.4002 56.7176 10.27C56.6671 10.1382 56.6004 9.96647 56.5174 9.75488H55.0526L54.7156 10.6851L55.2112 10.7998V11H53.9124V10.7998ZM56.4026 9.45947L55.7557 7.8335C55.7361 7.87093 55.7158 7.92139 55.6946 7.98486L55.16 9.45947H56.4026ZM58.2606 9.78174L58.5389 9.78662L58.6414 10.3481C58.6512 10.384 58.6609 10.4132 58.6707 10.436C58.6805 10.4572 58.6902 10.4743 58.7 10.4873C58.7114 10.5003 58.722 10.5109 58.7318 10.519C58.7415 10.5256 58.7505 10.5312 58.7586 10.5361C58.7944 10.554 58.8441 10.5744 58.9075 10.5972C58.971 10.6183 59.0418 10.6387 59.1199 10.6582C59.1981 10.6777 59.2794 10.694 59.3641 10.707C59.4487 10.7201 59.5317 10.7266 59.6131 10.7266C59.6831 10.7266 59.7466 10.7184 59.8035 10.7021C59.8605 10.6859 59.9118 10.6655 59.9573 10.6411C60.0029 10.6167 60.0428 10.5898 60.077 10.5605C60.1128 10.5296 60.1445 10.5003 60.1722 10.4727C60.1803 10.458 60.1893 10.4393 60.199 10.4165C60.2088 10.3921 60.2178 10.366 60.2259 10.3384C60.2357 10.3091 60.2438 10.2782 60.2503 10.2456C60.2568 10.2131 60.2601 10.1813 60.2601 10.1504C60.2601 10.0234 60.2308 9.91764 60.1722 9.83301C60.1136 9.74674 60.0355 9.6735 59.9378 9.61328C59.8418 9.55306 59.7319 9.50098 59.6082 9.45703C59.4861 9.41146 59.3608 9.36589 59.2322 9.32031C59.1037 9.27474 58.9775 9.22428 58.8538 9.16895C58.7318 9.11198 58.6219 9.04199 58.5242 8.95898C58.4282 8.87598 58.3509 8.77588 58.2923 8.65869C58.2337 8.53988 58.2044 8.39421 58.2044 8.22168C58.2044 8.10124 58.2239 7.993 58.263 7.89697C58.3021 7.80094 58.3558 7.71549 58.4241 7.64062C58.4925 7.56576 58.5722 7.50146 58.6634 7.44775C58.7562 7.39404 58.8554 7.3501 58.9612 7.31592C59.0687 7.28174 59.1802 7.25651 59.2957 7.24023C59.4113 7.22396 59.5268 7.21582 59.6424 7.21582C59.7368 7.21582 59.8206 7.21989 59.8939 7.22803C59.9671 7.23454 60.0379 7.2443 60.1063 7.25732C60.1746 7.26872 60.2454 7.28174 60.3187 7.29639C60.3919 7.31104 60.4749 7.32487 60.5677 7.33789L60.4969 8.30469H60.2357L60.138 7.89697C60.1299 7.85954 60.1201 7.82861 60.1087 7.8042C60.0989 7.77816 60.0867 7.75618 60.0721 7.73828C60.0574 7.71875 60.0412 7.70329 60.0233 7.69189C60.0054 7.67887 59.985 7.66667 59.9622 7.65527C59.8939 7.6276 59.8117 7.60319 59.7156 7.58203C59.6212 7.56087 59.5154 7.55029 59.3983 7.55029C59.3006 7.55029 59.2111 7.5568 59.1297 7.56982C59.0499 7.58122 58.9816 7.60319 58.9246 7.63574C58.9067 7.65853 58.8847 7.68132 58.8587 7.7041C58.8343 7.72689 58.8107 7.75456 58.7879 7.78711C58.7667 7.81966 58.748 7.85954 58.7318 7.90674C58.7171 7.95231 58.7098 8.00928 58.7098 8.07764C58.7098 8.2111 58.7391 8.32259 58.7977 8.41211C58.8563 8.5 58.9336 8.57487 59.0296 8.63672C59.1256 8.69694 59.2347 8.74821 59.3568 8.79053C59.4788 8.83285 59.6033 8.87516 59.7303 8.91748C59.8589 8.9598 59.9842 9.007 60.1063 9.05908C60.2283 9.10954 60.3374 9.17301 60.4334 9.24951C60.5294 9.32601 60.6068 9.42041 60.6653 9.53271C60.7239 9.64502 60.7532 9.78337 60.7532 9.94775C60.7532 10.1561 60.7117 10.3319 60.6287 10.4751C60.5457 10.6167 60.4334 10.7306 60.2918 10.8169C60.1502 10.9032 59.9858 10.965 59.7986 11.0024C59.6131 11.0399 59.417 11.0586 59.2103 11.0586C59.1273 11.0586 59.0394 11.0505 58.9466 11.0342C58.8554 11.0179 58.7635 10.9959 58.6707 10.9683C58.5796 10.9406 58.4901 10.9089 58.4022 10.873C58.3143 10.8356 58.2313 10.7965 58.1531 10.7559L58.2606 9.78174ZM61.3026 10.8047C61.3839 10.7819 61.4498 10.7616 61.5003 10.7437C61.5524 10.7241 61.5923 10.6981 61.6199 10.6655C61.6492 10.633 61.6688 10.5898 61.6785 10.5361C61.6883 10.4808 61.6932 10.4067 61.6932 10.314V7.5918L61.2903 7.45996V7.26465H63.4754L63.8221 7.21826V8.22412L63.5682 8.229L63.3924 7.62109C63.1515 7.61133 62.9554 7.604 62.804 7.59912C62.6543 7.59424 62.5355 7.59017 62.4476 7.58691C62.3467 7.58366 62.271 7.58285 62.2205 7.58447V8.96387L63.2996 8.89307V9.35693L62.2205 9.28125V10.7095L63.639 10.6509L63.8636 9.9502H64.1273L64.0809 11.0439L63.7366 11H61.3026V10.8047ZM64.6009 9.21289C64.6009 9.0485 64.6188 8.88493 64.6546 8.72217C64.6904 8.55941 64.7433 8.40397 64.8133 8.25586C64.8849 8.10775 64.9728 7.97021 65.077 7.84326C65.1828 7.71631 65.3048 7.60645 65.4432 7.51367C65.5832 7.4209 65.7394 7.34847 65.9119 7.29639C66.0861 7.24268 66.2757 7.21582 66.4808 7.21582C66.6826 7.21582 66.8673 7.23942 67.035 7.28662C67.2042 7.33382 67.3548 7.39974 67.4866 7.48438C67.6201 7.56901 67.7365 7.66911 67.8358 7.78467C67.935 7.90023 68.0172 8.02637 68.0823 8.16309C68.1491 8.2998 68.1987 8.44385 68.2313 8.59521C68.2638 8.74658 68.2801 8.90039 68.2801 9.05664C68.2801 9.22103 68.2622 9.3846 68.2264 9.54736C68.1906 9.71012 68.1369 9.86556 68.0652 10.0137C67.9953 10.1602 67.9074 10.2969 67.8016 10.4238C67.6958 10.5508 67.5729 10.6606 67.4329 10.7534C67.2946 10.8446 67.1383 10.917 66.9642 10.9707C66.7916 11.0228 66.6028 11.0488 66.3978 11.0488C66.1959 11.0488 66.0112 11.0252 65.8436 10.978C65.6759 10.9308 65.5254 10.8657 65.3919 10.7827C65.2584 10.6981 65.1421 10.598 65.0428 10.4824C64.9435 10.3669 64.8613 10.2415 64.7962 10.1064C64.7311 9.96973 64.6823 9.82568 64.6497 9.67432C64.6172 9.52295 64.6009 9.36914 64.6009 9.21289ZM65.1453 8.95898C65.1453 9.10221 65.1575 9.24463 65.1819 9.38623C65.208 9.52783 65.2462 9.66292 65.2967 9.7915C65.3488 9.92008 65.4139 10.0397 65.492 10.1504C65.5718 10.2611 65.6653 10.3571 65.7728 10.4385C65.8802 10.5182 66.0031 10.5809 66.1414 10.6265C66.2798 10.672 66.4336 10.6948 66.6028 10.6948C66.7444 10.6948 66.8779 10.6761 67.0032 10.6387C67.1302 10.6012 67.2449 10.5524 67.3475 10.4922C67.4126 10.4027 67.4695 10.3091 67.5184 10.2114C67.5672 10.1121 67.6071 10.012 67.638 9.91113C67.6706 9.80859 67.695 9.70687 67.7112 9.60596C67.7275 9.50505 67.7357 9.40658 67.7357 9.31055C67.7357 9.16732 67.7226 9.0249 67.6966 8.8833C67.6722 8.7417 67.6339 8.60661 67.5818 8.47803C67.5314 8.34782 67.4663 8.22819 67.3865 8.11914C67.3084 8.00846 67.2148 7.91243 67.1058 7.83105C66.9984 7.74967 66.8755 7.6862 66.7371 7.64062C66.5988 7.59505 66.445 7.57227 66.2757 7.57227C66.1341 7.57227 65.9998 7.59261 65.8729 7.6333C65.7475 7.67236 65.6336 7.72445 65.5311 7.78955C65.466 7.87907 65.409 7.97266 65.3602 8.07031C65.3113 8.16634 65.2707 8.26481 65.2381 8.36572C65.2072 8.46501 65.1836 8.5651 65.1673 8.66602C65.1526 8.76693 65.1453 8.86458 65.1453 8.95898ZM68.7195 10.7998C68.8042 10.777 68.8734 10.7559 68.9271 10.7363C68.9808 10.7168 69.0239 10.6899 69.0565 10.6558C69.089 10.6216 69.1134 10.576 69.1297 10.519C69.146 10.4621 69.1598 10.3848 69.1712 10.2871L69.1883 10.1382V7.78955C69.1802 7.73584 69.1671 7.69271 69.1492 7.66016C69.1313 7.62598 69.1061 7.59749 69.0735 7.57471C69.041 7.55192 69.0003 7.5332 68.9515 7.51855C68.9026 7.50228 68.8441 7.48438 68.7757 7.46484V7.26465H69.5545L71.8006 10.104L71.7835 8.88574L71.7615 7.60645L71.3416 7.46973V7.26465H72.5184V7.46973C72.4321 7.49251 72.3613 7.51367 72.306 7.5332C72.2523 7.55273 72.2099 7.57959 72.179 7.61377C72.1481 7.64795 72.1261 7.69352 72.1131 7.75049C72.1017 7.80745 72.096 7.88477 72.096 7.98242V11H71.8128L71.8104 10.9683L71.803 11L69.5301 8.07031L69.5643 10.6582L69.5692 10.6655L70.0403 10.7998V11H68.7195V10.7998ZM72.931 9.20312C72.931 9.04036 72.9505 8.87842 72.9896 8.71729C73.0286 8.55452 73.0856 8.3999 73.1605 8.25342C73.2353 8.10531 73.3273 7.96859 73.4363 7.84326C73.547 7.71631 73.6732 7.60645 73.8148 7.51367C73.9564 7.4209 74.1126 7.34847 74.2835 7.29639C74.4544 7.24268 74.6391 7.21582 74.8377 7.21582C75.0102 7.21582 75.1722 7.22803 75.3235 7.25244C75.4765 7.27523 75.6116 7.30046 75.7288 7.32812C75.8655 7.36068 75.9917 7.39811 76.1072 7.44043L76.0145 8.36328H75.763L75.6409 7.8335C75.5742 7.77979 75.5001 7.73665 75.4188 7.7041C75.3374 7.67155 75.2511 7.64632 75.16 7.62842C75.0705 7.61051 74.9785 7.59912 74.8841 7.59424C74.7897 7.58773 74.6977 7.58447 74.6082 7.58447C74.5415 7.58447 74.4723 7.5918 74.4007 7.60645C74.3291 7.61947 74.2591 7.639 74.1907 7.66504C74.1224 7.68945 74.0589 7.71875 74.0003 7.75293C73.9417 7.78548 73.8921 7.82129 73.8514 7.86035C73.7977 7.93034 73.7472 8.00684 73.7 8.08984C73.6544 8.17122 73.6146 8.25993 73.5804 8.35596C73.5462 8.45036 73.5193 8.55127 73.4998 8.65869C73.4803 8.76449 73.4705 8.87598 73.4705 8.99316C73.4705 9.14128 73.4835 9.28613 73.5096 9.42773C73.5356 9.56934 73.5739 9.7028 73.6243 9.82812C73.6764 9.95345 73.7415 10.0698 73.8196 10.1772C73.8978 10.283 73.9881 10.3742 74.0906 10.4507C74.1932 10.5272 74.3079 10.5874 74.4349 10.6313C74.5635 10.6737 74.7042 10.6948 74.8572 10.6948C74.9419 10.6948 75.0151 10.6932 75.077 10.6899C75.1404 10.6867 75.1974 10.6818 75.2479 10.6753C75.2999 10.6672 75.3488 10.6566 75.3943 10.6436C75.4415 10.6305 75.4912 10.6143 75.5433 10.5947V9.61084L75.0867 9.47656V9.27393H76.3099V9.47656C76.2724 9.48633 76.2383 9.49772 76.2073 9.51074C76.1764 9.52214 76.1496 9.53678 76.1268 9.55469C76.1056 9.57259 76.0885 9.59456 76.0755 9.62061C76.0625 9.64502 76.056 9.67513 76.056 9.71094V10.2212L76.0755 10.7095C75.9111 10.8022 75.75 10.8722 75.5921 10.9194C75.4359 10.965 75.2934 10.9976 75.1649 11.0171C75.0379 11.0366 74.9305 11.0464 74.8426 11.0464C74.7563 11.048 74.7026 11.0488 74.6815 11.0488C74.4894 11.0488 74.3128 11.0252 74.1517 10.978C73.9905 10.9292 73.8449 10.8625 73.7147 10.7778C73.5861 10.6932 73.473 10.5931 73.3753 10.4775C73.2776 10.3604 73.1955 10.2334 73.1287 10.0967C73.0636 9.95996 73.014 9.81592 72.9798 9.66455C72.9472 9.51318 72.931 9.35938 72.931 9.20312ZM44.4715 16.7998C44.5561 16.777 44.6212 16.755 44.6668 16.7339C44.7124 16.7127 44.7474 16.6851 44.7718 16.6509C44.7962 16.6167 44.8157 16.5719 44.8304 16.5166C44.8467 16.4596 44.867 16.3831 44.8914 16.2871L44.9232 16.1602L45.2479 13.77C45.2397 13.7212 45.2275 13.6813 45.2112 13.6504C45.195 13.6178 45.1714 13.591 45.1404 13.5698C45.1111 13.5487 45.0737 13.5308 45.0281 13.5161C44.9826 13.4998 44.9264 13.4827 44.8597 13.4648V13.2646H45.8411V13.3599L46.9471 16.1333L47.9896 13.3281L47.9822 13.2646H48.971V13.4697C48.8847 13.4925 48.8139 13.5129 48.7586 13.5308C48.7049 13.547 48.6626 13.5706 48.6317 13.6016C48.6007 13.6325 48.5788 13.6748 48.5657 13.7285C48.5543 13.7822 48.5486 13.8579 48.5486 13.9556L48.9564 16.6631L49.4031 16.7974V17H48.0091V16.7974C48.0937 16.7746 48.1621 16.7534 48.2142 16.7339C48.2663 16.7144 48.3061 16.6875 48.3338 16.6533C48.3631 16.6191 48.3818 16.5736 48.39 16.5166C48.3997 16.4596 48.4046 16.3823 48.4046 16.2847L48.0848 13.9824C48.0848 13.9792 48.084 13.9759 48.0823 13.9727C48.0823 13.9678 48.0823 13.9637 48.0823 13.9604L47.0008 16.8682C47.0008 16.8812 46.9992 16.8942 46.9959 16.9072C46.9927 16.9202 46.987 16.9308 46.9788 16.939L46.7542 17.0244L45.5555 13.9482L45.2845 16.0625L45.2723 16.6655L45.6946 16.7998V17H44.4715V16.7998ZM49.9671 13.6064L49.5984 13.4697V13.2646H50.553C50.5416 13.307 50.5319 13.3517 50.5237 13.3989C50.5172 13.4445 50.5115 13.4982 50.5067 13.5601C50.5018 13.6203 50.4985 13.6911 50.4969 13.7725C50.4953 13.8538 50.4936 13.9515 50.492 14.0654C50.492 14.1794 50.492 14.312 50.492 14.4634C50.492 14.6147 50.492 14.7905 50.492 14.9907V15.6084C50.492 15.7809 50.5018 15.929 50.5213 16.0527C50.5425 16.1748 50.5791 16.2757 50.6312 16.3555C50.6832 16.4336 50.7549 16.4914 50.846 16.5288C50.9388 16.5646 51.0576 16.5825 51.2025 16.5825C51.3115 16.5825 51.4149 16.5744 51.5125 16.5581C51.6102 16.5402 51.7029 16.5142 51.7908 16.48C51.8804 16.4442 51.9666 16.4002 52.0496 16.3481C52.1343 16.2944 52.2173 16.2318 52.2986 16.1602V13.6064L52.0228 13.4697V13.2646H53.1995V13.4697C53.1572 13.4876 53.1133 13.5023 53.0677 13.5137C53.0237 13.5251 52.9839 13.5438 52.9481 13.5698C52.9123 13.5959 52.883 13.6349 52.8602 13.687C52.8374 13.7375 52.826 13.8115 52.826 13.9092V15.1641C52.8276 15.3236 52.8292 15.4627 52.8309 15.5815C52.8325 15.7004 52.8333 15.8053 52.8333 15.8965C52.8349 15.986 52.8366 16.0658 52.8382 16.1357C52.8415 16.2041 52.8439 16.2676 52.8455 16.3262C52.8488 16.3831 52.8528 16.4385 52.8577 16.4922C52.8626 16.5459 52.8683 16.6037 52.8748 16.6655L53.2313 16.7998V17H52.3524C52.3491 16.9382 52.3467 16.8755 52.345 16.812C52.3418 16.7583 52.3393 16.7013 52.3377 16.6411C52.3377 16.5793 52.3369 16.5223 52.3353 16.4702C52.306 16.5028 52.2669 16.5402 52.2181 16.5825C52.1709 16.6232 52.1155 16.6647 52.0521 16.707C51.9902 16.7493 51.921 16.7917 51.8445 16.834C51.7697 16.8747 51.6899 16.9113 51.6053 16.9438C51.5223 16.9748 51.436 17 51.3465 17.0195C51.257 17.0391 51.1675 17.0488 51.0779 17.0488C50.9982 17.0488 50.9152 17.0456 50.8289 17.0391C50.7443 17.0326 50.6605 17.0171 50.5775 16.9927C50.4961 16.9683 50.4179 16.9316 50.3431 16.8828C50.2698 16.834 50.2047 16.7681 50.1478 16.6851C50.0924 16.6004 50.0485 16.4963 50.0159 16.3726C49.9834 16.2472 49.9671 16.0959 49.9671 15.9185V13.6064ZM53.9979 15.7817L54.2762 15.7866L54.3787 16.3481C54.3885 16.384 54.3983 16.4132 54.408 16.436C54.4178 16.4572 54.4276 16.4743 54.4373 16.4873C54.4487 16.5003 54.4593 16.5109 54.4691 16.519C54.4788 16.5256 54.4878 16.5312 54.4959 16.5361C54.5317 16.554 54.5814 16.5744 54.6448 16.5972C54.7083 16.6183 54.7791 16.6387 54.8572 16.6582C54.9354 16.6777 55.0167 16.694 55.1014 16.707C55.186 16.7201 55.269 16.7266 55.3504 16.7266C55.4204 16.7266 55.4839 16.7184 55.5408 16.7021C55.5978 16.6859 55.6491 16.6655 55.6946 16.6411C55.7402 16.6167 55.7801 16.5898 55.8143 16.5605C55.8501 16.5296 55.8818 16.5003 55.9095 16.4727C55.9176 16.458 55.9266 16.4393 55.9363 16.4165C55.9461 16.3921 55.9551 16.366 55.9632 16.3384C55.973 16.3091 55.9811 16.2782 55.9876 16.2456C55.9941 16.2131 55.9974 16.1813 55.9974 16.1504C55.9974 16.0234 55.9681 15.9176 55.9095 15.833C55.8509 15.7467 55.7728 15.6735 55.6751 15.6133C55.5791 15.5531 55.4692 15.501 55.3455 15.457C55.2234 15.4115 55.0981 15.3659 54.9695 15.3203C54.841 15.2747 54.7148 15.2243 54.5911 15.1689C54.4691 15.112 54.3592 15.042 54.2615 14.959C54.1655 14.876 54.0882 14.7759 54.0296 14.6587C53.971 14.5399 53.9417 14.3942 53.9417 14.2217C53.9417 14.1012 53.9612 13.993 54.0003 13.897C54.0394 13.8009 54.0931 13.7155 54.1614 13.6406C54.2298 13.5658 54.3095 13.5015 54.4007 13.4478C54.4935 13.394 54.5928 13.3501 54.6985 13.3159C54.806 13.2817 54.9175 13.2565 55.033 13.2402C55.1486 13.224 55.2641 13.2158 55.3797 13.2158C55.4741 13.2158 55.5579 13.2199 55.6312 13.228C55.7044 13.2345 55.7752 13.2443 55.8436 13.2573C55.9119 13.2687 55.9827 13.2817 56.056 13.2964C56.1292 13.311 56.2122 13.3249 56.305 13.3379L56.2342 14.3047H55.973L55.8753 13.897C55.8672 13.8595 55.8574 13.8286 55.846 13.8042C55.8362 13.7782 55.824 13.7562 55.8094 13.7383C55.7947 13.7188 55.7785 13.7033 55.7606 13.6919C55.7427 13.6789 55.7223 13.6667 55.6995 13.6553C55.6312 13.6276 55.549 13.6032 55.4529 13.582C55.3585 13.5609 55.2527 13.5503 55.1356 13.5503C55.0379 13.5503 54.9484 13.5568 54.867 13.5698C54.7873 13.5812 54.7189 13.6032 54.6619 13.6357C54.644 13.6585 54.622 13.6813 54.596 13.7041C54.5716 13.7269 54.548 13.7546 54.5252 13.7871C54.504 13.8197 54.4853 13.8595 54.4691 13.9067C54.4544 13.9523 54.4471 14.0093 54.4471 14.0776C54.4471 14.2111 54.4764 14.3226 54.535 14.4121C54.5936 14.5 54.6709 14.5749 54.7669 14.6367C54.8629 14.6969 54.972 14.7482 55.0941 14.7905C55.2161 14.8328 55.3406 14.8752 55.4676 14.9175C55.5962 14.9598 55.7215 15.007 55.8436 15.0591C55.9656 15.1095 56.0747 15.173 56.1707 15.2495C56.2667 15.326 56.3441 15.4204 56.4026 15.5327C56.4612 15.645 56.4905 15.7834 56.4905 15.9478C56.4905 16.1561 56.449 16.3319 56.366 16.4751C56.283 16.6167 56.1707 16.7306 56.0291 16.8169C55.8875 16.9032 55.7231 16.965 55.5359 17.0024C55.3504 17.0399 55.1543 17.0586 54.9476 17.0586C54.8646 17.0586 54.7767 17.0505 54.6839 17.0342C54.5928 17.0179 54.5008 16.9959 54.408 16.9683C54.3169 16.9406 54.2274 16.9089 54.1395 16.873C54.0516 16.8356 53.9686 16.7965 53.8904 16.7559L53.9979 15.7817ZM57.0399 16.8047C57.1212 16.7819 57.1872 16.7616 57.2376 16.7437C57.2897 16.7241 57.3296 16.6981 57.3572 16.6655C57.3865 16.633 57.4061 16.5898 57.4158 16.5361C57.4256 16.4808 57.4305 16.4067 57.4305 16.314V13.5918L57.0276 13.46V13.2646H59.2127L59.5594 13.2183V14.2241L59.3055 14.229L59.1297 13.6211C58.8888 13.6113 58.6927 13.604 58.5413 13.5991C58.3916 13.5942 58.2728 13.5902 58.1849 13.5869C58.084 13.5837 58.0083 13.5828 57.9578 13.5845V14.9639L59.0369 14.8931V15.3569L57.9578 15.2812V16.7095L59.3763 16.6509L59.6009 15.9502H59.8646L59.8182 17.0439L59.4739 17H57.0399V16.8047ZM60.6263 13.6064L60.2576 13.4697V13.2646H61.2122C61.2008 13.307 61.1911 13.3517 61.1829 13.3989C61.1764 13.4445 61.1707 13.4982 61.1658 13.5601C61.1609 13.6203 61.1577 13.6911 61.1561 13.7725C61.1544 13.8538 61.1528 13.9515 61.1512 14.0654C61.1512 14.1794 61.1512 14.312 61.1512 14.4634C61.1512 14.6147 61.1512 14.7905 61.1512 14.9907V15.6084C61.1512 15.7809 61.1609 15.929 61.1805 16.0527C61.2016 16.1748 61.2383 16.2757 61.2903 16.3555C61.3424 16.4336 61.414 16.4914 61.5052 16.5288C61.598 16.5646 61.7168 16.5825 61.8616 16.5825C61.9707 16.5825 62.074 16.5744 62.1717 16.5581C62.2693 16.5402 62.3621 16.5142 62.45 16.48C62.5395 16.4442 62.6258 16.4002 62.7088 16.3481C62.7934 16.2944 62.8764 16.2318 62.9578 16.1602V13.6064L62.6819 13.4697V13.2646H63.8587V13.4697C63.8164 13.4876 63.7724 13.5023 63.7269 13.5137C63.6829 13.5251 63.643 13.5438 63.6072 13.5698C63.5714 13.5959 63.5421 13.6349 63.5193 13.687C63.4966 13.7375 63.4852 13.8115 63.4852 13.9092V15.1641C63.4868 15.3236 63.4884 15.4627 63.4901 15.5815C63.4917 15.7004 63.4925 15.8053 63.4925 15.8965C63.4941 15.986 63.4957 16.0658 63.4974 16.1357C63.5006 16.2041 63.5031 16.2676 63.5047 16.3262C63.508 16.3831 63.512 16.4385 63.5169 16.4922C63.5218 16.5459 63.5275 16.6037 63.534 16.6655L63.8904 16.7998V17H63.0115C63.0083 16.9382 63.0058 16.8755 63.0042 16.812C63.001 16.7583 62.9985 16.7013 62.9969 16.6411C62.9969 16.5793 62.9961 16.5223 62.9944 16.4702C62.9651 16.5028 62.9261 16.5402 62.8773 16.5825C62.8301 16.6232 62.7747 16.6647 62.7112 16.707C62.6494 16.7493 62.5802 16.7917 62.5037 16.834C62.4289 16.8747 62.3491 16.9113 62.2645 16.9438C62.1815 16.9748 62.0952 17 62.0057 17.0195C61.9162 17.0391 61.8266 17.0488 61.7371 17.0488C61.6574 17.0488 61.5744 17.0456 61.4881 17.0391C61.4035 17.0326 61.3196 17.0171 61.2366 16.9927C61.1553 16.9683 61.0771 16.9316 61.0023 16.8828C60.929 16.834 60.8639 16.7681 60.8069 16.6851C60.7516 16.6004 60.7077 16.4963 60.6751 16.3726C60.6426 16.2472 60.6263 16.0959 60.6263 15.9185V13.6064ZM64.1883 16.7998C64.2729 16.777 64.338 16.755 64.3836 16.7339C64.4292 16.7127 64.4642 16.6851 64.4886 16.6509C64.513 16.6167 64.5325 16.5719 64.5472 16.5166C64.5635 16.4596 64.5838 16.3831 64.6082 16.2871L64.64 16.1602L64.9647 13.77C64.9565 13.7212 64.9443 13.6813 64.928 13.6504C64.9118 13.6178 64.8882 13.591 64.8572 13.5698C64.8279 13.5487 64.7905 13.5308 64.7449 13.5161C64.6994 13.4998 64.6432 13.4827 64.5765 13.4648V13.2646H65.5579V13.3599L66.6639 16.1333L67.7064 13.3281L67.699 13.2646H68.6878V13.4697C68.6015 13.4925 68.5307 13.5129 68.4754 13.5308C68.4217 13.547 68.3794 13.5706 68.3484 13.6016C68.3175 13.6325 68.2956 13.6748 68.2825 13.7285C68.2711 13.7822 68.2654 13.8579 68.2654 13.9556L68.6732 16.6631L69.1199 16.7974V17H67.7259V16.7974C67.8105 16.7746 67.8789 16.7534 67.931 16.7339C67.9831 16.7144 68.0229 16.6875 68.0506 16.6533C68.0799 16.6191 68.0986 16.5736 68.1068 16.5166C68.1165 16.4596 68.1214 16.3823 68.1214 16.2847L67.8016 13.9824C67.8016 13.9792 67.8008 13.9759 67.7991 13.9727C67.7991 13.9678 67.7991 13.9637 67.7991 13.9604L66.7176 16.8682C66.7176 16.8812 66.716 16.8942 66.7127 16.9072C66.7095 16.9202 66.7038 16.9308 66.6956 16.939L66.471 17.0244L65.2723 13.9482L65.0013 16.0625L64.9891 16.6655L65.4114 16.7998V17H64.1883V16.7998Z" fill="#464646"/>
</svg>
