<svg width="109" height="36" viewBox="0 0 109 36" fill="none" xmlns="http://www.w3.org/2000/svg">
<path d="M40.557 7.99585H0.555359V9.99669H40.557V7.99585Z" fill="#0076A3"/>
<path d="M40.557 11.9975H0.555359V13.9983H40.557V11.9975Z" fill="#0076A3"/>
<path d="M40.557 15.9992H0.555359V18H40.557V15.9992Z" fill="#0076A3"/>
<path d="M0.555359 6.00252H6.55785V2.00084H10.5595V6.00252H18.5554V2.00084H22.557V6.00252H30.5604V2.00084H34.562V6.00252H40.557V4.00168H36.5629V0H28.5595V4.00168H24.5579V0H16.5545V4.00168H12.5528V0H4.55701V4.00168H0.555359V6.00252Z" fill="#0076A3"/>
<path d="M9.24331 23.18C9.45331 23.23 9.76331 23.18 9.87331 23.13C9.98331 23.08 10.2333 22.98 10.3733 22.92C10.5133 22.86 11.1133 22.69 11.3833 22.61C11.5633 22.59 12.0933 22.53 12.3233 22.53C12.5433 22.54 12.8833 22.6 13.1133 22.63C13.3433 22.66 14.1433 23.05 14.3233 23.18C14.7433 23.33 15.2833 23.96 15.2333 24.64C15.1733 25.07 15.0733 25.2 15.0233 25.43C15.2633 25.52 15.6033 25.61 15.7533 25.79C15.8933 25.96 15.9733 26.04 15.9933 26.19C16.0133 26.34 15.9133 26.64 15.9833 26.83C16.0533 27.03 16.1333 27.18 16.0733 27.37C16.0133 27.57 15.7833 27.66 15.6233 27.7C15.4633 27.74 15.0833 27.69 14.9333 27.7C14.7833 27.71 14.3533 27.83 14.3233 27.88C14.0833 28 13.8133 27.93 13.8133 27.96C13.6833 27.96 12.5533 28.21 12.5533 28.23C12.2133 28.26 12.0533 28.31 11.7033 28.34C11.3133 28.46 10.7133 28.53 10.3633 28.73C10.3333 28.86 10.2333 28.94 10.2033 29.12C10.1733 29.3 10.1533 29.78 10.1233 29.99C10.1533 29.99 10.1133 30.56 10.1333 30.56C10.3133 30.76 10.1933 32.01 10.1933 32.36C10.2233 32.36 10.1933 33.7 10.1933 33.86C10.2233 33.86 10.0533 34.75 10.0533 34.72C9.97331 34.75 9.85332 34.67 9.69332 34.81C9.58332 35.02 9.51329 35.15 9.32329 34.81C9.24329 34.78 8.77331 34.55 8.77331 34.5C8.45331 34.48 8.23331 34.13 8.34331 33.99C8.34331 33.96 8.43329 33.7 8.38329 33.48C8.35329 33.48 8.35331 32.85 8.30331 32.77C8.26331 32.69 8.21332 32.53 8.22332 32.42C8.22332 32.31 8.2933 31.98 8.3233 31.98C8.3233 31.59 8.36331 31.11 8.34331 30.88C8.32331 30.65 8.23332 30.32 8.25332 30.13C8.27332 29.94 8.28331 29.52 8.21331 29.39C8.14331 29.26 8.11331 29.28 7.99331 29.3C7.65331 29.29 6.9033 29.52 6.7033 29.6C6.5033 29.67 5.78332 29.8 5.78332 29.77C5.60332 29.77 5.37332 29.63 4.91332 29.61C4.30332 29.59 4.3133 29.72 4.1133 29.73C3.9533 29.74 3.84332 29.6 3.50332 29.71C3.16332 29.82 2.84332 30.08 2.78332 30.08C2.73332 30.16 2.58332 30.25 2.50332 30.32C2.42332 30.38 1.97332 30.49 1.97332 30.52C1.86332 30.59 1.6633 30.66 1.5733 30.63C1.4833 30.6 1.44329 30.47 1.35329 30.4C1.26329 30.33 1.1033 30.34 1.0133 30.09C0.963298 29.93 1.07332 29.36 1.03332 29.27C0.993317 29.18 1.02331 28.81 1.15331 28.7C1.28331 28.6 1.67331 28.46 2.05331 28.5C2.05331 28.53 2.62332 28.66 2.78332 28.6C2.78332 28.57 3.14331 28.46 3.21331 28.44C3.29331 28.43 3.60331 28.26 3.84331 28.22C4.25331 28.16 5.16332 27.95 5.16332 27.93C5.29332 27.93 6.12331 27.76 6.12331 27.74C6.15331 27.74 6.4033 27.67 6.7333 27.52C7.1433 27.29 7.56331 27.11 7.71331 27.05C8.01331 26.93 8.63331 26.85 8.87331 26.82C9.13331 26.78 9.9533 26.92 9.9533 26.9C10.0533 26.9 10.9233 26.73 10.9233 26.7C11.0033 26.7 11.6333 26.41 11.9133 26.31C12.1833 26.21 12.7333 26.1 12.7333 26.07C12.9433 25.97 13.0533 25.95 13.1033 25.8C12.5933 25.72 12.2833 25.51 10.9233 25.21C10.8733 25.21 9.3633 24.67 9.3633 24.65C9.2333 24.65 9.0233 24.53 8.9533 24.5C8.8833 24.47 8.86331 24.48 8.77331 24.43C8.68331 24.38 8.63331 24.37 8.49331 24.42C8.49331 24.45 8.32331 24.55 8.24331 24.71C8.16331 24.8 8.0133 24.94 7.8233 25.01C7.6333 25.08 7.36331 25.05 7.24331 25.08C7.13331 25.12 6.74332 25.45 6.53332 25.53C6.32332 25.61 5.9733 25.58 5.7933 25.66C5.6133 25.74 4.74331 26.26 4.68331 26.32C4.63331 26.38 4.63332 26.6 4.56332 26.63C4.49332 26.66 4.25332 26.72 4.19332 26.82C4.13332 26.85 4.0133 26.82 4.0133 26.8C4.0033 26.78 3.9933 26.61 3.9833 26.57C3.9733 26.53 3.91332 26.42 3.91332 26.35C3.91332 26.28 3.87329 25.66 3.85329 25.5C3.88329 25.5 3.82329 25.26 3.85329 25.11C3.89329 24.86 4.39332 24.79 4.50332 24.74C4.58332 24.74 4.92331 24.55 4.99331 24.51C5.06331 24.46 5.47332 24.19 5.66332 24.04C5.76332 23.97 6.14331 23.69 6.46331 23.51C6.79331 23.32 7.0633 23.22 7.0833 23.22C7.1433 23.2 7.58331 23.09 7.68331 23.01C7.78331 22.93 8.03331 22.6 8.05331 22.58C8.07331 22.57 8.21331 22.28 8.24331 22.02C8.27331 21.76 8.65332 21.75 8.78332 21.83C8.92332 21.91 9.0833 22.18 9.1733 22.26C9.3333 22.4 9.31332 22.81 9.31332 22.89C9.31332 22.94 9.29331 23.02 9.24331 23.18Z" fill="black"/>
<path d="M22.4933 25.1499C22.6933 25.0699 23.1033 25.02 23.2233 24.99C23.2233 24.96 23.8133 25.0099 23.9533 25.0599C24.1333 25.0999 24.4433 25.3699 24.4833 25.3699C24.5333 25.3999 24.5733 25.46 24.5833 25.55C24.5833 25.65 24.5033 25.74 24.5133 25.85C24.5233 25.96 24.6833 25.9199 24.6633 26.0599C24.6333 26.2399 24.6933 26.47 24.6333 26.51C24.5733 26.55 24.3833 26.44 24.3833 26.41C24.1533 26.36 24.0833 26.54 24.0433 26.55C23.9633 26.59 23.4733 26.67 23.4133 26.67C23.4133 26.7 23.1233 26.65 22.9533 26.76C22.7833 26.87 22.6633 26.84 22.5633 26.97C22.5233 27.03 22.4733 27.1199 22.4433 27.2799C22.4133 27.4599 22.4033 27.72 22.4033 27.76C22.3633 27.91 22.3033 27.9399 22.3333 28.0299C22.3633 28.1199 22.5133 28.22 22.7233 28.07C22.9833 27.89 23.0933 27.62 23.4533 27.47C23.4633 27.46 23.6533 27.3 23.9233 27.16C24.1033 27.07 24.2733 27.0399 24.3533 26.9999C24.5133 26.9299 24.7633 26.7299 24.8933 26.6499C25.0033 26.5699 25.2533 26.39 25.6033 26.22C25.6933 26.18 25.8333 26.1199 25.9933 26.0599C26.3433 26.0199 26.3233 25.9099 26.6533 25.7799C26.7633 25.7299 26.9933 25.72 27.0833 25.66C27.2333 25.57 27.3733 25.47 27.4933 25.44C27.6133 25.41 27.7233 25.43 27.8333 25.41C27.8233 25.02 27.9533 24.73 27.9733 24.66C27.9933 24.59 28.0533 24.2099 28.0833 24.0899C28.1133 23.9599 28.2633 23.24 28.2933 23.24C28.3233 23 28.3933 22.6599 28.4433 22.5599C28.4933 22.4599 28.5333 22.34 28.6133 22.29C28.7633 22.09 28.8333 22.12 28.9133 22.01C28.9933 21.91 29.5633 21.9999 29.7333 22.0899C29.9033 22.1799 30.0933 22.7 30.1033 22.77C30.1233 22.84 30.1633 23.3 30.1333 23.38C30.1033 23.46 29.9233 24.04 29.8633 24.1C29.7233 24.36 29.6233 25.26 29.6233 25.44C29.5933 25.44 29.3933 26.64 29.3833 26.7C29.3733 26.76 29.0833 27.91 29.0633 27.96C29.0433 28.02 28.9233 28.48 28.8833 28.8C28.8433 29.11 28.8433 30.2 28.8233 30.33C28.8033 30.61 28.5733 31.04 28.5433 31.22C28.5133 31.4 28.5533 31.6799 28.5533 31.8399C28.5433 31.9999 28.3933 32.22 28.4033 32.3C28.4133 32.39 28.4833 32.37 28.6833 32.3C28.8333 32.13 29.0933 32.05 29.3633 32.04C30.1933 32 31.0133 32.47 31.2433 32.64C31.3633 32.73 31.5133 32.9 31.6233 33.04C31.7233 33.16 31.5533 33.33 31.5633 33.35C31.5733 33.36 31.8933 33.37 31.9333 33.45C31.9833 33.55 32.0633 33.65 32.0633 33.77C32.0633 33.89 31.5433 33.8999 31.5233 33.9999C31.5233 34.2299 31.5833 34.0699 31.7133 34.1199C31.8433 34.1699 31.9233 34.2399 31.9333 34.3699C31.9433 34.4899 31.8633 34.4 31.7533 34.51C31.6433 34.61 31.5933 34.7199 31.5433 34.7799C31.5033 34.8399 31.5433 35.2499 31.4833 35.3099C31.4233 35.3699 31.0333 35.32 31.0333 35.29C30.2133 35.19 29.8633 34.9699 29.7033 34.8999C29.5433 34.8199 29.1333 34.74 28.9533 34.7C28.5633 34.61 28.2933 34.6499 28.2133 34.6499C27.9833 34.6299 27.5533 34.6699 27.3133 34.6799C27.0733 34.6899 26.4233 34.5599 26.1833 34.5299C25.9333 34.4999 25.4633 34.5899 25.2333 34.5599C25.0033 34.5299 24.8033 34.4 24.5333 34.35C24.2533 34.3 23.8633 34.3499 23.4933 34.3699C23.1233 34.3899 22.5633 34.68 22.4433 34.74C22.3233 34.8 21.8633 35.09 21.7833 35.14C21.7033 35.19 21.2533 35.32 21.0533 35.26C20.8533 35.2 20.4433 34.86 20.3133 34.82C20.1833 34.79 19.7933 34.35 19.7433 34.3C19.6933 34.24 19.4733 33.76 19.4933 33.76C19.4933 33.68 19.5333 33.0899 19.5233 32.9999C19.5133 32.9199 19.3233 32.61 19.2133 32.46C19.1033 32.3 18.9433 31.8 18.9033 31.69C18.8533 31.51 18.9233 31.31 18.9733 31.24C19.0233 31.16 18.8433 30.92 18.9133 30.79C18.9733 30.7 19.8333 30.6899 20.0533 30.8999C20.1333 30.9799 20.1133 31.2899 20.1333 31.3699C20.1533 31.4499 20.2133 31.7399 20.1433 31.8099C20.0033 32.1499 20.4033 32.76 20.4533 32.76C20.4833 32.85 20.6833 33.01 20.7133 33.01C20.7133 32.98 21.7433 32.93 21.8733 32.92C22.0033 32.91 22.9333 32.74 23.1233 32.69C23.3233 32.63 24.2533 32.38 24.3533 32.38C24.3533 32.35 25.1133 32.28 25.2933 32.3C25.4733 32.32 25.7533 32.48 25.9133 32.46C26.3533 32.41 26.7333 32.44 27.2833 32.44C27.2833 32.41 27.2633 31.97 27.2333 31.58C27.1933 31.42 27.1633 30.99 27.1633 30.64C27.1633 30.29 27.2933 29.52 27.3233 29.52C27.3733 29.1 27.3533 28.32 27.1933 28.27C27.0433 28.25 26.3833 28.66 26.3033 28.66C26.2733 28.71 25.7633 28.97 25.5733 29.01C25.3833 29.06 25.2033 28.9 24.8833 28.96C24.5633 29.02 24.4333 29.17 24.3233 29.21C24.2033 29.25 23.8233 29.23 23.7133 29.27C23.5933 29.31 23.2233 29.5099 23.0833 29.5299C22.9433 29.5599 22.4433 29.5299 22.2733 29.6199C22.3033 29.9299 22.3233 30.25 22.3533 30.57C22.3233 30.83 22.3233 31.06 22.3033 31.19C22.2833 31.32 22.5033 31.67 22.5233 31.73C22.5433 31.78 22.6133 32.1699 22.4933 32.1799C22.2633 32.2099 21.7233 32.37 21.5933 32.26C21.2433 32.05 21.1933 31.62 21.0733 31.2C20.9133 30.64 21.1533 30.1 21.0533 29.63C21.0433 29.58 21.0133 29.49 21.0033 29.47C20.9933 29.45 20.9333 29.3199 20.9033 29.2799C20.8733 29.2399 20.4933 28.6899 20.3233 28.5899C20.1533 28.4999 20.0633 28.2 19.9533 28.13C19.7733 28.02 19.5433 28.0699 19.4033 28.1199C19.2633 28.1699 19.0333 28.27 18.9033 28.33C18.6833 28.42 18.4333 28.4199 18.3933 28.4299C18.3533 28.4299 18.1833 28.52 18.0933 28.48C18.0033 28.44 18.0133 28.29 17.9133 28.24C17.8333 28.2 17.8433 28.1099 17.8033 28.0599C17.7433 27.9899 17.6733 27.93 17.6633 27.89C17.6433 27.77 17.7333 27.7 17.6933 27.55C17.6533 27.41 17.6533 27.34 17.7133 27.2C17.7433 27.13 17.8333 27.08 17.9333 26.99C18.0433 26.88 18.1333 26.71 18.2133 26.67C18.3633 26.59 18.5233 26.55 18.6433 26.49C18.7633 26.43 18.8133 26.4 19.0033 26.33C19.1633 26.27 19.3333 26.2299 19.6333 26.0599C19.7133 26.0199 20.1133 25.8599 20.2933 25.8099C20.4733 25.7599 20.8633 25.7 21.0733 25.67C21.1233 25.65 21.6633 25.5499 21.6633 25.4999C21.6633 25.4899 22.2933 25.2299 22.4933 25.1499ZM21.1033 25.42C20.9133 25.4 20.3233 25.17 20.2233 25.13C20.1233 25.09 19.7933 24.97 19.7933 24.94C19.5233 24.81 19.3333 24.6499 19.2033 24.3699C19.0833 24.1199 18.9733 23.83 19.0033 23.48C19.0433 23.34 19.1733 23.23 19.2233 23.13C19.3033 22.99 19.2633 22.91 19.4033 22.69C19.4833 22.55 19.6333 22.19 19.8133 22.07C19.9933 21.95 20.1833 22.04 20.1833 22.02C20.3233 22.09 20.4133 21.92 20.6833 21.79C20.8733 21.7 21.2233 21.65 21.5233 21.66C21.8233 21.68 22.1533 21.91 22.3533 22.07C22.4833 22.18 22.7033 22.5 22.8333 22.67C22.9033 22.77 22.9533 23.1 22.9133 23.26C22.8733 23.42 22.9433 23.5299 22.9133 23.8399C22.8933 24.0799 22.7133 24.31 22.6633 24.42C22.6133 24.53 22.6033 24.67 22.5633 24.76C22.5133 24.85 22.3933 24.9 22.2333 25.02C21.9733 25.32 21.2933 25.44 21.1033 25.42ZM21.2933 23.73C21.5033 23.73 21.6433 23.83 21.8433 23.73C22.0433 23.63 22.1133 23.22 21.9933 23.01C21.9233 22.86 21.6733 22.6699 21.6533 22.6199C21.3133 22.3699 21.0033 22.5299 20.9733 22.5899C20.6633 22.6499 20.6233 22.41 20.4533 22.54C20.4433 22.54 20.4233 22.81 20.3533 23.01C20.2933 23.15 20.2033 23.23 20.2333 23.32C20.2933 23.55 20.4433 23.64 20.6633 23.72C20.7833 23.76 21.0233 23.73 21.2933 23.73Z" fill="black"/>
<path d="M44.1933 21.75C44.2633 21.83 44.4133 22.38 44.4333 22.7C44.4533 23.01 44.2433 23.45 44.2233 23.56C44.2133 23.67 44.1633 24.7 44.1933 25.07C44.3233 25.07 44.6633 25.07 44.7433 25.07C44.9033 24.92 45.6633 25.05 45.6633 25.07C45.7433 25.07 46.7033 25.26 46.7033 25.29C46.7833 25.29 47.3133 25.52 47.5433 25.7C47.7633 25.88 47.9433 26.13 48.0033 26.37C48.0633 26.61 48.0533 26.94 48.0533 27.12C48.0533 27.17 48.0233 27.22 48.0333 27.28C48.0433 27.34 48.0733 27.38 48.0333 27.46C47.9933 27.54 47.8133 27.61 47.6633 27.67C47.5233 27.73 47.1733 27.77 47.1033 27.78C46.6233 27.85 46.2533 27.79 45.9433 27.7C45.6433 27.61 44.8633 27.18 44.8633 27.15C44.6833 27 44.4633 26.75 44.4033 26.67C44.3433 26.58 44.2433 26.41 44.1733 26.41C44.1033 26.41 44.0533 26.46 44.0433 26.52C44.0333 26.58 44.1433 26.89 44.1433 26.96C44.1933 26.96 44.0333 29.5 44.0833 29.77C44.1633 30.24 44.2733 30.68 44.2833 30.84C44.2933 31 44.2833 31.97 44.3333 32C44.3333 32.13 44.5133 32.9 44.5533 32.99C44.5833 33.08 44.6733 33.71 44.6533 33.89C44.6333 34.07 44.5133 34.31 44.4933 34.44C44.4833 34.58 44.3833 35.11 44.2033 35.22C44.0233 35.34 43.4333 35.48 43.3233 35.45C43.2133 35.42 43.2433 35.37 43.2033 35.21C43.1733 35.05 42.9833 34.55 42.8833 34.11C42.8533 34.11 42.8033 33.66 42.8033 33.55C42.8033 33.5 42.7933 33.26 42.8033 33.03C42.8033 32.79 42.8533 32.57 42.8633 32.43C42.8733 32.3 42.8433 32.04 42.8133 31.81C42.7833 31.57 42.6633 31.03 42.6633 31.01C42.6333 31.01 42.5333 29.54 42.5333 29.23C42.5633 28.57 42.7033 27.25 42.7233 27.25C42.7233 27.17 42.7933 26.94 42.8433 26.73C42.8933 26.52 42.9133 26.24 42.9233 26.08C42.9333 25.92 42.9133 25.27 42.9233 25.05C42.9333 24.84 43.0833 24.19 43.1133 24.19C43.1133 24.14 43.2333 23.87 43.2733 23.59C43.2933 23.45 43.2433 23.13 43.2433 22.84C43.2433 22.31 43.3133 21.84 43.3833 21.75C43.4533 21.66 43.7533 21.65 43.8733 21.66C44.0033 21.67 44.1333 21.67 44.1933 21.75Z" fill="black"/>
<path d="M60.3733 27.84C60.3133 27.93 60.1533 28.51 60.1233 28.7C60.0833 28.88 60.1733 29.61 60.1433 29.81C60.1133 30.01 60.0433 30.35 60.0133 30.49C59.9833 30.64 59.9733 30.77 59.9733 30.88C59.9733 30.99 59.9633 31.14 59.8633 31.13C59.7633 31.12 59.7233 31.15 59.4833 31.05C59.2433 30.95 59.2633 30.67 59.0733 30.49C58.9833 30.4 58.8533 30.39 58.7533 30.33C58.6533 30.27 58.4533 30.03 58.4233 29.64C58.3933 29.24 58.5233 28.94 58.5933 28.78C58.6633 28.62 58.9533 28.09 58.9633 27.57C58.9633 27.42 59.0133 27.28 58.8833 27.19C58.7033 27.06 58.4333 27.22 58.2733 27.39C58.1133 27.56 58.0433 27.62 57.8833 27.71C57.7733 27.78 56.9833 28.36 56.6833 28.46C56.5233 28.51 56.2433 28.49 56.1133 28.55C55.9933 28.61 55.6533 28.69 55.5433 28.66C55.1633 28.54 54.8433 28.46 54.5533 28.43C54.1633 28.43 53.8933 28.43 53.8433 28.44C53.7633 28.46 53.8433 28.53 53.8233 28.62C53.8033 28.71 53.8333 29.03 53.8533 29.1C53.8833 29.18 53.8133 29.38 53.8233 29.49C53.8333 29.61 53.8633 29.75 53.9533 29.87C54.0433 29.99 53.8233 30.84 53.7333 30.97C53.6433 31.1 53.2933 31.11 53.1733 31.09C53.0433 31.07 52.9033 30.95 52.8033 30.89C52.7033 30.83 52.4633 30.69 52.3933 30.58C52.3433 30.52 51.9133 29.82 51.8633 29.54C51.8433 29.43 51.6633 28.95 51.6033 28.75C51.5433 28.55 51.3933 27.98 51.3833 27.81C51.3733 27.65 51.4033 27.31 51.2933 27.21C51.1333 27.08 50.4733 27.51 50.3133 27.65C50.1533 27.79 49.9633 28.08 49.8533 28.19C49.7433 28.29 49.4533 28.43 49.2933 28.41C49.1333 28.38 48.7533 27.76 48.8033 27.29C48.8133 27.08 48.8133 26.94 48.8933 26.81C48.9733 26.68 49.2233 26.57 49.2433 26.52C49.3333 26.44 49.8633 26.06 49.7833 26.12C49.7033 26.17 50.1733 25.76 50.4933 25.41C50.5433 25.38 50.8033 25 50.8633 24.96C50.9333 24.92 51.2733 24.63 51.3233 24.58C51.3733 24.53 51.5933 24.09 51.6533 24C51.7133 23.91 52.0733 23.39 52.0033 23.18C51.9733 23.09 51.9633 23.03 51.8733 22.94C51.7833 22.86 51.7133 22.69 51.8733 22.61C52.0333 22.53 52.6033 22.86 52.6633 23C52.6933 23.08 52.9733 23.46 52.9433 23.65C52.9133 23.84 52.8133 23.96 52.7933 24.12C52.7833 24.29 52.7233 24.49 52.7233 24.54C52.7233 24.59 52.6133 25.01 52.5633 25.1C52.5133 25.19 52.4933 25.53 52.5733 25.66C52.6633 25.78 52.8333 25.95 52.9533 26.39C53.0933 26.66 53.5233 26.97 53.6733 26.93C53.8833 26.89 54.7033 26.51 54.7933 26.45C54.8833 26.39 55.9533 25.89 56.0833 25.8C56.3733 25.63 56.7233 25.49 57.1233 25C57.3333 24.81 57.9133 24.64 58.0833 24.57C58.2533 24.5 58.4233 24.28 58.5933 24.14C58.7633 24 59.0333 24.03 59.2733 23.89C59.2933 23.6 59.4133 23.45 59.4533 23.34C59.4933 23.23 59.5033 23.12 59.5433 23.02C59.5833 22.91 59.6233 22.25 59.7433 22.17C59.8633 22.09 60.4433 22.29 60.4433 22.32C60.7533 22.46 60.8233 22.7 60.7833 23.02C60.7633 23.17 60.6833 23.34 60.7633 23.52C60.8133 23.55 60.9133 23.78 60.9233 23.89C60.9433 24 60.7933 24.52 60.7833 24.66C60.7733 24.8 60.7033 25.16 60.6233 25.25C60.2533 25.96 60.5133 27.09 60.5133 27.43C60.5333 27.51 60.4233 27.74 60.3733 27.84Z" fill="black"/>
<path d="M73.1533 22.11C73.2533 22.07 73.3933 22.32 73.5333 22.33C73.6733 22.34 74.1433 22.15 74.3933 22.45C74.4833 22.56 74.6033 23.05 74.4633 23.42C74.3533 23.58 74.3033 23.67 74.2733 23.72C74.2433 23.77 74.1333 23.8 74.0633 24.01C74.5233 24.04 74.8133 24.07 75.1733 24.09C75.5233 24.11 76.1933 24.19 76.5133 24.3C76.8433 24.4 76.8833 24.64 76.9933 24.75C77.1033 24.86 77.1433 25.15 77.1833 25.35C77.2233 25.55 77.1033 25.72 77.0233 25.98C76.9733 26.01 76.7033 26.45 76.6833 26.45C76.6833 26.48 76.5133 26.77 76.2633 26.72C76.0133 26.67 75.9933 26.7 75.8233 26.74C75.7133 26.77 75.5733 26.65 75.5533 26.6C75.4233 26.57 75.4133 26.49 75.2033 26.45C75.0533 26.42 74.7733 26.16 74.6333 26.05C74.5033 25.95 74.5033 26 74.2333 25.9C74.1733 25.88 74.0833 25.78 74.0033 25.72C73.9233 25.65 73.8133 25.62 73.7833 25.56C73.7033 25.44 73.7433 25.11 73.6433 25.13C73.5933 25.14 73.5833 25.65 73.6333 25.76C73.6833 25.87 73.7633 25.81 73.8033 25.9C73.8433 25.99 73.8033 26.22 73.8333 26.32C73.8733 26.48 73.8633 26.85 73.8333 26.85C73.8333 26.9 73.7233 27.09 73.6733 27.33C73.6233 27.56 73.4933 28.01 73.5333 28.45C73.4933 28.68 73.4233 28.7 73.4133 28.76C73.4033 28.82 73.4033 28.98 73.3733 28.98C73.2833 29.07 73.3033 29.05 73.2533 29.12C73.2033 29.2 73.1333 29.26 73.0433 29.24C72.9433 29.21 72.9433 29.08 72.7233 29.13C72.7233 29.16 72.5733 29.29 72.4733 29.3C72.3733 29.31 72.3833 29.3 72.3233 29.24C72.2633 29.18 72.1633 29.19 72.0733 29.11C71.9833 29.02 72.0433 28.75 72.0633 28.68C72.0733 28.63 72.0533 28.56 72.0333 28.47C72.0233 28.37 72.0233 28.24 72.0233 28.09C72.0333 27.8 72.0833 27.55 72.0933 27.43C72.0833 27.3 72.1933 27.08 72.2333 26.9C72.2833 26.68 72.2033 26.63 72.2633 26.47C72.3233 26.32 72.3733 26.3 72.4433 26.19C72.5033 26.08 72.5233 25.92 72.5233 25.78C72.5533 25.78 72.7033 24.65 72.7633 24.41C72.8133 24.17 72.9133 23.58 72.9133 23.34C72.9133 23.11 73.0633 22.93 73.0933 22.75C73.1033 22.53 73.0533 22.15 73.1533 22.11Z" fill="black"/>
<path d="M88.6833 22.8799C88.6433 22.9399 88.4433 23.13 88.3133 23.21C88.1833 23.28 88.1133 23.46 88.0933 23.58C88.0633 23.99 88.2433 24.17 88.2833 24.27C88.3233 24.37 88.3233 24.5399 88.3333 24.6499C88.3433 24.7599 88.2833 25.05 88.2533 25.14C88.2233 25.24 88.1333 25.4299 88.0133 25.5099C87.8933 25.5799 86.9133 25.88 86.8233 25.92C86.7333 25.96 86.5933 26.0099 86.5533 26.0099C86.5533 26.0399 85.3833 26.21 85.2033 26.24C85.0233 26.3 84.3633 26.3999 84.3633 26.3699C84.3133 26.3699 83.9033 26.3099 83.9033 26.3099C83.8233 26.2799 83.7033 26.29 83.6033 26.14C83.5033 25.99 83.4633 25.9699 83.3133 25.8099C83.2633 25.7799 83.1333 25.67 83.0533 25.58C82.9733 25.49 82.8733 25.2099 82.8733 25.0999C82.8533 25.0999 82.7733 24.6599 82.7733 24.4299C82.7733 24.1899 82.7733 23.98 82.8033 23.67C82.8333 23.67 82.8633 23.0799 82.8333 22.8999C82.8033 22.7199 82.6533 22.24 82.8033 22.2C82.9133 22.14 83.1933 22.2999 83.4733 22.4399C83.5233 22.4699 83.7733 22.61 84.0833 22.46C84.4833 22.24 85.1033 22.2 85.2633 22.14C85.4233 22.08 86.0233 21.89 86.2333 21.83C86.4533 21.77 86.8133 21.73 86.9733 21.7C87.1333 21.68 88.1833 21.7099 88.4933 22.0099C88.7133 22.2299 88.7333 22.3899 88.7433 22.4999C88.7533 22.6699 88.7133 22.8199 88.6833 22.8799ZM86.0433 23.95C86.0633 23.79 86.1933 23.5799 86.2933 23.4699C86.3933 23.3599 87.0633 22.9499 86.3333 23.3099C85.8233 23.3999 85.8833 23.5899 85.6633 23.6899C85.4433 23.7899 85.1933 23.8099 85.0633 23.8099C84.9333 23.8099 84.0733 23.8699 84.0133 23.9699C83.9533 24.0699 84.0033 24.4499 84.0033 24.5099C84.0033 24.5799 84.0433 24.6599 84.2033 24.6899C84.3633 24.7099 84.5333 24.6299 84.7233 24.5699C84.9133 24.5099 84.9833 24.4899 85.1133 24.4399C85.2433 24.3999 85.2633 24.3899 85.5133 24.3499C85.6233 24.3499 85.7033 24.2799 85.7933 24.2499C85.8633 24.2299 86.0233 24.11 86.0433 23.95Z" fill="black"/>
<path d="M95.4134 31.02C95.5634 31.05 95.6633 31.25 95.6933 31.32C95.7233 31.38 95.8033 31.57 95.8233 31.81C95.8433 32.06 95.9833 32.65 96.0033 32.86C96.0233 33.07 96.1233 33.26 96.1533 33.29C96.1833 33.31 96.3633 33.32 96.5233 33.28C96.6433 33.25 96.7733 33.21 96.8333 33.16C96.8933 33.11 97.3133 32.98 97.5233 32.95C97.5233 32.92 98.5634 32.9 98.7934 32.88C99.0334 32.86 99.3233 32.81 99.5833 32.78C99.8433 32.75 100.853 32.55 100.933 32.55C100.933 32.52 101.613 32.48 101.703 32.48C101.793 32.49 103.333 32.49 103.333 32.52C103.443 32.52 103.653 32.56 103.753 32.56C104.093 32.56 104.353 32.44 104.483 32.42C104.613 32.4 105.483 32.28 105.713 32.28C105.943 32.28 106.923 32.64 106.953 32.69C107.053 32.72 107.513 32.99 107.593 33.08C107.673 33.17 107.673 33.18 107.773 33.28C107.873 33.38 108.283 33.52 108.073 33.63C108.073 34.08 108.243 34.27 108.243 34.35C108.243 34.43 107.993 34.37 107.993 34.34C107.913 34.34 107.733 34.28 107.703 34.35C107.683 34.39 107.703 34.55 107.643 34.64C107.593 34.7 107.473 34.68 107.433 34.73C107.353 34.84 107.503 35 107.443 35.08C107.383 35.16 107.163 35.22 107.273 35.33C107.423 35.47 107.033 35.49 106.883 35.51C106.883 35.54 105.883 35.39 105.713 35.33C105.543 35.27 104.673 35.16 104.673 35.13C104.623 35.13 103.753 34.9 103.373 34.86C102.993 34.81 102.503 34.81 102.153 34.81C101.803 34.82 101.073 34.87 100.493 34.89C100.203 34.89 100.023 34.93 99.5534 34.96C99.0834 34.99 98.6033 35.09 98.1333 35.12C98.1333 35.15 96.9433 35.16 96.7133 35.2C96.4833 35.23 96.1634 35.34 95.9834 35.3C95.7934 35.26 95.6433 35.26 95.5333 35.2C95.4233 35.13 95.3333 35.01 95.2533 34.91C95.2233 34.91 95.0733 34.53 95.0333 34.33C94.9933 34.13 95.0333 33.86 94.9433 33.58C94.8533 33.3 94.5834 32.65 94.5434 32.5C94.5034 32.35 94.5533 32.41 94.5333 32.22C94.5133 32.03 94.3434 31.96 94.4134 31.77C94.4534 31.71 94.4933 31.74 94.5333 31.63C94.5733 31.49 94.5634 31.3 94.6034 31.19C94.6434 31.08 94.8333 30.97 94.9633 30.94C95.1033 30.97 95.2634 30.99 95.4134 31.02ZM94.6634 30.89C94.5234 30.9 94.0334 30.9 93.9734 30.89C93.9134 30.88 93.8333 30.78 93.8133 30.69C93.8133 30.58 93.7833 30.05 93.7833 30.05C93.7833 30.05 93.7734 29.93 93.7234 29.86C93.6734 29.79 93.5234 29.4 93.5534 29.28C93.5834 29.16 93.5834 29 93.7234 28.86C93.8734 28.72 94.5234 28.73 94.6134 28.74C94.7034 28.75 94.6633 28.84 94.6933 28.9C95.0933 28.97 95.3634 28.95 95.4834 28.89C95.6034 28.83 95.4833 28.39 95.6833 28.13C95.7633 28.02 95.8434 27.97 95.8534 27.92C95.8534 27.88 95.8634 27.84 95.8634 27.74C95.8534 27.43 95.8434 26.89 95.8034 26.75C95.7534 26.57 95.6734 26.04 95.6034 25.58C95.3334 25.56 94.7134 25.84 94.6034 25.78C94.4634 25.72 94.4234 25.51 94.3034 25.41C94.1534 25.36 94.2033 25.27 94.1333 25.23C94.0633 25.19 93.7834 25.1 93.7934 24.97C93.8034 24.84 93.9834 24.75 94.1134 24.74C94.3034 24.71 94.7133 24.53 94.7133 24.51C94.7933 24.48 95.0133 24.26 95.1333 24.19C95.2533 24.11 95.6734 23.97 95.6734 23.94C95.7234 23.94 96.6333 23.61 96.7033 23.6C96.7833 23.58 97.2633 23.37 97.4533 23.3C97.6433 23.24 98.3333 23.13 98.5133 23.11C98.6933 23.09 98.8533 23.09 99.0933 23.12C99.3333 23.15 100.093 23.55 100.263 23.82C100.433 24.09 100.643 24.91 100.613 24.99C100.573 25.07 100.353 25.31 100.313 25.37C100.273 25.43 100.263 25.5 100.243 25.57C100.223 25.64 100.103 25.67 100.053 25.79C100.023 25.85 100.013 26.91 100.003 27.06C99.9833 27.21 99.8833 27.28 99.8333 27.5C100.073 27.5 100.453 27.41 100.603 27.35C100.753 27.29 101.673 27.01 101.833 27C101.993 26.99 102.343 27.03 102.443 27.11C102.543 27.18 102.693 27.21 102.913 27.26C102.903 26.66 102.963 25.94 102.993 25.76C103.003 25.69 103.073 25.46 103.093 25.21C103.123 24.83 103.073 24.36 103.093 24.22C103.133 24 103.253 23.6 103.283 23.46C103.313 23.32 103.403 22.71 103.493 22.58C103.583 22.45 103.723 22.46 103.773 22.38C103.833 22.29 104.073 22.34 104.173 22.32C104.273 22.3 104.353 22.23 104.563 22.21C104.773 22.19 104.963 22.26 105.063 22.38C105.163 22.5 105.153 22.77 105.113 22.91C105.073 23.04 105.113 22.95 105.013 23.09C104.893 23.17 104.943 23.28 104.993 23.43C105.043 23.46 105.073 23.48 105.093 23.58C105.083 23.73 104.993 23.93 104.983 24.04C104.943 24.35 104.963 24.42 104.973 24.52C104.983 24.62 104.963 24.74 104.953 24.79C104.943 24.85 104.823 24.93 104.763 25.03C104.843 25.03 105.003 25 105.083 25C105.293 24.76 105.823 24.83 106.113 24.93C106.213 24.93 106.913 25.19 107.053 25.24C107.193 25.29 107.373 25.56 107.473 25.64C107.573 25.72 107.663 25.79 107.773 25.91C107.873 26.03 108.023 26.29 108.053 26.41C108.093 26.54 107.933 26.76 107.933 26.86C107.933 26.95 107.973 26.98 107.973 27.1C107.973 27.22 107.953 27.14 107.853 27.33C107.753 27.52 107.753 27.61 107.723 27.68C107.693 27.75 107.543 27.91 107.453 28.01C107.363 28.11 107.103 28.13 107.013 28.09C106.923 28.05 106.633 27.82 106.263 27.84C105.893 27.86 105.433 27.51 105.233 27.36C104.953 27.16 104.733 26.4 104.703 26.39C104.663 26.38 104.583 26.2 104.493 26.29C104.423 26.55 104.463 26.58 104.323 26.77C104.213 26.91 104.103 26.94 104.093 27.19C104.083 27.44 104.343 27.62 104.363 27.78C104.393 27.94 104.313 28.05 104.403 28.2C104.493 28.34 104.423 28.51 104.423 28.65C104.423 28.78 104.373 29.3 104.253 29.54C104.173 29.7 104.133 29.75 104.103 30.01C104.063 30.26 104.103 30.34 104.103 30.61C104.073 30.61 104.193 31.77 104.123 31.92C104.053 32.06 104.003 32.3 103.893 32.24C103.773 32.18 103.633 31.87 103.513 31.85C103.393 31.83 103.353 32.19 103.173 32.13C102.993 32.07 102.903 31.82 102.823 31.71C102.743 31.6 102.713 31.54 102.583 31.36C102.443 31.17 102.503 30.61 102.543 30.39C102.583 30.16 102.613 29.83 102.663 29.27C102.583 29.27 102.463 29.3 102.313 29.3C102.173 29.3 101.463 29.33 101.303 29.33C101.143 29.32 100.453 29.39 100.273 29.41C100.103 29.42 99.3433 29.58 99.1933 29.61C99.0333 29.64 98.7633 29.74 98.6833 29.83C98.6533 29.91 98.5534 29.95 98.4734 29.99C98.3934 30.03 97.5434 30.31 97.2334 30.33C96.1634 30.4 94.8734 30.9 94.6634 30.89ZM97.1933 28.41C97.3233 28.46 97.7134 28.16 98.1034 28.2C98.0734 28.07 97.9833 27.9 97.9633 27.82C97.9433 27.74 98.0334 27.08 98.0534 27.02C98.0534 26.92 98.1133 26.83 98.2833 26.63C98.4633 26.42 98.5233 26.29 98.6333 26.03C98.8133 25.56 98.7033 25.1 98.6533 24.63C98.5433 24.35 98.2433 24.42 98.0733 24.41C97.9033 24.4 97.4733 24.53 97.3233 24.6C97.1733 24.68 96.8333 24.84 96.7833 24.92C96.7833 25.03 96.8433 25.15 96.9333 25.16C97.0233 25.18 97.1333 25.18 97.2533 25.26C97.3733 25.34 97.6633 25.71 97.6933 25.79C97.7233 25.87 97.7434 26.02 97.6734 26.07C97.6534 26.09 97.5833 26.2 97.5633 26.31C97.5133 26.59 97.5034 27.01 97.4834 27.01C97.4834 27.22 97.3834 27.6 97.3634 27.6C97.2634 27.88 97.0633 28.35 97.1933 28.41Z" fill="black"/>
<path d="M92.0533 27.21C92.0033 27.23 92.0933 27.28 92.0533 27.35C92.0133 27.43 91.8233 27.37 91.7233 27.46C91.7233 27.51 91.6033 27.55 91.5733 27.55C91.5033 27.5 91.3433 27.52 91.3433 27.5C91.1833 27.5 90.9333 27.45 90.8233 27.45C90.7033 27.44 89.8433 27.47 89.7133 27.48C89.5733 27.49 88.1533 27.65 87.5733 27.75C87.2933 27.79 87.1633 27.81 87.0033 27.9C86.8433 27.99 86.4833 28.31 86.4533 28.89C86.7933 28.86 87.3533 28.7 87.7833 28.82C87.7833 28.85 88.2233 28.88 88.4533 28.8C88.5333 28.78 88.7133 28.74 88.8833 28.74C89.0633 28.74 89.2433 28.82 89.3133 28.84C89.5033 28.89 89.6033 28.95 89.6833 29.01C89.7733 29.06 89.7533 29.16 89.7733 29.31C89.7033 29.51 89.7133 29.78 89.5533 29.87C89.3933 29.96 89.1433 30.02 89.0433 30.12C88.8433 30.3 88.7633 30.58 88.9233 30.81C89.0933 31.04 88.8833 31.07 88.8933 31.13C88.9033 31.19 88.9233 31.22 88.8833 31.29C88.8533 31.34 88.7833 31.32 88.7533 31.39C88.7233 31.46 88.8533 31.52 88.8533 31.57C88.8533 31.62 88.7033 31.64 88.7033 31.66C88.7133 31.73 88.8133 31.71 88.8133 31.73C88.8633 31.73 88.8233 31.77 88.8733 31.83C88.9233 31.89 88.8733 31.98 88.8333 32.01C88.7933 32.04 88.7733 32.06 88.7233 32.06C88.7233 32.11 88.7133 32.19 88.4833 32.19C88.4333 32.19 88.2533 32.18 87.8733 32.24C87.4933 32.3 86.8133 32.37 86.2933 32.56C85.7733 32.75 85.1733 33.02 85.0533 33.13C84.9433 33.24 84.8633 33.31 84.6533 33.38C84.4433 33.45 83.9633 33.5 83.8633 33.52C83.7633 33.53 83.6433 33.56 83.5533 33.68C83.4633 33.79 83.7833 34.24 83.9833 34.29C84.1733 34.35 84.2933 34.27 84.4233 34.27C84.5533 34.27 84.6833 34.23 84.7433 34.21C84.8033 34.19 84.9633 34.11 85.0433 34.09C85.1133 34.06 85.2933 34.02 85.3833 34C85.4733 33.98 86.1933 33.8 86.5433 33.74C86.8933 33.67 88.0533 33.46 88.4233 33.46C88.4233 33.43 89.5133 33.47 89.6733 33.47C89.8333 33.48 90.1233 33.57 90.2133 33.62C90.3133 33.67 90.6633 33.75 90.7433 33.78C90.8133 33.8 90.9533 33.89 91.0733 33.97C91.1933 34.05 91.3833 34.25 91.3633 34.32C91.3433 34.39 91.2833 34.41 91.2333 34.48C91.1833 34.54 91.2033 34.67 91.1933 34.72C91.1933 34.76 91.1233 35.09 91.1033 35.09C90.9533 35.35 90.9133 35.38 90.6233 35.55C90.6233 35.58 90.3833 35.75 90.2633 35.74C90.1833 35.72 90.0633 35.81 89.9633 35.81C89.8733 35.81 89.6833 35.76 89.5933 35.73C89.5033 35.7 89.1433 35.69 89.1433 35.69C89.1433 35.69 88.2933 35.52 88.1033 35.52C87.9133 35.52 87.0633 35.67 86.7633 35.68C86.4633 35.69 86.2233 35.71 85.8533 35.71C85.4233 35.71 84.3433 35.9 83.8633 35.81C83.5233 35.77 83.3133 35.44 83.3133 35.16C83.2733 35.06 83.2133 34.88 83.0733 34.78C82.9433 34.68 82.5933 34.49 82.5933 34.43C82.4933 34.35 82.2733 33.99 82.1733 33.85C82.0733 33.71 81.8433 33.54 81.8133 33.46C81.7633 33.43 81.5533 33.14 81.5633 33.02C81.5333 32.98 81.4433 32.84 81.4933 32.71C81.5733 32.56 81.7233 32.56 81.7233 32.35C81.7033 32.31 81.5833 32.33 81.6433 32.19C81.6633 32.19 81.7033 32.05 81.7333 32.05C81.8133 31.95 81.8533 31.97 81.8833 31.95C81.9133 31.93 81.9533 31.84 82.1533 31.94C82.5633 32.11 83.2433 32.02 83.3533 31.98C83.4633 31.94 84.0333 31.7 84.1433 31.65C84.2533 31.61 85.1433 31.24 85.5533 31.13C85.9533 31.01 86.9533 30.8 87.0333 30.78C87.1133 30.76 87.2333 30.71 87.2633 30.66C87.3133 30.66 87.4033 30.47 87.4433 30.39C87.4833 30.31 87.6633 30.22 87.7233 30.19C87.7833 30.16 87.9733 30.07 87.9933 30.01C88.0133 29.95 87.9833 29.94 87.9533 29.94C87.4233 30.05 87.0333 29.88 86.6433 30C86.2533 30.12 86.0633 30.18 85.9633 30.23C85.7433 30.34 85.0033 30.65 84.8833 30.75C84.7633 30.86 84.6533 30.98 84.5433 31.02C84.4333 31.06 84.0633 31.1 83.9333 31.07C83.7933 31.04 83.6433 30.95 83.3533 31C83.0533 31.05 82.5033 31.25 82.2633 30.98C82.2433 30.94 82.1733 30.91 82.1433 30.79C82.1133 30.68 81.9933 30.64 82.0933 30.46C82.1933 30.27 82.2933 30.28 82.3033 30.08C82.2733 29.96 82.4233 29.86 82.4733 29.84C82.5233 29.82 82.6933 29.83 82.8233 29.82C82.9433 29.81 83.0233 29.76 83.1333 29.71C83.2433 29.66 83.6333 29.63 83.8233 29.61C84.0033 29.59 84.2133 29.57 84.4033 29.5C84.5933 29.42 84.7533 29.35 84.9133 29.32C84.9133 28.8 85.0533 28.74 85.2233 28.38C84.9033 28.43 83.7533 28.76 83.5433 28.81C83.3333 28.85 82.5033 29.07 82.4233 29.07C82.4233 29.1 81.7033 29.15 81.4933 29.2C81.2833 29.26 81.0633 29.44 80.9333 29.49C80.8133 29.54 80.7333 29.46 80.6233 29.51C80.5133 29.56 80.1733 29.59 80.0633 29.56C79.9833 29.54 79.7933 29.53 79.7633 29.52C79.7133 29.5 79.3533 29.36 79.2133 29.36C78.9333 29.3 78.1133 29.33 77.8433 29.42C77.3633 29.56 77.3633 29.51 77.2733 29.31C77.2433 29.23 77.2733 29.11 77.3133 29C77.3533 28.88 77.3933 28.72 77.4133 28.56C77.4433 28.4 77.3133 28.09 77.4433 27.99C77.5733 27.89 77.6533 27.91 77.7833 27.88C77.9033 27.85 77.9133 27.85 78.1333 27.81C78.3533 27.77 79.4233 27.74 79.5733 27.72C79.6233 27.71 80.8833 27.65 81.2733 27.46C81.3633 27.41 81.5533 27.29 81.8233 27.2C82.0833 27.11 82.8433 27.06 83.0033 27.03C83.1633 26.99 84.4533 26.75 84.6533 26.7C84.8633 26.65 85.6433 26.44 85.9633 26.37C86.2733 26.3 86.6533 26.26 86.9033 26.23C87.1533 26.19 89.5733 25.92 89.7433 25.92C89.9133 25.92 90.3833 25.84 90.4333 25.83C90.4833 25.82 90.7033 25.85 90.8433 25.85C90.9833 25.86 91.3333 25.94 91.6133 26.06C91.6733 26.09 91.7333 26.1 92.0733 26.26C92.2633 26.35 92.3833 26.87 92.3133 26.92C92.2433 26.97 92.0233 26.85 92.0133 26.97C92.0433 27.06 92.2133 26.96 92.2433 27.06C92.2733 27.11 92.1033 27.19 92.0533 27.21Z" fill="black"/>
<path d="M36.5133 21.46C36.5433 21.43 36.6533 21.42 36.7033 21.44C36.7533 21.46 37.0433 21.68 37.1033 21.75C37.1633 21.83 37.5633 22.49 37.5833 22.58C37.6033 22.68 37.7733 22.78 37.8433 22.9C37.9133 23.01 37.9933 23.12 38.0833 23.3C38.3133 23.21 38.8033 23.08 38.9433 23.06C39.0933 23.04 39.6733 23 39.6733 22.98C39.8333 22.98 40.1133 22.93 40.2133 22.91C40.3233 22.9 40.7133 22.8 40.9833 22.81C41.2533 22.82 41.7033 22.96 41.7833 22.98C41.9833 23.1 41.8533 23.4 41.8633 23.5C41.8733 23.59 42.0933 23.81 42.0533 23.93C42.0033 23.96 41.8833 24.09 41.8333 24.12C41.8633 24.2 41.9633 24.32 41.7933 24.35C41.6233 24.38 41.4333 24.31 41.4333 24.29C41.3833 24.29 41.3833 24.26 41.0833 24.18C40.7933 24.1 40.3033 23.99 40.1533 24.08C39.9933 24.17 39.7833 24.39 39.6533 24.47C39.5233 24.55 39.1233 24.65 38.8733 24.76C38.6233 24.88 38.0833 25.07 38.0933 25.44C38.2333 25.43 38.6533 25.59 38.8733 25.75C39.0433 25.93 39.0833 26.24 39.0833 26.33C39.0833 26.43 39.0833 26.9 39.0833 26.96C39.0833 27.02 39.0233 27.8 38.8733 27.98C38.7233 28.16 38.1833 28.85 37.8333 29.14C37.7933 29.17 37.6933 29.22 37.6533 29.28C37.6033 29.35 37.5433 29.42 37.4633 29.47C37.3033 29.55 37.0933 29.56 37.0433 29.67C36.9933 29.78 37.1633 29.86 37.1933 29.9C37.2233 29.93 37.4433 30.09 37.4833 30.12C37.5233 30.15 37.6733 30.34 37.7233 30.37C37.7733 30.4 37.8833 30.47 37.9433 30.48C38.0133 30.5 38.9533 30.45 39.0333 30.44C39.1133 30.42 39.4833 30.37 39.5733 30.34C39.6633 30.31 40.5033 30.19 40.5733 30.19C40.5733 30.17 41.0833 30.19 41.4233 30.29C41.5933 30.34 41.6533 30.53 41.6833 30.57C41.7133 30.61 41.7533 30.75 41.7633 30.8C41.7733 30.85 41.7533 31 41.7333 31.07C41.7233 31.13 41.6033 31.19 41.6133 31.27C41.6333 31.34 41.6133 31.41 41.6133 31.42C41.6133 31.44 41.5033 31.5 41.4433 31.51C41.3833 31.52 41.2733 31.53 41.2033 31.54C41.1333 31.56 40.8233 31.57 40.7733 31.58C40.7233 31.59 40.1033 31.66 40.1633 31.64C40.2233 31.63 38.9033 31.76 38.8133 31.79C38.7133 31.83 38.2833 31.9 38.2133 31.93C38.1433 31.95 37.8933 31.99 37.8233 32.01C37.7533 32.03 36.8933 32.12 36.7733 32.16C36.6533 32.2 36.0033 32.45 35.9033 32.5C35.8033 32.55 35.7033 32.62 35.6333 32.67C35.5533 32.72 35.5033 32.79 35.3033 32.89C35.0933 32.96 34.6133 33.02 34.4833 32.99C34.3533 32.96 33.9933 32.82 33.8633 32.66C33.7333 32.5 33.7233 31.85 33.7433 31.85C33.7733 31.73 33.7833 31.66 33.8233 31.62C33.8633 31.58 33.9133 31.54 33.9433 31.52C33.9733 31.5 34.0133 31.47 34.0433 31.42C34.2833 31.28 34.2933 31.46 34.4133 31.48C34.5233 31.5 34.7433 31.5 34.8133 31.43C34.8833 31.35 35.1733 31.14 35.2833 31.09C35.5833 30.94 35.8433 30.78 36.0733 30.58C35.9933 30.36 35.8333 30.1 35.9033 29.76C35.9133 29.74 35.9833 29.65 35.9533 29.51C35.9033 29.34 35.9033 29.32 35.7833 29.15C35.6633 28.98 35.4133 28.71 35.3933 28.58C35.3533 28.5 35.3433 28.3 35.3233 28.15C35.3133 28 35.2733 27.8 35.2833 27.71C35.2833 27.63 35.3833 27.23 35.4033 27.08C35.4133 26.93 35.4233 26.94 35.4533 26.77C35.5333 26.42 35.6233 26.27 35.8133 26.14C35.4733 26.28 35.0233 26.28 34.9933 26.28C34.9533 26.28 34.1433 26.3 33.9933 26.29C33.8433 26.29 33.1133 26.45 33.0433 26.47C32.9733 26.49 32.7133 26.43 32.6733 26.41C32.6333 26.4 32.4933 26.4 32.4033 26.29C32.3133 26.17 32.2533 25.8 32.2833 25.67C32.3133 25.54 32.6533 25.3 32.6233 25.08C32.5833 24.99 32.4233 24.95 32.4833 24.86C32.5433 24.77 32.7533 24.71 32.9033 24.66C32.9533 24.64 33.4533 24.49 33.6133 24.48C33.7533 24.47 33.1133 24.75 33.3233 24.81C33.4633 24.84 33.6033 24.66 33.7833 24.62C33.9533 24.58 34.4233 24.4 34.5233 24.38C34.6233 24.36 34.8433 24.27 34.9433 24.24C35.0433 24.21 35.2233 24.18 35.3933 24.13C35.5633 24.08 35.6033 23.96 35.7133 23.96C36.1633 23.74 35.7833 23.76 35.7533 23.68C35.7233 23.6 35.7233 23.6 36.0133 23.55C36.2633 23.51 36.5633 23.55 36.6733 23.58C36.7733 23.54 36.5533 23.3 36.5433 23.19C36.5333 23.09 36.5333 22.88 36.4433 22.76C36.3433 22.64 36.2333 22.49 36.1533 22.34C36.0633 22.22 36.0633 21.95 36.1033 21.85C36.1433 21.77 36.1333 21.72 36.2233 21.67C36.3433 21.6 36.4433 21.62 36.4733 21.58C36.4833 21.55 36.4833 21.49 36.5133 21.46ZM37.0133 26.61C36.8633 26.82 36.5733 26.87 36.3833 27.28C36.3733 27.31 36.3533 27.36 36.3433 27.38C36.3333 27.4 36.3333 27.46 36.3533 27.51C36.3633 27.55 36.4833 27.6 36.6033 27.65C36.6833 27.69 36.8133 27.66 36.9133 27.71C37.0033 27.75 37.1233 27.82 37.2033 27.96C37.2833 28.1 37.4733 28.07 37.5833 28.06C37.6833 28.05 37.7533 27.95 37.8233 27.88C37.8833 27.81 38.0033 27.71 38.0133 27.56C38.0433 27.33 38.1833 26.96 38.0833 26.79C37.9933 26.62 37.9933 26.25 37.9333 26.14C37.9333 26.11 37.8933 26.05 37.8133 26.01C37.7333 25.96 37.6533 25.99 37.5733 26.01C37.3933 26.11 37.1733 26.38 37.0133 26.61Z" fill="black"/>
<path d="M69.1633 22.5399C69.3133 22.5599 69.3733 22.5499 69.5133 22.6099C69.6433 22.6599 69.6933 23.08 69.7833 23.27C69.8433 23.39 70.0133 23.5399 69.8133 23.7199C69.6733 23.8599 69.5933 24.0699 69.5533 24.1899C69.5233 24.3099 69.4933 24.8599 69.4733 25.0799C69.4433 25.2999 69.3233 25.9699 69.4033 26.0799C69.4833 26.1899 69.5633 26.1499 69.6733 26.3099C69.7833 26.4699 69.8633 26.5999 69.9033 26.7599C69.9533 26.9299 70.0433 27.1799 70.0233 27.2899C69.9933 27.3999 69.9633 27.35 69.9333 27.46C69.9033 27.57 69.9233 27.7399 69.8833 27.8799C69.8333 28.0199 69.6333 28.3899 69.5033 28.4499C69.3833 28.5099 69.1933 28.6399 69.0533 28.6899C68.6933 28.8199 68.1633 29.2099 68.0733 29.2799C67.9833 29.3499 67.6233 29.4499 67.4933 29.4799C67.3633 29.5099 66.5933 29.7299 66.5033 29.7499C66.4033 29.7699 65.6433 30.04 65.3833 30.05C65.1233 30.06 64.8233 29.96 64.7533 29.8C64.6933 29.66 64.7733 29.4999 64.8033 29.3499C64.8333 29.1299 64.8133 28.9499 64.8133 28.9799C64.7933 29.1099 64.8633 28.63 64.7533 28.49C64.6633 28.41 64.4533 28.3799 64.3333 28.2799C64.2233 28.1899 64.0133 27.8799 63.9333 27.7299C63.8533 27.5799 63.7233 27.3299 63.6133 27.0899C63.5033 26.8499 63.3033 25.66 63.2733 25.49C63.2433 25.32 63.0633 24.5099 63.0633 24.2799C63.0733 24.0599 63.0633 23.4899 63.0133 23.4099C62.9633 23.3299 62.9333 23.3699 62.7933 23.2799C62.7133 23.1799 62.6533 23.0699 62.7133 22.9299C62.7533 22.8499 62.7533 22.7099 62.8133 22.6999C62.9333 22.6699 63.4633 23.0699 63.5133 23.1299C63.5633 23.1899 63.6733 23.3699 63.6933 23.4799C63.7433 23.5099 64.0533 24.3499 64.0833 24.4299C64.1233 24.5099 64.2133 24.9699 64.3333 24.9699C64.5333 24.9599 64.6933 24.6499 65.0933 24.5899C65.2533 24.5499 65.9133 24.4899 66.0833 24.4699C66.2433 24.4399 66.5833 24.29 66.7133 24.27C66.7133 24.24 67.1333 24.2499 67.3633 24.1899C67.6033 24.1299 67.6833 23.9199 67.9333 23.8499C68.0733 23.8099 68.1833 23.9199 68.2833 23.8899C68.3433 23.8699 68.3433 23.7899 68.3833 23.7199C68.4133 23.6799 68.4833 23.6199 68.5133 23.5599C68.5833 23.4099 68.5033 23.17 68.5433 23.05C68.5733 22.93 68.6533 22.9199 68.6733 22.8299C68.6933 22.7499 68.6833 22.67 68.7833 22.55C68.8333 22.48 69.0233 22.5299 69.1633 22.5399ZM65.0033 26.3799C64.8433 26.4099 65.0533 26.9399 65.1433 27.0599C65.2333 27.1799 65.2333 27.7299 65.3333 27.9799C65.3733 28.0999 65.4033 28.2799 65.4933 28.2899C65.5833 28.3099 65.6133 28.2599 65.7733 28.2199C65.9233 28.1899 66.3333 28.0999 66.4633 28.0099C66.5933 27.9199 66.6033 27.85 66.7733 27.77C66.9333 27.69 67.1233 27.6199 67.2933 27.5699C67.4933 27.4999 67.5433 27.1999 67.5533 27.0999C67.5633 26.9999 67.6133 26.9499 67.6133 26.7899C67.5733 26.5599 67.6933 26.3899 67.6533 26.3699C67.6133 26.3499 67.5633 26.3199 67.5233 26.3299C67.4833 26.3399 67.4933 26.3499 67.3233 26.3799C67.2133 26.3999 67.0533 26.4099 66.9333 26.4399C66.7633 26.4899 66.6933 26.5599 66.5533 26.5999C66.4533 26.6299 66.3533 26.6599 66.2633 26.6599C66.1533 26.6599 65.7933 26.57 65.6833 26.52C65.5633 26.5 65.1533 26.3499 65.0033 26.3799Z" fill="black"/>
<path d="M73.0533 34.64C72.9933 34.7 72.9633 34.74 72.9033 34.8C72.8233 34.88 72.7333 34.85 72.6533 34.89C72.5733 34.94 72.5533 34.99 72.5033 35.02C72.4533 35.06 72.4233 35.08 72.3733 35.13C72.3233 35.18 72.2333 35.27 72.1333 35.3C72.0633 35.33 71.8033 35.34 71.7333 35.34C71.7333 35.34 71.5333 35.35 71.5333 35.33C71.3933 35.31 71.2933 35.15 71.2633 35.13C71.2433 35.11 71.1833 35.03 71.1733 34.98C71.1633 34.96 71.1333 34.89 71.0833 34.82C71.0433 34.76 70.9733 34.73 71.0033 34.64C71.0433 34.55 71.1633 34.43 71.1933 34.39C71.2233 34.35 71.2733 34.11 71.3133 34C71.3433 33.89 71.3933 33.77 71.5733 33.46C71.7533 33.15 72.1933 32.95 72.3233 32.86C72.4533 32.77 72.6533 32.48 72.6833 32.38C72.7833 32.19 72.8533 31.98 72.9333 31.82C72.9633 31.76 73.1233 31.54 73.1233 31.41C73.1233 31.28 73.0733 31.26 72.9633 31.18C72.8233 31.08 72.1133 31.27 71.7933 31.27C71.4833 31.34 70.5033 31.21 70.0533 31.3C69.8433 31.35 69.6733 31.42 69.4933 31.52C69.3133 31.66 68.9733 31.83 68.8233 31.89C68.6033 32.07 67.5733 31.97 67.3633 31.99C67.1433 32.01 66.7533 32.08 66.6633 32.13C66.5733 32.18 66.3133 32.34 66.2233 32.38C66.1333 32.43 66.0033 32.58 65.9233 32.6C65.9233 32.63 65.5033 32.61 65.4333 32.53C65.3533 32.45 65.4133 32.39 65.4333 32.3C65.4533 32.21 65.4533 32.17 65.3933 32.14C65.3933 32.09 65.3233 32.05 65.3333 31.98C65.3433 31.91 65.3933 31.9 65.4533 31.75C65.5033 31.6 65.6833 31.59 65.7033 31.46C65.7333 31.33 65.8833 31.22 65.9933 31.12C66.0433 30.99 66.2033 30.95 66.5133 31.01C66.7033 31.02 66.9933 30.86 67.0633 30.83C67.0633 30.81 67.6333 30.72 68.1833 30.58C68.5133 30.5 69.0033 30.47 69.1233 30.46C69.4633 30.42 69.9133 30.14 70.6233 29.98C71.0633 29.89 71.5733 29.94 71.9633 29.94C72.8433 29.98 74.0833 29.98 74.5933 30.49C74.6833 30.58 74.7833 30.72 74.7733 30.83C74.7633 30.95 74.7033 31.04 74.6033 31.24C74.4733 31.49 74.2933 31.79 74.2733 31.83C74.2333 31.9 74.1033 32.29 74.0733 32.4C74.0433 32.51 73.9233 33.01 73.8533 33.29C73.7833 33.58 73.4933 33.75 73.4233 33.91C73.3533 34.06 73.3433 34.4 73.2633 34.49C73.2233 34.55 73.1333 34.55 73.0533 34.64Z" fill="black"/>
<path d="M55.9033 30.42C55.9333 30.47 55.9033 30.54 55.9733 30.57C56.0433 30.6 56.2933 30.51 56.5133 30.55C56.7333 30.59 57.3133 30.73 57.3733 30.76C57.4333 30.8 57.6433 30.91 57.7033 30.96C57.7633 31.01 58.1133 31.25 58.2433 31.37C58.3633 31.49 58.5733 31.76 58.6533 32.11C58.7333 32.46 58.6633 33.1 58.6233 33.38C58.5833 33.65 58.1733 34.06 58.1133 34.2C58.0533 34.34 58.0633 34.51 57.9033 34.59C57.8133 34.64 57.4633 34.63 57.1933 34.64C57.0333 34.64 56.9433 34.69 56.8433 34.67C56.6933 34.64 56.5333 34.66 56.3433 34.6C56.1833 34.55 55.9933 34.41 55.9033 34.36C55.7133 34.24 55.4733 34 55.3533 33.89C55.2333 33.78 55.0633 33.5 54.9633 33.34C54.8633 33.18 54.6133 32.73 54.6133 32.41C54.6133 32.26 54.7633 31.78 54.8433 31.64C54.9633 31.46 55.0533 31.35 55.1333 31.28C55.1833 31.23 55.2833 31.06 55.3433 31.03C55.3433 30.9 55.3333 30.7 55.4233 30.66C55.5133 30.62 55.6933 30.44 55.7233 30.36C55.8033 30.35 55.8833 30.37 55.9033 30.42ZM55.9533 31.49C55.9033 31.58 55.9233 31.71 55.8633 31.79C55.8033 31.87 55.7433 32.02 55.6433 32.15C55.5433 32.28 55.5433 32.41 55.5933 32.55C55.6433 32.69 55.8033 32.88 55.9833 32.97C56.1533 33.06 56.1833 33.04 56.3933 33.08C56.6033 33.11 56.6633 33.05 56.8733 33.05C56.8733 33.02 57.0633 33.03 57.0933 32.87C57.1333 32.71 57.1033 32.39 56.8933 32.27C56.7533 32.22 56.6033 32.1 56.4733 31.98C56.3033 31.82 56.1733 31.65 56.1533 31.59C56.1233 31.53 56.0033 31.4 55.9533 31.49Z" fill="black"/>
<path d="M45.3965 7.02539L45.6191 7.0293L45.7012 7.47852C45.709 7.50716 45.7168 7.5306 45.7246 7.54883C45.7324 7.56576 45.7402 7.57943 45.748 7.58984C45.7572 7.60026 45.7656 7.60872 45.7734 7.61523C45.7812 7.62044 45.7884 7.625 45.7949 7.62891C45.8236 7.64323 45.8633 7.65951 45.9141 7.67773C45.9648 7.69466 46.0215 7.71094 46.084 7.72656C46.1465 7.74219 46.2116 7.75521 46.2793 7.76562C46.347 7.77604 46.4134 7.78125 46.4785 7.78125C46.5345 7.78125 46.5853 7.77474 46.6309 7.76172C46.6764 7.7487 46.7174 7.73242 46.7539 7.71289C46.7904 7.69336 46.8223 7.67188 46.8496 7.64844C46.8783 7.6237 46.9036 7.60026 46.9258 7.57812C46.9323 7.56641 46.9395 7.55143 46.9473 7.5332C46.9551 7.51367 46.9622 7.49284 46.9688 7.4707C46.9766 7.44727 46.9831 7.42253 46.9883 7.39648C46.9935 7.37044 46.9961 7.34505 46.9961 7.32031C46.9961 7.21875 46.9727 7.13411 46.9258 7.06641C46.8789 6.9974 46.8164 6.9388 46.7383 6.89062C46.6615 6.84245 46.5736 6.80078 46.4746 6.76562C46.377 6.72917 46.2767 6.69271 46.1738 6.65625C46.071 6.61979 45.9701 6.57943 45.8711 6.53516C45.7734 6.48958 45.6855 6.43359 45.6074 6.36719C45.5306 6.30078 45.4688 6.2207 45.4219 6.12695C45.375 6.0319 45.3516 5.91536 45.3516 5.77734C45.3516 5.68099 45.3672 5.5944 45.3984 5.51758C45.4297 5.44076 45.4727 5.3724 45.5273 5.3125C45.582 5.2526 45.6458 5.20117 45.7188 5.1582C45.793 5.11523 45.8724 5.08008 45.957 5.05273C46.043 5.02539 46.1322 5.00521 46.2246 4.99219C46.3171 4.97917 46.4095 4.97266 46.502 4.97266C46.5775 4.97266 46.6445 4.97591 46.7031 4.98242C46.7617 4.98763 46.8184 4.99544 46.873 5.00586C46.9277 5.01497 46.9844 5.02539 47.043 5.03711C47.1016 5.04883 47.168 5.0599 47.2422 5.07031L47.1855 5.84375H46.9766L46.8984 5.51758C46.8919 5.48763 46.8841 5.46289 46.875 5.44336C46.8672 5.42253 46.8574 5.40495 46.8457 5.39062C46.834 5.375 46.821 5.36263 46.8066 5.35352C46.7923 5.3431 46.776 5.33333 46.7578 5.32422C46.7031 5.30208 46.6374 5.28255 46.5605 5.26562C46.485 5.2487 46.4004 5.24023 46.3066 5.24023C46.2285 5.24023 46.1569 5.24544 46.0918 5.25586C46.028 5.26497 45.9733 5.28255 45.9277 5.30859C45.9134 5.32682 45.8958 5.34505 45.875 5.36328C45.8555 5.38151 45.8366 5.40365 45.8184 5.42969C45.8014 5.45573 45.7865 5.48763 45.7734 5.52539C45.7617 5.56185 45.7559 5.60742 45.7559 5.66211C45.7559 5.76888 45.7793 5.85807 45.8262 5.92969C45.873 6 45.9349 6.0599 46.0117 6.10938C46.0885 6.15755 46.1758 6.19857 46.2734 6.23242C46.3711 6.26628 46.4707 6.30013 46.5723 6.33398C46.6751 6.36784 46.7754 6.4056 46.873 6.44727C46.9707 6.48763 47.0579 6.53841 47.1348 6.59961C47.2116 6.66081 47.2734 6.73633 47.3203 6.82617C47.3672 6.91602 47.3906 7.02669 47.3906 7.1582C47.3906 7.32487 47.3574 7.46549 47.291 7.58008C47.2246 7.69336 47.1348 7.78451 47.0215 7.85352C46.9082 7.92253 46.7767 7.97201 46.627 8.00195C46.4785 8.0319 46.3216 8.04688 46.1562 8.04688C46.0898 8.04688 46.0195 8.04036 45.9453 8.02734C45.8724 8.01432 45.7988 7.99674 45.7246 7.97461C45.6517 7.95247 45.5801 7.92708 45.5098 7.89844C45.4395 7.86849 45.373 7.83724 45.3105 7.80469L45.3965 7.02539ZM48.0312 5.28516L47.7363 5.17578V5.01172H48.5C48.4909 5.04557 48.4831 5.08138 48.4766 5.11914C48.4714 5.1556 48.4668 5.19857 48.4629 5.24805C48.459 5.29622 48.4564 5.35286 48.4551 5.41797C48.4538 5.48307 48.4525 5.5612 48.4512 5.65234C48.4512 5.74349 48.4512 5.84961 48.4512 5.9707C48.4512 6.0918 48.4512 6.23242 48.4512 6.39258V6.88672C48.4512 7.02474 48.459 7.14323 48.4746 7.24219C48.4915 7.33984 48.5208 7.42057 48.5625 7.48438C48.6042 7.54688 48.6615 7.5931 48.7344 7.62305C48.8086 7.65169 48.9036 7.66602 49.0195 7.66602C49.1068 7.66602 49.1895 7.65951 49.2676 7.64648C49.3457 7.63216 49.4199 7.61133 49.4902 7.58398C49.5618 7.55534 49.6309 7.52018 49.6973 7.47852C49.765 7.43555 49.8314 7.38542 49.8965 7.32812V5.28516L49.6758 5.17578V5.01172H50.6172V5.17578C50.5833 5.1901 50.5482 5.20182 50.5117 5.21094C50.4766 5.22005 50.4447 5.23503 50.416 5.25586C50.3874 5.27669 50.3639 5.30794 50.3457 5.34961C50.3275 5.38997 50.3184 5.44922 50.3184 5.52734V6.53125C50.3197 6.65885 50.321 6.77018 50.3223 6.86523C50.3236 6.96029 50.3242 7.04427 50.3242 7.11719C50.3255 7.1888 50.3268 7.2526 50.3281 7.30859C50.3307 7.36328 50.3327 7.41406 50.334 7.46094C50.3366 7.50651 50.3398 7.55078 50.3438 7.59375C50.3477 7.63672 50.3522 7.68294 50.3574 7.73242L50.6426 7.83984V8H49.9395C49.9368 7.95052 49.9349 7.90039 49.9336 7.84961C49.931 7.80664 49.929 7.76107 49.9277 7.71289C49.9277 7.66341 49.9271 7.61784 49.9258 7.57617C49.9023 7.60221 49.8711 7.63216 49.832 7.66602C49.7943 7.69857 49.75 7.73177 49.6992 7.76562C49.6497 7.79948 49.5944 7.83333 49.5332 7.86719C49.4733 7.89974 49.4095 7.92904 49.3418 7.95508C49.2754 7.97982 49.2064 8 49.1348 8.01562C49.0632 8.03125 48.9915 8.03906 48.9199 8.03906C48.8561 8.03906 48.7897 8.03646 48.7207 8.03125C48.653 8.02604 48.5859 8.01367 48.5195 7.99414C48.4544 7.97461 48.3919 7.94531 48.332 7.90625C48.2734 7.86719 48.2214 7.81445 48.1758 7.74805C48.1315 7.68034 48.0964 7.59701 48.0703 7.49805C48.0443 7.39779 48.0312 7.27669 48.0312 7.13477V5.28516ZM51.1602 5.2793L50.8398 5.17188V5.01172H51.9629V5.17188C51.9082 5.1875 51.862 5.20182 51.8242 5.21484C51.7878 5.22656 51.7572 5.24154 51.7324 5.25977C51.7077 5.27799 51.6882 5.30013 51.6738 5.32617C51.6608 5.35221 51.6497 5.38672 51.6406 5.42969L52.3496 7.57227L52.9277 5.74219L52.8633 5.55664L52.7539 5.2793L52.4551 5.17188V5.01172H53.6504V5.17188C53.584 5.1901 53.5247 5.20573 53.4727 5.21875C53.4219 5.23177 53.3796 5.2474 53.3457 5.26562C53.3118 5.28255 53.2858 5.30404 53.2676 5.33008C53.2493 5.35612 53.2402 5.39128 53.2402 5.43555L53.9316 7.54492L54.5996 5.32812V5.2793L54.2617 5.17188V5.01172H55.2871V5.17188C55.2246 5.1888 55.1641 5.20312 55.1055 5.21484C55.0469 5.22526 54.9928 5.23958 54.9434 5.25781L54.0762 7.96094L53.7266 8.06641L53.0645 6.14062L52.4785 7.96094L52.1445 8.06641L51.1602 5.2793ZM55.3789 6.57031C55.3789 6.4388 55.3932 6.30794 55.4219 6.17773C55.4505 6.04753 55.4928 5.92318 55.5488 5.80469C55.6061 5.6862 55.6764 5.57617 55.7598 5.47461C55.8444 5.37305 55.9421 5.28516 56.0527 5.21094C56.1647 5.13672 56.2897 5.07878 56.4277 5.03711C56.5671 4.99414 56.7188 4.97266 56.8828 4.97266C57.0443 4.97266 57.1921 4.99154 57.3262 5.0293C57.4616 5.06706 57.582 5.11979 57.6875 5.1875C57.7943 5.25521 57.8874 5.33529 57.9668 5.42773C58.0462 5.52018 58.112 5.62109 58.1641 5.73047C58.2174 5.83984 58.2572 5.95508 58.2832 6.07617C58.3092 6.19727 58.3223 6.32031 58.3223 6.44531C58.3223 6.57682 58.3079 6.70768 58.2793 6.83789C58.2507 6.9681 58.2077 7.09245 58.1504 7.21094C58.0944 7.32812 58.0241 7.4375 57.9395 7.53906C57.8548 7.64062 57.7565 7.72852 57.6445 7.80273C57.5339 7.87565 57.4089 7.93359 57.2695 7.97656C57.1315 8.01823 56.9805 8.03906 56.8164 8.03906C56.6549 8.03906 56.5072 8.02018 56.373 7.98242C56.2389 7.94466 56.1185 7.89258 56.0117 7.82617C55.9049 7.75846 55.8118 7.67839 55.7324 7.58594C55.653 7.49349 55.5872 7.39323 55.5352 7.28516C55.4831 7.17578 55.444 7.06055 55.418 6.93945C55.3919 6.81836 55.3789 6.69531 55.3789 6.57031ZM55.8145 6.36719C55.8145 6.48177 55.8242 6.5957 55.8438 6.70898C55.8646 6.82227 55.8952 6.93034 55.9355 7.0332C55.9772 7.13607 56.0293 7.23177 56.0918 7.32031C56.1556 7.40885 56.2305 7.48568 56.3164 7.55078C56.4023 7.61458 56.5007 7.66471 56.6113 7.70117C56.722 7.73763 56.8451 7.75586 56.9805 7.75586C57.0938 7.75586 57.2005 7.74089 57.3008 7.71094C57.4023 7.68099 57.4941 7.64193 57.5762 7.59375C57.6283 7.52214 57.6738 7.44727 57.7129 7.36914C57.752 7.28971 57.7839 7.20964 57.8086 7.12891C57.8346 7.04688 57.8542 6.96549 57.8672 6.88477C57.8802 6.80404 57.8867 6.72526 57.8867 6.64844C57.8867 6.53385 57.8763 6.41992 57.8555 6.30664C57.8359 6.19336 57.8053 6.08529 57.7637 5.98242C57.7233 5.87826 57.6712 5.78255 57.6074 5.69531C57.5449 5.60677 57.4701 5.52995 57.3828 5.46484C57.2969 5.39974 57.1986 5.34896 57.0879 5.3125C56.9772 5.27604 56.8542 5.25781 56.7188 5.25781C56.6055 5.25781 56.498 5.27409 56.3965 5.30664C56.2962 5.33789 56.2051 5.37956 56.123 5.43164C56.071 5.50326 56.0254 5.57812 55.9863 5.65625C55.9473 5.73307 55.9147 5.81185 55.8887 5.89258C55.8639 5.97201 55.8451 6.05208 55.832 6.13281C55.8203 6.21354 55.8145 6.29167 55.8145 6.36719ZM58.6738 7.83984C58.7415 7.82161 58.7969 7.80469 58.8398 7.78906C58.8828 7.77344 58.9173 7.75195 58.9434 7.72461C58.9694 7.69727 58.9889 7.66081 59.002 7.61523C59.015 7.56966 59.026 7.50781 59.0352 7.42969L59.0488 7.31055V5.43164C59.0423 5.38867 59.0319 5.35417 59.0176 5.32812C59.0033 5.30078 58.9831 5.27799 58.957 5.25977C58.931 5.24154 58.8984 5.22656 58.8594 5.21484C58.8203 5.20182 58.7734 5.1875 58.7188 5.17188V5.01172H59.3418L61.1387 7.2832L61.125 6.30859L61.1074 5.28516L60.7715 5.17578V5.01172H61.7129V5.17578C61.6439 5.19401 61.5872 5.21094 61.543 5.22656C61.5 5.24219 61.4661 5.26367 61.4414 5.29102C61.4167 5.31836 61.3991 5.35482 61.3887 5.40039C61.3796 5.44596 61.375 5.50781 61.375 5.58594V8H61.1484L61.1465 7.97461L61.1406 8L59.3223 5.65625L59.3496 7.72656L59.3535 7.73242L59.7305 7.83984V8H58.6738V7.83984ZM45.1992 12.8398C45.2669 12.8216 45.3229 12.8047 45.3672 12.7891C45.4115 12.7734 45.446 12.752 45.4707 12.7246C45.4954 12.6973 45.5124 12.6608 45.5215 12.6152C45.5319 12.5697 45.5371 12.5078 45.5371 12.4297V10.2812L45.1992 10.1719V10.0117H46.3184V10.1719C46.2507 10.1901 46.1934 10.207 46.1465 10.2227C46.1009 10.2383 46.0638 10.2598 46.0352 10.2871C46.0078 10.3145 45.9883 10.3509 45.9766 10.3965C45.9648 10.4421 45.959 10.5039 45.959 10.582V11.3418H47.373V10.2812L47.0352 10.1719V10.0117H48.1562V10.1719C48.0872 10.1901 48.0299 10.207 47.9844 10.2227C47.9388 10.2383 47.9017 10.2598 47.873 10.2871C47.8444 10.3145 47.8242 10.3509 47.8125 10.3965C47.8008 10.4421 47.7949 10.5039 47.7949 10.582V12.7324L48.1797 12.8398V13H47.0352V12.8398C47.1029 12.8216 47.1589 12.8047 47.2031 12.7891C47.2474 12.7734 47.2819 12.752 47.3066 12.7246C47.3314 12.6973 47.3483 12.6608 47.3574 12.6152C47.3678 12.5697 47.373 12.5078 47.373 12.4297V11.5762H45.959V12.7324L46.3418 12.8398V13H45.1992V12.8398ZM48.6328 10.2793L48.3125 10.1719V10.0117H49.4355V10.1719C49.3809 10.1875 49.3346 10.2018 49.2969 10.2148C49.2604 10.2266 49.2298 10.2415 49.2051 10.2598C49.1803 10.278 49.1608 10.3001 49.1465 10.3262C49.1335 10.3522 49.1224 10.3867 49.1133 10.4297L49.8223 12.5723L50.4004 10.7422L50.3359 10.5566L50.2266 10.2793L49.9277 10.1719V10.0117H51.123V10.1719C51.0566 10.1901 50.9974 10.2057 50.9453 10.2188C50.8945 10.2318 50.8522 10.2474 50.8184 10.2656C50.7845 10.2826 50.7585 10.304 50.7402 10.3301C50.722 10.3561 50.7129 10.3913 50.7129 10.4355L51.4043 12.5449L52.0723 10.3281V10.2793L51.7344 10.1719V10.0117H52.7598V10.1719C52.6973 10.1888 52.6367 10.2031 52.5781 10.2148C52.5195 10.2253 52.4655 10.2396 52.416 10.2578L51.5488 12.9609L51.1992 13.0664L50.5371 11.1406L49.9512 12.9609L49.6172 13.0664L48.6328 10.2793ZM52.5742 12.8398C52.6406 12.8216 52.6999 12.8053 52.752 12.791C52.8053 12.7767 52.8509 12.7565 52.8887 12.7305L53.8867 10.2188L53.7168 10.1562L53.7148 10.0586C53.7708 10.0456 53.8177 10.0345 53.8555 10.0254C53.8945 10.0163 53.9323 10.0072 53.9688 9.99805C54.0052 9.98763 54.0449 9.97656 54.0879 9.96484C54.1309 9.95312 54.1855 9.9375 54.252 9.91797C54.2689 9.96354 54.2845 10.0039 54.2988 10.0391C54.3145 10.0742 54.3314 10.1126 54.3496 10.1543C54.3678 10.1947 54.3893 10.2428 54.4141 10.2988C54.4388 10.3535 54.4694 10.4232 54.5059 10.5078C54.5423 10.5924 54.5859 10.696 54.6367 10.8184C54.6888 10.9408 54.7513 11.0905 54.8242 11.2676C54.8971 11.4447 54.9818 11.653 55.0781 11.8926C55.1758 12.1309 55.2884 12.4082 55.416 12.7246L55.3945 12.7324L55.7188 12.8398V13H54.5547V12.8398C54.6003 12.8281 54.6419 12.8171 54.6797 12.8066C54.7174 12.7962 54.7507 12.7845 54.7793 12.7715C54.8092 12.7585 54.8353 12.7435 54.8574 12.7266C54.8796 12.7083 54.8978 12.6862 54.9121 12.6602C54.89 12.6016 54.8587 12.5202 54.8184 12.416C54.778 12.3105 54.7246 12.1732 54.6582 12.0039H53.4863L53.2168 12.748L53.6133 12.8398V13H52.5742V12.8398ZM54.5664 11.7676L54.0488 10.4668C54.0332 10.4967 54.0169 10.5371 54 10.5879L53.5723 11.7676H54.5664ZM56.0527 12.0254L56.2754 12.0293L56.3574 12.4785C56.3652 12.5072 56.373 12.5306 56.3809 12.5488C56.3887 12.5658 56.3965 12.5794 56.4043 12.5898C56.4134 12.6003 56.4219 12.6087 56.4297 12.6152C56.4375 12.6204 56.4447 12.625 56.4512 12.6289C56.4798 12.6432 56.5195 12.6595 56.5703 12.6777C56.6211 12.6947 56.6777 12.7109 56.7402 12.7266C56.8027 12.7422 56.8678 12.7552 56.9355 12.7656C57.0033 12.776 57.0697 12.7812 57.1348 12.7812C57.1908 12.7812 57.2415 12.7747 57.2871 12.7617C57.3327 12.7487 57.3737 12.7324 57.4102 12.7129C57.4466 12.6934 57.4785 12.6719 57.5059 12.6484C57.5345 12.6237 57.5599 12.6003 57.582 12.5781C57.5885 12.5664 57.5957 12.5514 57.6035 12.5332C57.6113 12.5137 57.6185 12.4928 57.625 12.4707C57.6328 12.4473 57.6393 12.4225 57.6445 12.3965C57.6497 12.3704 57.6523 12.3451 57.6523 12.3203C57.6523 12.2188 57.6289 12.1341 57.582 12.0664C57.5352 11.9974 57.4727 11.9388 57.3945 11.8906C57.3177 11.8424 57.2298 11.8008 57.1309 11.7656C57.0332 11.7292 56.9329 11.6927 56.8301 11.6562C56.7272 11.6198 56.6263 11.5794 56.5273 11.5352C56.4297 11.4896 56.3418 11.4336 56.2637 11.3672C56.1868 11.3008 56.125 11.2207 56.0781 11.127C56.0312 11.0319 56.0078 10.9154 56.0078 10.7773C56.0078 10.681 56.0234 10.5944 56.0547 10.5176C56.0859 10.4408 56.1289 10.3724 56.1836 10.3125C56.2383 10.2526 56.3021 10.2012 56.375 10.1582C56.4492 10.1152 56.5286 10.0801 56.6133 10.0527C56.6992 10.0254 56.7884 10.0052 56.8809 9.99219C56.9733 9.97917 57.0658 9.97266 57.1582 9.97266C57.2337 9.97266 57.3008 9.97591 57.3594 9.98242C57.418 9.98763 57.4746 9.99544 57.5293 10.0059C57.584 10.015 57.6406 10.0254 57.6992 10.0371C57.7578 10.0488 57.8242 10.0599 57.8984 10.0703L57.8418 10.8438H57.6328L57.5547 10.5176C57.5482 10.4876 57.5404 10.4629 57.5312 10.4434C57.5234 10.4225 57.5137 10.4049 57.502 10.3906C57.4902 10.375 57.4772 10.3626 57.4629 10.3535C57.4486 10.3431 57.4323 10.3333 57.4141 10.3242C57.3594 10.3021 57.2936 10.2826 57.2168 10.2656C57.1413 10.2487 57.0566 10.2402 56.9629 10.2402C56.8848 10.2402 56.8132 10.2454 56.748 10.2559C56.6842 10.265 56.6296 10.2826 56.584 10.3086C56.5697 10.3268 56.5521 10.3451 56.5312 10.3633C56.5117 10.3815 56.4928 10.4036 56.4746 10.4297C56.4577 10.4557 56.4427 10.4876 56.4297 10.5254C56.418 10.5618 56.4121 10.6074 56.4121 10.6621C56.4121 10.7689 56.4355 10.8581 56.4824 10.9297C56.5293 11 56.5911 11.0599 56.668 11.1094C56.7448 11.1576 56.832 11.1986 56.9297 11.2324C57.0273 11.2663 57.127 11.3001 57.2285 11.334C57.3314 11.3678 57.4316 11.4056 57.5293 11.4473C57.627 11.4876 57.7142 11.5384 57.791 11.5996C57.8678 11.6608 57.9297 11.7363 57.9766 11.8262C58.0234 11.916 58.0469 12.0267 58.0469 12.1582C58.0469 12.3249 58.0137 12.4655 57.9473 12.5801C57.8809 12.6934 57.791 12.7845 57.6777 12.8535C57.5645 12.9225 57.4329 12.972 57.2832 13.002C57.1348 13.0319 56.9779 13.0469 56.8125 13.0469C56.7461 13.0469 56.6758 13.0404 56.6016 13.0273C56.5286 13.0143 56.4551 12.9967 56.3809 12.9746C56.3079 12.9525 56.2363 12.9271 56.166 12.8984C56.0957 12.8685 56.0293 12.8372 55.9668 12.8047L56.0527 12.0254ZM58.4863 12.8438C58.5514 12.8255 58.6042 12.8092 58.6445 12.7949C58.6862 12.7793 58.7181 12.7585 58.7402 12.7324C58.7637 12.7064 58.7793 12.6719 58.7871 12.6289C58.7949 12.5846 58.7988 12.5254 58.7988 12.4512V10.2734L58.4766 10.168V10.0117H60.2246L60.502 9.97461V10.7793L60.2988 10.7832L60.1582 10.2969C59.9655 10.2891 59.8086 10.2832 59.6875 10.2793C59.5677 10.2754 59.4727 10.2721 59.4023 10.2695C59.3216 10.2669 59.2611 10.2663 59.2207 10.2676V11.3711L60.084 11.3145V11.6855L59.2207 11.625V12.7676L60.3555 12.7207L60.5352 12.1602H60.7461L60.709 13.0352L60.4336 13H58.4863V12.8438ZM61.125 11.5703C61.125 11.4388 61.1393 11.3079 61.168 11.1777C61.1966 11.0475 61.2389 10.9232 61.2949 10.8047C61.3522 10.6862 61.4225 10.5762 61.5059 10.4746C61.5905 10.373 61.6882 10.2852 61.7988 10.2109C61.9108 10.1367 62.0358 10.0788 62.1738 10.0371C62.3132 9.99414 62.4648 9.97266 62.6289 9.97266C62.7904 9.97266 62.9382 9.99154 63.0723 10.0293C63.2077 10.0671 63.3281 10.1198 63.4336 10.1875C63.5404 10.2552 63.6335 10.3353 63.7129 10.4277C63.7923 10.5202 63.8581 10.6211 63.9102 10.7305C63.9635 10.8398 64.0033 10.9551 64.0293 11.0762C64.0553 11.1973 64.0684 11.3203 64.0684 11.4453C64.0684 11.5768 64.054 11.7077 64.0254 11.8379C63.9967 11.9681 63.9538 12.0924 63.8965 12.2109C63.8405 12.3281 63.7702 12.4375 63.6855 12.5391C63.6009 12.6406 63.5026 12.7285 63.3906 12.8027C63.2799 12.8757 63.1549 12.9336 63.0156 12.9766C62.8776 13.0182 62.7266 13.0391 62.5625 13.0391C62.401 13.0391 62.2533 13.0202 62.1191 12.9824C61.985 12.9447 61.8646 12.8926 61.7578 12.8262C61.651 12.7585 61.5579 12.6784 61.4785 12.5859C61.3991 12.4935 61.3333 12.3932 61.2812 12.2852C61.2292 12.1758 61.1901 12.0605 61.1641 11.9395C61.138 11.8184 61.125 11.6953 61.125 11.5703ZM61.5605 11.3672C61.5605 11.4818 61.5703 11.5957 61.5898 11.709C61.6107 11.8223 61.6413 11.9303 61.6816 12.0332C61.7233 12.1361 61.7754 12.2318 61.8379 12.3203C61.9017 12.4089 61.9766 12.4857 62.0625 12.5508C62.1484 12.6146 62.2467 12.6647 62.3574 12.7012C62.4681 12.7376 62.5911 12.7559 62.7266 12.7559C62.8398 12.7559 62.9466 12.7409 63.0469 12.7109C63.1484 12.681 63.2402 12.6419 63.3223 12.5938C63.3743 12.5221 63.4199 12.4473 63.459 12.3691C63.498 12.2897 63.5299 12.2096 63.5547 12.1289C63.5807 12.0469 63.6003 11.9655 63.6133 11.8848C63.6263 11.804 63.6328 11.7253 63.6328 11.6484C63.6328 11.5339 63.6224 11.4199 63.6016 11.3066C63.582 11.1934 63.5514 11.0853 63.5098 10.9824C63.4694 10.8783 63.4173 10.7826 63.3535 10.6953C63.291 10.6068 63.2161 10.5299 63.1289 10.4648C63.043 10.3997 62.9447 10.349 62.834 10.3125C62.7233 10.276 62.6003 10.2578 62.4648 10.2578C62.3516 10.2578 62.2441 10.2741 62.1426 10.3066C62.0423 10.3379 61.9512 10.3796 61.8691 10.4316C61.8171 10.5033 61.7715 10.5781 61.7324 10.6562C61.6934 10.7331 61.6608 10.8118 61.6348 10.8926C61.61 10.972 61.5911 11.0521 61.5781 11.1328C61.5664 11.2135 61.5605 11.2917 61.5605 11.3672ZM64.4199 12.8398C64.4876 12.8216 64.543 12.8047 64.5859 12.7891C64.6289 12.7734 64.6634 12.752 64.6895 12.7246C64.7155 12.6973 64.735 12.6608 64.748 12.6152C64.7611 12.5697 64.7721 12.5078 64.7812 12.4297L64.7949 12.3105V10.4316C64.7884 10.3887 64.778 10.3542 64.7637 10.3281C64.7493 10.3008 64.7292 10.278 64.7031 10.2598C64.6771 10.2415 64.6445 10.2266 64.6055 10.2148C64.5664 10.2018 64.5195 10.1875 64.4648 10.1719V10.0117H65.0879L66.8848 12.2832L66.8711 11.3086L66.8535 10.2852L66.5176 10.1758V10.0117H67.459V10.1758C67.39 10.194 67.3333 10.2109 67.2891 10.2266C67.2461 10.2422 67.2122 10.2637 67.1875 10.291C67.1628 10.3184 67.1452 10.3548 67.1348 10.4004C67.1257 10.446 67.1211 10.5078 67.1211 10.5859V13H66.8945L66.8926 12.9746L66.8867 13L65.0684 10.6562L65.0957 12.7266L65.0996 12.7324L65.4766 12.8398V13H64.4199V12.8398ZM67.7891 11.5625C67.7891 11.4323 67.8047 11.3027 67.8359 11.1738C67.8672 11.0436 67.9128 10.9199 67.9727 10.8027C68.0326 10.6842 68.1061 10.5749 68.1934 10.4746C68.2819 10.373 68.3828 10.2852 68.4961 10.2109C68.6094 10.1367 68.7344 10.0788 68.8711 10.0371C69.0078 9.99414 69.1556 9.97266 69.3145 9.97266C69.4525 9.97266 69.582 9.98242 69.7031 10.002C69.8255 10.0202 69.9336 10.0404 70.0273 10.0625C70.1367 10.0885 70.2376 10.1185 70.3301 10.1523L70.2559 10.8906H70.0547L69.957 10.4668C69.9036 10.4238 69.8444 10.3893 69.7793 10.3633C69.7142 10.3372 69.6452 10.3171 69.5723 10.3027C69.5007 10.2884 69.4271 10.2793 69.3516 10.2754C69.276 10.2702 69.2025 10.2676 69.1309 10.2676C69.0775 10.2676 69.0221 10.2734 68.9648 10.2852C68.9076 10.2956 68.8516 10.3112 68.7969 10.332C68.7422 10.3516 68.6914 10.375 68.6445 10.4023C68.5977 10.4284 68.5579 10.457 68.5254 10.4883C68.4824 10.5443 68.4421 10.6055 68.4043 10.6719C68.3678 10.737 68.3359 10.8079 68.3086 10.8848C68.2812 10.9603 68.2598 11.041 68.2441 11.127C68.2285 11.2116 68.2207 11.3008 68.2207 11.3945C68.2207 11.513 68.2311 11.6289 68.252 11.7422C68.2728 11.8555 68.3034 11.9622 68.3438 12.0625C68.3854 12.1628 68.4375 12.2559 68.5 12.3418C68.5625 12.4264 68.6348 12.4993 68.7168 12.5605C68.7988 12.6217 68.8906 12.6699 68.9922 12.7051C69.0951 12.7389 69.2077 12.7559 69.3301 12.7559C69.3978 12.7559 69.4564 12.7546 69.5059 12.752C69.5566 12.7493 69.6022 12.7454 69.6426 12.7402C69.6842 12.7337 69.7233 12.7253 69.7598 12.7148C69.7975 12.7044 69.8372 12.6914 69.8789 12.6758V11.8887L69.5137 11.7812V11.6191H70.4922V11.7812C70.4622 11.7891 70.4349 11.7982 70.4102 11.8086C70.3854 11.8177 70.3639 11.8294 70.3457 11.8438C70.3288 11.8581 70.3151 11.8757 70.3047 11.8965C70.2943 11.916 70.2891 11.9401 70.2891 11.9688V12.377L70.3047 12.7676C70.1732 12.8418 70.0443 12.8978 69.918 12.9355C69.793 12.972 69.679 12.998 69.5762 13.0137C69.4746 13.0293 69.3887 13.0371 69.3184 13.0371C69.2493 13.0384 69.2064 13.0391 69.1895 13.0391C69.0358 13.0391 68.8945 13.0202 68.7656 12.9824C68.6367 12.9434 68.5202 12.89 68.416 12.8223C68.3132 12.7546 68.2227 12.6745 68.1445 12.582C68.0664 12.4883 68.0007 12.3867 67.9473 12.2773C67.8952 12.168 67.8555 12.0527 67.8281 11.9316C67.8021 11.8105 67.7891 11.6875 67.7891 11.5625ZM45.0215 17.8398C45.0892 17.8216 45.1413 17.804 45.1777 17.7871C45.2142 17.7702 45.2422 17.748 45.2617 17.7207C45.2812 17.6934 45.2969 17.6576 45.3086 17.6133C45.3216 17.5677 45.3379 17.5065 45.3574 17.4297L45.3828 17.3281L45.6426 15.416C45.6361 15.377 45.6263 15.3451 45.6133 15.3203C45.6003 15.2943 45.5814 15.2728 45.5566 15.2559C45.5332 15.2389 45.5033 15.2246 45.4668 15.2129C45.4303 15.1999 45.3854 15.1862 45.332 15.1719V15.0117H46.1172V15.0879L47.002 17.3066L47.8359 15.0625L47.8301 15.0117H48.6211V15.1758C48.5521 15.194 48.4954 15.2103 48.4512 15.2246C48.4082 15.2376 48.3743 15.2565 48.3496 15.2812C48.3249 15.306 48.3073 15.3398 48.2969 15.3828C48.2878 15.4258 48.2832 15.4863 48.2832 15.5645L48.6094 17.7305L48.9668 17.8379V18H47.8516V17.8379C47.9193 17.8197 47.974 17.8027 48.0156 17.7871C48.0573 17.7715 48.0892 17.75 48.1113 17.7227C48.1348 17.6953 48.1497 17.6589 48.1562 17.6133C48.1641 17.5677 48.168 17.5059 48.168 17.4277L47.9121 15.5859C47.9121 15.5833 47.9115 15.5807 47.9102 15.5781C47.9102 15.5742 47.9102 15.571 47.9102 15.5684L47.0449 17.8945C47.0449 17.9049 47.0436 17.9154 47.041 17.9258C47.0384 17.9362 47.0339 17.9447 47.0273 17.9512L46.8477 18.0195L45.8887 15.5586L45.6719 17.25L45.6621 17.7324L46 17.8398V18H45.0215V17.8398ZM49.418 15.2852L49.123 15.1758V15.0117H49.8867C49.8776 15.0456 49.8698 15.0814 49.8633 15.1191C49.8581 15.1556 49.8535 15.1986 49.8496 15.248C49.8457 15.2962 49.8431 15.3529 49.8418 15.418C49.8405 15.4831 49.8392 15.5612 49.8379 15.6523C49.8379 15.7435 49.8379 15.8496 49.8379 15.9707C49.8379 16.0918 49.8379 16.2324 49.8379 16.3926V16.8867C49.8379 17.0247 49.8457 17.1432 49.8613 17.2422C49.8783 17.3398 49.9076 17.4206 49.9492 17.4844C49.9909 17.5469 50.0482 17.5931 50.1211 17.623C50.1953 17.6517 50.2904 17.666 50.4062 17.666C50.4935 17.666 50.5762 17.6595 50.6543 17.6465C50.7324 17.6322 50.8066 17.6113 50.877 17.584C50.9486 17.5553 51.0176 17.5202 51.084 17.4785C51.1517 17.4355 51.2181 17.3854 51.2832 17.3281V15.2852L51.0625 15.1758V15.0117H52.0039V15.1758C51.9701 15.1901 51.9349 15.2018 51.8984 15.2109C51.8633 15.2201 51.8314 15.235 51.8027 15.2559C51.7741 15.2767 51.7507 15.3079 51.7324 15.3496C51.7142 15.39 51.7051 15.4492 51.7051 15.5273V16.5312C51.7064 16.6589 51.7077 16.7702 51.709 16.8652C51.7103 16.9603 51.7109 17.0443 51.7109 17.1172C51.7122 17.1888 51.7135 17.2526 51.7148 17.3086C51.7174 17.3633 51.7194 17.4141 51.7207 17.4609C51.7233 17.5065 51.7266 17.5508 51.7305 17.5938C51.7344 17.6367 51.7389 17.6829 51.7441 17.7324L52.0293 17.8398V18H51.3262C51.3236 17.9505 51.3216 17.9004 51.3203 17.8496C51.3177 17.8066 51.3158 17.7611 51.3145 17.7129C51.3145 17.6634 51.3138 17.6178 51.3125 17.5762C51.2891 17.6022 51.2578 17.6322 51.2188 17.666C51.181 17.6986 51.1367 17.7318 51.0859 17.7656C51.0365 17.7995 50.9811 17.8333 50.9199 17.8672C50.86 17.8997 50.7962 17.929 50.7285 17.9551C50.6621 17.9798 50.5931 18 50.5215 18.0156C50.4499 18.0312 50.3783 18.0391 50.3066 18.0391C50.2428 18.0391 50.1764 18.0365 50.1074 18.0312C50.0397 18.026 49.9727 18.0137 49.9062 17.9941C49.8411 17.9746 49.7786 17.9453 49.7188 17.9062C49.6602 17.8672 49.6081 17.8145 49.5625 17.748C49.5182 17.6803 49.4831 17.597 49.457 17.498C49.431 17.3978 49.418 17.2767 49.418 17.1348V15.2852ZM52.6426 17.0254L52.8652 17.0293L52.9473 17.4785C52.9551 17.5072 52.9629 17.5306 52.9707 17.5488C52.9785 17.5658 52.9863 17.5794 52.9941 17.5898C53.0033 17.6003 53.0117 17.6087 53.0195 17.6152C53.0273 17.6204 53.0345 17.625 53.041 17.6289C53.0697 17.6432 53.1094 17.6595 53.1602 17.6777C53.2109 17.6947 53.2676 17.7109 53.3301 17.7266C53.3926 17.7422 53.4577 17.7552 53.5254 17.7656C53.5931 17.776 53.6595 17.7812 53.7246 17.7812C53.7806 17.7812 53.8314 17.7747 53.877 17.7617C53.9225 17.7487 53.9635 17.7324 54 17.7129C54.0365 17.6934 54.0684 17.6719 54.0957 17.6484C54.1243 17.6237 54.1497 17.6003 54.1719 17.5781C54.1784 17.5664 54.1855 17.5514 54.1934 17.5332C54.2012 17.5137 54.2083 17.4928 54.2148 17.4707C54.2227 17.4473 54.2292 17.4225 54.2344 17.3965C54.2396 17.3704 54.2422 17.3451 54.2422 17.3203C54.2422 17.2188 54.2188 17.1341 54.1719 17.0664C54.125 16.9974 54.0625 16.9388 53.9844 16.8906C53.9076 16.8424 53.8197 16.8008 53.7207 16.7656C53.623 16.7292 53.5228 16.6927 53.4199 16.6562C53.3171 16.6198 53.2161 16.5794 53.1172 16.5352C53.0195 16.4896 52.9316 16.4336 52.8535 16.3672C52.7767 16.3008 52.7148 16.2207 52.668 16.127C52.6211 16.0319 52.5977 15.9154 52.5977 15.7773C52.5977 15.681 52.6133 15.5944 52.6445 15.5176C52.6758 15.4408 52.7188 15.3724 52.7734 15.3125C52.8281 15.2526 52.8919 15.2012 52.9648 15.1582C53.0391 15.1152 53.1185 15.0801 53.2031 15.0527C53.2891 15.0254 53.3783 15.0052 53.4707 14.9922C53.5632 14.9792 53.6556 14.9727 53.748 14.9727C53.8236 14.9727 53.8906 14.9759 53.9492 14.9824C54.0078 14.9876 54.0645 14.9954 54.1191 15.0059C54.1738 15.015 54.2305 15.0254 54.2891 15.0371C54.3477 15.0488 54.4141 15.0599 54.4883 15.0703L54.4316 15.8438H54.2227L54.1445 15.5176C54.138 15.4876 54.1302 15.4629 54.1211 15.4434C54.1133 15.4225 54.1035 15.4049 54.0918 15.3906C54.0801 15.375 54.0671 15.3626 54.0527 15.3535C54.0384 15.3431 54.0221 15.3333 54.0039 15.3242C53.9492 15.3021 53.8835 15.2826 53.8066 15.2656C53.7311 15.2487 53.6465 15.2402 53.5527 15.2402C53.4746 15.2402 53.403 15.2454 53.3379 15.2559C53.2741 15.265 53.2194 15.2826 53.1738 15.3086C53.1595 15.3268 53.1419 15.3451 53.1211 15.3633C53.1016 15.3815 53.0827 15.4036 53.0645 15.4297C53.0475 15.4557 53.0326 15.4876 53.0195 15.5254C53.0078 15.5618 53.002 15.6074 53.002 15.6621C53.002 15.7689 53.0254 15.8581 53.0723 15.9297C53.1191 16 53.181 16.0599 53.2578 16.1094C53.3346 16.1576 53.4219 16.1986 53.5195 16.2324C53.6172 16.2663 53.7168 16.3001 53.8184 16.334C53.9212 16.3678 54.0215 16.4056 54.1191 16.4473C54.2168 16.4876 54.304 16.5384 54.3809 16.5996C54.4577 16.6608 54.5195 16.7363 54.5664 16.8262C54.6133 16.916 54.6367 17.0267 54.6367 17.1582C54.6367 17.3249 54.6035 17.4655 54.5371 17.5801C54.4707 17.6934 54.3809 17.7845 54.2676 17.8535C54.1543 17.9225 54.0228 17.972 53.873 18.002C53.7246 18.0319 53.5677 18.0469 53.4023 18.0469C53.3359 18.0469 53.2656 18.0404 53.1914 18.0273C53.1185 18.0143 53.0449 17.9967 52.9707 17.9746C52.8978 17.9525 52.8262 17.9271 52.7559 17.8984C52.6855 17.8685 52.6191 17.8372 52.5566 17.8047L52.6426 17.0254ZM55.0762 17.8438C55.1413 17.8255 55.194 17.8092 55.2344 17.7949C55.276 17.7793 55.3079 17.7585 55.3301 17.7324C55.3535 17.7064 55.3691 17.6719 55.377 17.6289C55.3848 17.5846 55.3887 17.5254 55.3887 17.4512V15.2734L55.0664 15.168V15.0117H56.8145L57.0918 14.9746V15.7793L56.8887 15.7832L56.748 15.2969C56.5553 15.2891 56.3984 15.2832 56.2773 15.2793C56.1576 15.2754 56.0625 15.2721 55.9922 15.2695C55.9115 15.2669 55.8509 15.2663 55.8105 15.2676V16.3711L56.6738 16.3145V16.6855L55.8105 16.625V17.7676L56.9453 17.7207L57.125 17.1602H57.3359L57.2988 18.0352L57.0234 18H55.0762V17.8438ZM57.9453 15.2852L57.6504 15.1758V15.0117H58.4141C58.4049 15.0456 58.3971 15.0814 58.3906 15.1191C58.3854 15.1556 58.3809 15.1986 58.377 15.248C58.373 15.2962 58.3704 15.3529 58.3691 15.418C58.3678 15.4831 58.3665 15.5612 58.3652 15.6523C58.3652 15.7435 58.3652 15.8496 58.3652 15.9707C58.3652 16.0918 58.3652 16.2324 58.3652 16.3926V16.8867C58.3652 17.0247 58.373 17.1432 58.3887 17.2422C58.4056 17.3398 58.4349 17.4206 58.4766 17.4844C58.5182 17.5469 58.5755 17.5931 58.6484 17.623C58.7227 17.6517 58.8177 17.666 58.9336 17.666C59.0208 17.666 59.1035 17.6595 59.1816 17.6465C59.2598 17.6322 59.334 17.6113 59.4043 17.584C59.4759 17.5553 59.5449 17.5202 59.6113 17.4785C59.679 17.4355 59.7454 17.3854 59.8105 17.3281V15.2852L59.5898 15.1758V15.0117H60.5312V15.1758C60.4974 15.1901 60.4622 15.2018 60.4258 15.2109C60.3906 15.2201 60.3587 15.235 60.3301 15.2559C60.3014 15.2767 60.278 15.3079 60.2598 15.3496C60.2415 15.39 60.2324 15.4492 60.2324 15.5273V16.5312C60.2337 16.6589 60.235 16.7702 60.2363 16.8652C60.2376 16.9603 60.2383 17.0443 60.2383 17.1172C60.2396 17.1888 60.2409 17.2526 60.2422 17.3086C60.2448 17.3633 60.2467 17.4141 60.248 17.4609C60.2507 17.5065 60.2539 17.5508 60.2578 17.5938C60.2617 17.6367 60.2663 17.6829 60.2715 17.7324L60.5566 17.8398V18H59.8535C59.8509 17.9505 59.849 17.9004 59.8477 17.8496C59.8451 17.8066 59.8431 17.7611 59.8418 17.7129C59.8418 17.6634 59.8411 17.6178 59.8398 17.5762C59.8164 17.6022 59.7852 17.6322 59.7461 17.666C59.7083 17.6986 59.6641 17.7318 59.6133 17.7656C59.5638 17.7995 59.5085 17.8333 59.4473 17.8672C59.3874 17.8997 59.3236 17.929 59.2559 17.9551C59.1895 17.9798 59.1204 18 59.0488 18.0156C58.9772 18.0312 58.9056 18.0391 58.834 18.0391C58.7702 18.0391 58.7038 18.0365 58.6348 18.0312C58.5671 18.026 58.5 18.0137 58.4336 17.9941C58.3685 17.9746 58.306 17.9453 58.2461 17.9062C58.1875 17.8672 58.1354 17.8145 58.0898 17.748C58.0456 17.6803 58.0104 17.597 57.9844 17.498C57.9583 17.3978 57.9453 17.2767 57.9453 17.1348V15.2852ZM60.7949 17.8398C60.8626 17.8216 60.9147 17.804 60.9512 17.7871C60.9876 17.7702 61.0156 17.748 61.0352 17.7207C61.0547 17.6934 61.0703 17.6576 61.082 17.6133C61.0951 17.5677 61.1113 17.5065 61.1309 17.4297L61.1562 17.3281L61.416 15.416C61.4095 15.377 61.3997 15.3451 61.3867 15.3203C61.3737 15.2943 61.3548 15.2728 61.3301 15.2559C61.3066 15.2389 61.2767 15.2246 61.2402 15.2129C61.2038 15.1999 61.1589 15.1862 61.1055 15.1719V15.0117H61.8906V15.0879L62.7754 17.3066L63.6094 15.0625L63.6035 15.0117H64.3945V15.1758C64.3255 15.194 64.2689 15.2103 64.2246 15.2246C64.1816 15.2376 64.1478 15.2565 64.123 15.2812C64.0983 15.306 64.0807 15.3398 64.0703 15.3828C64.0612 15.4258 64.0566 15.4863 64.0566 15.5645L64.3828 17.7305L64.7402 17.8379V18H63.625V17.8379C63.6927 17.8197 63.7474 17.8027 63.7891 17.7871C63.8307 17.7715 63.8626 17.75 63.8848 17.7227C63.9082 17.6953 63.9232 17.6589 63.9297 17.6133C63.9375 17.5677 63.9414 17.5059 63.9414 17.4277L63.6855 15.5859C63.6855 15.5833 63.6849 15.5807 63.6836 15.5781C63.6836 15.5742 63.6836 15.571 63.6836 15.5684L62.8184 17.8945C62.8184 17.9049 62.8171 17.9154 62.8145 17.9258C62.8118 17.9362 62.8073 17.9447 62.8008 17.9512L62.6211 18.0195L61.6621 15.5586L61.4453 17.25L61.4355 17.7324L61.7734 17.8398V18H60.7949V17.8398Z" fill="black"/>
</svg>
