<svg width="400" height="381" viewBox="0 0 400 381" fill="none" xmlns="http://www.w3.org/2000/svg">
<path d="M133.999 96.0981C133.999 98.3201 133.999 100.543 134.007 102.765C134.014 108.359 133.92 113.952 134.124 119.546C134.219 120.778 134.283 122.025 134.593 123.227C134.937 124.611 135.609 125.934 136.619 126.954C137.568 127.95 138.814 128.613 140.171 128.844C141.207 129.505 142.095 130.367 142.961 131.236L144 132.294V199.003H178.156L177.487 123.05C176.799 121.708 176.126 120.359 175.476 118.998C174.236 116.428 173 113.85 171.496 111.424C168.095 106.023 163.178 101.743 157.361 99.1181C156.435 98.7021 155.509 98.3051 154.556 97.9571C151.019 96.6571 147.315 95.8941 143.603 95.2931C142.356 95.0891 141.109 94.9071 139.861 94.7001L133.999 93.7471V96.0981ZM57.9781 100.01L58.1292 133.413C58.1897 145.232 58.254 157.047 58.3333 168.865C58.3825 176.16 58.4392 183.454 58.4845 190.752L58.5412 198.349L63.9006 198.482L64.2483 198.489L65.6089 198.527L65.7828 198.531L67.3135 198.576C72.1588 198.72 77.0042 198.886 81.8533 198.916H82.0272C82.5866 198.916 83.1497 198.89 83.7129 198.867C85.0092 198.803 86.317 198.606 87.5188 198.1C88.0177 197.892 88.494 197.635 88.9362 197.329C90.5047 198.236 92.1488 199.026 93.8798 199.57C95.0703 199.959 96.2836 200.281 97.5081 200.519C101.25 201.248 105.105 201.267 108.866 200.704C112.373 200.168 115.794 199.171 119.04 197.737C120.688 197.03 122.283 196.187 123.795 195.22C128.072 192.453 131.738 188.84 134.566 184.603C135.114 183.794 135.64 182.974 136.097 182.109C137.314 179.83 138.146 177.346 138.591 174.803C139.635 169.22 139.786 163.502 139.31 157.852C139.165 155.979 138.926 154.114 138.591 152.265C137.991 149.045 137.004 145.871 135.454 142.968C134.942 142.033 134.395 141.118 133.814 140.224C131.365 136.429 128.375 132.956 124.819 130.159C124.227 129.683 123.608 129.24 122.967 128.832C120.163 127.052 117.033 125.828 113.828 124.989C108.721 123.619 103.377 123.382 98.1696 124.293C96.0606 124.675 93.9856 125.265 91.9976 126.07V97.9991H57.9705L57.9781 100.01ZM297.317 123.658C295.015 123.696 292.721 123.946 290.46 124.376C286.105 125.204 281.916 126.747 278.064 128.942C273.245 131.753 269.235 135.762 266.423 140.579C265.553 142.061 264.809 143.61 264.178 145.209C262.881 148.452 262.031 151.861 261.543 155.316C260.523 150.821 258.663 146.558 256.063 142.752C253.664 139.225 250.717 136.104 247.332 133.508C240.036 127.961 231.219 124.779 222.062 124.388C220.449 124.334 218.834 124.372 217.225 124.501C209.474 125.152 202.042 127.881 195.712 132.4C192.227 134.887 189.168 137.922 186.656 141.388C184.251 144.682 182.458 148.382 181.364 152.311C180.926 153.932 180.627 155.595 180.476 157.27C180.212 160.357 179.966 163.457 180.098 166.556C180.129 167.399 180.197 168.242 180.329 169.077C180.677 171.318 181.398 173.484 182.287 175.566C182.808 176.802 183.386 178.012 183.984 179.214C187.206 185.098 191.665 190.214 197.053 194.211C200.234 196.515 203.783 198.262 207.549 199.377C211.355 200.534 215.323 201.116 219.296 201.244C220.838 201.286 222.384 201.244 223.922 201.142C228.646 200.85 233.293 199.809 237.691 198.058C238.344 197.801 238.985 197.514 239.611 197.197C242.37 195.783 244.959 194.052 247.363 192.094C249.551 190.318 251.584 188.352 253.478 186.262C254.691 184.913 255.795 183.462 256.777 181.931C258.906 178.614 260.468 174.966 261.4 171.137C261.827 175.003 262.723 178.843 264.321 182.4C265.323 184.63 266.608 186.742 268.176 188.621C270.292 191.135 272.791 193.301 275.58 195.038C278.46 196.879 281.571 198.334 284.746 199.597C286.122 200.133 287.55 200.526 288.998 200.798V232.452L294.338 232.225L294.875 232.202L295.412 232.18L295.586 232.172L296.738 232.131C301.712 231.942 306.686 231.802 311.652 231.484C315.05 231.235 318.433 230.46 321.509 228.975C322.356 228.559 323.203 228.132 324.023 227.663C327.214 225.818 330.132 223.537 332.693 220.887C333.029 220.554 333.339 220.202 333.638 219.836C335.717 217.372 337.546 214.665 338.816 211.691C339.383 210.368 339.825 208.989 340.15 207.586C341.019 203.939 341.375 200.197 341.563 196.463C341.662 194.562 341.726 192.661 341.794 190.76C342.066 178.665 341.991 166.567 341.994 154.469C341.994 151.506 342.002 148.543 341.998 145.58V125H309.003V125.869C305.296 124.353 301.321 123.601 297.317 123.658ZM222.603 156C222.992 156.015 223.397 156.034 223.759 156.189C223.888 156.272 223.99 156.389 224.111 156.483C225.434 157.648 226.689 158.902 227.785 160.282C227.932 160.546 227.958 160.856 227.985 161.151C228.038 161.918 227.966 162.682 227.906 163.442C227.63 165.405 226.62 167.191 225.078 168.438C224.319 169.05 223.431 169.504 222.482 169.727C221.265 170.067 219.95 169.954 218.767 169.523C217.256 168.982 215.967 167.956 215.1 166.605C214.78 166.079 214.53 165.514 214.356 164.923C213.912 163.311 214.067 161.593 214.791 160.085C215.055 159.534 215.391 159.02 215.781 158.551C216.454 157.583 217.398 156.782 218.517 156.389C218.88 156.26 219.262 156.2 219.64 156.151C220.485 156.036 221.338 155.986 222.191 156C222.327 155.992 222.463 155.996 222.603 156ZM302.816 156.075C303.443 156.075 304.067 156.162 304.66 156.359C306.384 156.918 307.858 158.226 308.598 159.881C308.837 160.373 309.033 160.875 309.162 161.404C309.475 162.663 309.468 164.02 309.033 165.248C308.859 165.732 308.614 166.193 308.304 166.609L308.205 166.737C307.397 167.751 306.351 168.548 305.159 169.058C304.327 169.429 303.453 169.696 302.555 169.852C301.962 169.835 301.377 169.707 300.832 169.474C300.208 169.227 299.598 168.95 299.002 168.642C297.977 167.96 297.188 166.978 296.742 165.83C296.138 164.356 296.014 162.73 296.387 161.181C296.568 160.452 296.878 159.757 297.309 159.14C298.307 157.553 300.004 156.419 301.86 156.14C302.177 156.09 302.498 156.068 302.816 156.075ZM99.4659 157.171C100.154 157.175 100.842 157.304 101.473 157.572C102.92 158.177 104.118 159.379 104.685 160.845C104.984 161.635 105.082 162.489 105.029 163.324C104.953 164.558 104.532 165.745 103.816 166.752C103.023 167.575 102.039 168.189 100.951 168.54C99.7154 168.96 98.3888 169.111 97.0886 168.986C96.0748 168.836 95.1588 168.298 94.5336 167.486C93.7302 166.522 93.2433 165.334 93.139 164.084C92.9862 162.669 93.274 161.24 93.9629 159.995C94.3976 159.239 95.0174 158.577 95.7809 158.143C96.8883 157.489 98.1809 157.156 99.4659 157.171Z" fill="white"/>
<path d="M196.6 358.802C194.899 357.199 189.003 344.402 177.899 318.3L161.7 279.998H113.499C85.5986 279.998 63.0008 279.602 59.9016 279.001C51.9004 277.5 41.0985 271.801 35.2969 265.999C29.4008 260.103 23.7013 249.8 22.0988 242.199C21.3013 238.601 21.0027 210.799 21.0027 153.702C21.0027 82.0991 21.1993 69.5998 22.4994 64.5012C27.2994 46.0987 42.599 31.9973 61.0015 29.0984C69.9967 27.6017 330.1 27.6017 339.001 29.0984C356.901 31.899 371.701 44.7002 377 61.7006C378.901 68.001 379.003 70.8999 379.003 153.399C379.003 207.099 378.599 240.102 377.9 242.899C375.201 254.8 365 267.998 354.202 273.8C343.102 279.7 340.399 279.998 287.399 279.998H239.301L223.102 318.3C214.099 339.299 206.101 357.199 205.198 358.099C202.201 361.1 199.4 361.3 196.6 358.802ZM320.999 222.5C324 220.8 327.9 217.598 329.7 215.198C335.599 207.401 336 204.502 336 165.8V130.998H315.001V137.299L312.801 135.299C307.298 130.299 299.902 128.598 291.402 130.299C275.399 133.598 267.001 145.001 267.001 163.4C267.001 178.802 271.2 186.5 282.599 192.102C287.701 194.6 290.302 195.299 294.799 195.299C301.999 195.201 308.001 193.598 311.501 190.802L314.298 188.598L313.599 193.001C312.2 201.702 307.601 206.003 299.599 206.003H295V226.201L305.299 225.8C314.302 225.498 316.101 225.101 320.999 222.5ZM117.6 191.799C123.3 189.199 128.799 183.598 131.399 178.099C134.2 171.798 134.302 156.899 131.599 149.098C129.6 143.202 123.5 135.798 118.598 133.202C108.401 127.899 95.399 128.798 88.301 135.299L85.9993 137.302V104.001H64.0024L64.199 148.297L64.5013 192.499L75.2994 192.801C85.5004 193.103 85.9993 193.001 85.9993 190.998C85.9993 188.5 86.3016 188.5 90.9013 191.501C97.901 196.199 108.098 196.301 117.6 191.803V191.799ZM234.701 192.801C240.801 190.601 249.101 183.503 252.401 177.6C263.301 158.6 250.9 135.602 227.301 130.998C212.5 128.099 196.498 135.299 189.502 148.1C187.298 152.3 186.501 155.1 186.198 161.102C185.802 167.799 186.1 169.398 188.5 174.799C191.399 181.3 197.998 188.402 204 191.501C212.7 195.998 224.7 196.501 234.701 192.801ZM171.798 158.698L171.5 124.501L168.2 117.8C163.601 108.502 156.299 103.498 144.299 101.499L140.001 100.8V111.9C140.001 121.398 140.202 123.001 141.6 123.001C142.5 123.001 144.699 124.501 146.6 126.402L150.002 129.8V193.001H172.097L171.798 158.698Z" fill="#999999"/>
<path d="M297.298 174.5C290.699 171.7 288.098 162.701 291.999 156.298C297.403 147.401 310.001 148.199 314.2 157.697C317.299 164.802 314.2 172.097 306.701 174.901C302.997 176.3 301.194 176.201 297.298 174.5ZM92.2017 173.401C84.8014 168.298 85.5988 156.298 93.6001 152.5C104.598 147.299 115.102 158.199 109.5 169.001C106.7 174.5 97.1982 176.9 92.2017 173.401ZM214.299 174.002C212.81 173.11 211.519 171.923 210.504 170.515C209.489 169.107 208.773 167.506 208.399 165.811C208.024 164.116 208 162.363 208.327 160.658C208.654 158.954 209.325 157.334 210.3 155.898C213.199 151.6 216.299 150.002 221.9 150.002C225.6 150.002 226.798 150.5 230.101 153.898C233.401 157.202 233.998 158.4 233.998 162.1C233.998 172.8 223.102 179.399 214.299 174.002Z" fill="#999999"/>
</svg>
